<?xml version="1.0" encoding="UTF-8"?>
<!DOCTYPE svg PUBLIC "-//W3C//DTD SVG 1.1//EN" "http://www.w3.org/Graphics/SVG/1.1/DTD/svg11.dtd">
<svg xmlns="http://www.w3.org/2000/svg" version="1.1" width="1895px" height="1920px" style="shape-rendering:geometricPrecision; text-rendering:geometricPrecision; image-rendering:optimizeQuality; fill-rule:evenodd; clip-rule:evenodd" xmlns:xlink="http://www.w3.org/1999/xlink">
<g><path style="opacity:1" fill="#fefefe" d="M -0.5,-0.5 C 201.833,-0.5 404.167,-0.5 606.5,-0.5C 603.899,0.800671 601.232,2.134 598.5,3.5C 591.417,7.75661 586.25,13.7566 583,21.5C 578.052,36.4058 575.552,51.7391 575.5,67.5C 576.521,88.9031 578.355,110.236 581,131.5C 585.894,166.879 591.227,202.212 597,237.5C 601.464,262.619 599.797,287.286 592,311.5C 589.562,316.042 587.396,320.709 585.5,325.5C 578.318,338.333 569.318,349.833 558.5,360C 530.833,383.667 503.167,407.333 475.5,431C 438.441,434.16 405.441,447.16 376.5,470C 342.758,499.991 317.258,535.824 300,577.5C 285.688,613.616 275.522,650.95 269.5,689.5C 267.589,697.621 266.089,705.955 265,714.5C 256.628,723.654 248.962,733.321 242,743.5C 201.578,803.23 171.912,868.23 153,938.5C 152.454,946.896 150.454,954.896 147,962.5C 144.423,976.781 142.257,991.114 140.5,1005.5C 138.833,1005.5 137.167,1005.5 135.5,1005.5C 119.405,1000.89 103.405,996.054 87.5,991C 64.629,985.628 41.629,980.461 18.5,975.5C 18.561,978.73 20.2277,980.563 23.5,981C 62.6464,988.719 100.98,998.886 138.5,1011.5C 136.068,1035.84 134.068,1060.17 132.5,1084.5C 87.1671,1087.37 42.8338,1095.37 -0.5,1108.5C -0.5,738.833 -0.5,369.167 -0.5,-0.5 Z"/></g>
<g><path style="opacity:1" fill="#bf915d" d="M 606.5,-0.5 C 613.167,-0.5 619.833,-0.5 626.5,-0.5C 645.683,5.17583 663.183,14.1758 679,26.5C 699.561,73.6291 723.228,118.962 750,162.5C 768.336,191.345 789.503,218.011 813.5,242.5C 798.396,245.813 783.063,248.646 767.5,251C 758.194,253.461 748.861,255.794 739.5,258C 730.957,261.454 722.29,264.788 713.5,268C 708.612,270.294 703.945,272.961 699.5,276C 698.072,276.579 696.738,276.412 695.5,275.5C 687.198,258.684 677.032,243.017 665,228.5C 660.895,219.069 655.228,210.736 648,203.5C 646.098,199.261 643.765,195.261 641,191.5C 639.459,180.884 639.125,170.217 640,159.5C 643.391,135.547 646.391,111.547 649,87.5C 650.081,72.7388 649.414,58.0722 647,43.5C 637.684,25.6052 623.518,13.4385 604.5,7C 602.242,6.12397 600.242,4.95731 598.5,3.5C 601.232,2.134 603.899,0.800671 606.5,-0.5 Z"/></g>
<g><path style="opacity:1" fill="#fefefe" d="M 626.5,-0.5 C 1049.17,-0.5 1471.83,-0.5 1894.5,-0.5C 1894.5,531.833 1894.5,1064.17 1894.5,1596.5C 1893.05,1568.34 1892.05,1540.01 1891.5,1511.5C 1891.94,1500.61 1891.27,1489.94 1889.5,1479.5C 1889,1466 1888.33,1452.67 1887.5,1439.5C 1887.76,1428.62 1887.09,1417.96 1885.5,1407.5C 1885.14,1393.97 1884.14,1380.64 1882.5,1367.5C 1879.32,1327.43 1875.32,1287.43 1870.5,1247.5C 1869.64,1237.96 1868.31,1228.63 1866.5,1219.5C 1848.53,1075.62 1816.69,934.95 1771,797.5C 1743.94,718.046 1709.27,642.046 1667,569.5C 1654.22,549.584 1640.72,530.251 1626.5,511.5C 1670.88,413.934 1681.71,312.601 1659,207.5C 1654.52,191.077 1649.86,174.744 1645,158.5C 1640.38,147.602 1636.05,136.602 1632,125.5C 1621.51,103.493 1609.84,82.1596 1597,61.5C 1595.83,59.6667 1594.33,58.1667 1592.5,57C 1569.42,46.062 1545.76,44.7287 1521.5,53C 1505.21,58.3112 1490.21,65.9778 1476.5,76C 1464.44,84.5594 1453.1,94.0594 1442.5,104.5C 1394.78,157.723 1345.11,209.223 1293.5,259C 1278.3,273.04 1262.96,286.874 1247.5,300.5C 1223.51,299.722 1199.51,299.056 1175.5,298.5C 1170.17,298.5 1164.83,298.5 1159.5,298.5C 1151.73,296.845 1143.73,296.178 1135.5,296.5C 1134.83,296.5 1134.17,296.5 1133.5,296.5C 1115.7,294.649 1097.7,293.649 1079.5,293.5C 1018.91,290.648 958.572,285.148 898.5,277C 879.858,273.423 861.525,268.756 843.5,263C 832.224,257.866 822.224,251.033 813.5,242.5C 789.503,218.011 768.336,191.345 750,162.5C 723.228,118.962 699.561,73.6291 679,26.5C 663.183,14.1758 645.683,5.17583 626.5,-0.5 Z"/></g>
<g><path style="opacity:1" fill="#dcaa6b" d="M 598.5,3.5 C 600.242,4.95731 602.242,6.12397 604.5,7C 623.518,13.4385 637.684,25.6052 647,43.5C 649.414,58.0722 650.081,72.7388 649,87.5C 646.391,111.547 643.391,135.547 640,159.5C 639.125,170.217 639.459,180.884 641,191.5C 643.765,195.261 646.098,199.261 648,203.5C 655.228,210.736 660.895,219.069 665,228.5C 677.032,243.017 687.198,258.684 695.5,275.5C 677.437,284.025 659.104,292.358 640.5,300.5C 639.713,301.242 639.047,302.075 638.5,303C 633.522,303.656 629.189,305.656 625.5,309C 616.658,311.802 608.658,316.135 601.5,322C 596.952,324.025 592.285,325.859 587.5,327.5C 586.808,328.025 586.308,328.692 586,329.5C 585.51,328.207 585.343,326.873 585.5,325.5C 587.396,320.709 589.562,316.042 592,311.5C 599.797,287.286 601.464,262.619 597,237.5C 591.227,202.212 585.894,166.879 581,131.5C 578.355,110.236 576.521,88.9031 575.5,67.5C 575.552,51.7391 578.052,36.4058 583,21.5C 586.25,13.7566 591.417,7.75661 598.5,3.5 Z"/></g>
<g><path style="opacity:1" fill="#bf915d" d="M 1626.5,511.5 C 1621.82,526.653 1617.32,541.987 1613,557.5C 1606.46,573.931 1600.46,590.598 1595,607.5C 1592.05,611.277 1588.21,612.443 1583.5,611C 1579.28,609.891 1575.28,608.225 1571.5,606C 1557.65,595.911 1543.65,586.078 1529.5,576.5C 1534.4,568.389 1539.56,560.389 1545,552.5C 1546.01,551.663 1547.18,551.33 1548.5,551.5C 1552.53,541.953 1558.03,533.286 1565,525.5C 1565.44,522.624 1566.44,519.957 1568,517.5C 1572.99,509.839 1577.99,502.173 1583,494.5C 1588.03,483.438 1593.36,472.438 1599,461.5C 1603.82,449.203 1609.15,437.203 1615,425.5C 1635.6,365.045 1640.93,303.045 1631,239.5C 1626.87,217.786 1621.53,196.452 1615,175.5C 1611.29,166.144 1607.62,156.811 1604,147.5C 1594.36,130.518 1584.7,113.518 1575,96.5C 1570.84,91.6928 1566.34,87.1928 1561.5,83C 1555.05,80.3464 1548.39,79.8464 1541.5,81.5C 1533.38,85.2653 1525.71,89.932 1518.5,95.5C 1506.28,106.214 1494.45,117.548 1483,129.5C 1461.89,152.105 1441.39,175.105 1421.5,198.5C 1395.21,243.258 1368.38,287.592 1341,331.5C 1340,334.167 1339,336.833 1338,339.5C 1334.16,345.851 1329.82,351.851 1325,357.5C 1316.93,371.545 1308.93,385.545 1301,399.5C 1300.33,400.252 1299.5,400.586 1298.5,400.5C 1280.55,389.185 1262.88,377.351 1245.5,365C 1224.9,342.884 1225.57,321.717 1247.5,301.5C 1247.5,301.167 1247.5,300.833 1247.5,300.5C 1262.96,286.874 1278.3,273.04 1293.5,259C 1345.11,209.223 1394.78,157.723 1442.5,104.5C 1453.1,94.0594 1464.44,84.5594 1476.5,76C 1490.21,65.9778 1505.21,58.3112 1521.5,53C 1545.76,44.7287 1569.42,46.062 1592.5,57C 1594.33,58.1667 1595.83,59.6667 1597,61.5C 1609.84,82.1596 1621.51,103.493 1632,125.5C 1636.05,136.602 1640.38,147.602 1645,158.5C 1649.86,174.744 1654.52,191.077 1659,207.5C 1681.71,312.601 1670.88,413.934 1626.5,511.5 Z"/></g>
<g><path style="opacity:1" fill="#dca96a" d="M 1529.5,576.5 C 1527.69,575.093 1525.69,573.926 1523.5,573C 1513.67,563.452 1503,555.118 1491.5,548C 1489.13,545.494 1486.8,542.994 1484.5,540.5C 1485.5,540.53 1486.16,540.03 1486.5,539C 1505.39,488.983 1524.22,439.149 1543,389.5C 1546.68,376.786 1550.68,364.12 1555,351.5C 1558.66,326.387 1558.32,301.387 1554,276.5C 1551.19,265.378 1545.69,255.878 1537.5,248C 1526.5,242.854 1515.83,243.521 1505.5,250C 1493.01,260.493 1481.84,272.327 1472,285.5C 1464.31,295.888 1456.97,306.555 1450,317.5C 1440.67,333.5 1431.33,349.5 1422,365.5C 1413.65,381.176 1405.32,396.842 1397,412.5C 1390.09,427.984 1382.92,443.318 1375.5,458.5C 1369.84,456.337 1365.17,452.837 1361.5,448C 1357.02,446.53 1353.35,443.864 1350.5,440C 1344.32,437.078 1338.65,433.411 1333.5,429C 1332.17,427.333 1330.83,425.667 1329.5,424C 1323.67,420.585 1318,416.918 1312.5,413C 1307.61,409.06 1302.95,404.894 1298.5,400.5C 1299.5,400.586 1300.33,400.252 1301,399.5C 1308.93,385.545 1316.93,371.545 1325,357.5C 1329.82,351.851 1334.16,345.851 1338,339.5C 1339,336.833 1340,334.167 1341,331.5C 1368.38,287.592 1395.21,243.258 1421.5,198.5C 1441.39,175.105 1461.89,152.105 1483,129.5C 1494.45,117.548 1506.28,106.214 1518.5,95.5C 1525.71,89.932 1533.38,85.2653 1541.5,81.5C 1548.39,79.8464 1555.05,80.3464 1561.5,83C 1566.34,87.1928 1570.84,91.6928 1575,96.5C 1584.7,113.518 1594.36,130.518 1604,147.5C 1607.62,156.811 1611.29,166.144 1615,175.5C 1621.53,196.452 1626.87,217.786 1631,239.5C 1640.93,303.045 1635.6,365.045 1615,425.5C 1609.15,437.203 1603.82,449.203 1599,461.5C 1593.36,472.438 1588.03,483.438 1583,494.5C 1577.99,502.173 1572.99,509.839 1568,517.5C 1566.44,519.957 1565.44,522.624 1565,525.5C 1558.03,533.286 1552.53,541.953 1548.5,551.5C 1547.18,551.33 1546.01,551.663 1545,552.5C 1539.56,560.389 1534.4,568.389 1529.5,576.5 Z"/></g>
<g><path style="opacity:1" fill="#e4bd89" d="M 813.5,242.5 C 822.224,251.033 832.224,257.866 843.5,263C 861.525,268.756 879.858,273.423 898.5,277C 958.572,285.148 1018.91,290.648 1079.5,293.5C 1097.3,295.403 1115.3,296.403 1133.5,296.5C 1134.17,296.5 1134.83,296.5 1135.5,296.5C 1143.27,298.155 1151.27,298.822 1159.5,298.5C 1164.83,298.5 1170.17,298.5 1175.5,298.5C 1179.31,299.324 1183.31,299.824 1187.5,300C 1185.04,301.216 1182.37,301.882 1179.5,302C 1181.5,302.167 1183.5,302.333 1185.5,302.5C 1192.79,301.419 1200.12,300.753 1207.5,300.5C 1220.83,301.055 1234.16,301.389 1247.5,301.5C 1225.57,321.717 1224.9,342.884 1245.5,365C 1262.88,377.351 1280.55,389.185 1298.5,400.5C 1302.95,404.894 1307.61,409.06 1312.5,413C 1318,416.918 1323.67,420.585 1329.5,424C 1330.83,425.667 1332.17,427.333 1333.5,429C 1338.65,433.411 1344.32,437.078 1350.5,440C 1353.35,443.864 1357.02,446.53 1361.5,448C 1365.17,452.837 1369.84,456.337 1375.5,458.5C 1411.2,486.515 1447.53,513.849 1484.5,540.5C 1486.8,542.994 1489.13,545.494 1491.5,548C 1503,555.118 1513.67,563.452 1523.5,573C 1525.69,573.926 1527.69,575.093 1529.5,576.5C 1543.65,586.078 1557.65,595.911 1571.5,606C 1575.28,608.225 1579.28,609.891 1583.5,611C 1588.21,612.443 1592.05,611.277 1595,607.5C 1600.46,590.598 1606.46,573.931 1613,557.5C 1617.32,541.987 1621.82,526.653 1626.5,511.5C 1640.72,530.251 1654.22,549.584 1667,569.5C 1709.27,642.046 1743.94,718.046 1771,797.5C 1816.69,934.95 1848.53,1075.62 1866.5,1219.5C 1866.83,1229.11 1868.16,1238.44 1870.5,1247.5C 1875.32,1287.43 1879.32,1327.43 1882.5,1367.5C 1882.37,1381.07 1883.37,1394.4 1885.5,1407.5C 1885.51,1418.36 1886.18,1429.03 1887.5,1439.5C 1888.33,1452.67 1889,1466 1889.5,1479.5C 1889.51,1490.36 1890.18,1501.03 1891.5,1511.5C 1892.05,1540.01 1893.05,1568.34 1894.5,1596.5C 1894.5,1642.83 1894.5,1689.17 1894.5,1735.5C 1893.34,1786.02 1891.67,1836.69 1889.5,1887.5C 1887.97,1897.96 1887.3,1908.63 1887.5,1919.5C 1873.5,1919.5 1859.5,1919.5 1845.5,1919.5C 1859.88,1878.05 1864.71,1835.39 1860,1791.5C 1857.54,1773.74 1854.54,1756.07 1851,1738.5C 1836.14,1680.81 1812.14,1627.47 1779,1578.5C 1768.99,1564.81 1757.82,1551.98 1745.5,1540C 1734.63,1530.25 1721.97,1526.92 1707.5,1530C 1702.09,1530.61 1696.76,1531.61 1691.5,1533C 1681.27,1536.93 1671.27,1541.26 1661.5,1546C 1636.12,1561.04 1612.12,1578.04 1589.5,1597C 1578.02,1607.57 1566.35,1617.9 1554.5,1628C 1542.38,1639.78 1530.38,1651.61 1518.5,1663.5C 1518.17,1663.17 1517.83,1662.83 1517.5,1662.5C 1522.62,1655.6 1526.12,1647.93 1528,1639.5C 1531.79,1616.8 1529.45,1594.8 1521,1573.5C 1515.07,1559.24 1504.91,1549.41 1490.5,1544C 1486.17,1543.33 1481.83,1543.33 1477.5,1544C 1461.92,1555.58 1445.58,1556.58 1428.5,1547C 1424.68,1543.92 1420.68,1541.09 1416.5,1538.5C 1415.61,1537.68 1415.28,1536.68 1415.5,1535.5C 1412.64,1534.49 1410.14,1532.83 1408,1530.5C 1373.25,1490.56 1365.92,1445.9 1386,1396.5C 1395.92,1377.33 1408.76,1360.33 1424.5,1345.5C 1439.21,1332.64 1454.87,1320.97 1471.5,1310.5C 1538.94,1261.12 1572.27,1194.29 1571.5,1110C 1570.53,1081.11 1568.7,1052.28 1566,1023.5C 1565.33,1007.5 1565.33,991.5 1566,975.5C 1566.68,969.115 1567.68,962.782 1569,956.5C 1582.81,924.076 1575.98,897.243 1548.5,876C 1542.23,871.811 1535.9,867.811 1529.5,864C 1505.42,854.529 1480.75,846.862 1455.5,841C 1394.51,830.71 1333.18,823.043 1271.5,818C 1255.5,817.333 1239.5,817.333 1223.5,818C 1212.94,819.197 1204.1,823.697 1197,831.5C 1184.62,853.931 1169.12,873.931 1150.5,891.5C 1111.24,925.8 1066.24,949.634 1015.5,963C 996.305,966.483 976.972,967.817 957.5,967C 953.914,961.077 949.247,956.077 943.5,952C 930.823,946.409 917.489,943.409 903.5,943C 879.502,942.5 855.502,942.333 831.5,942.5C 829.031,941.683 826.365,941.183 823.5,941C 828.225,934.618 831.058,927.451 832,919.5C 839.114,901.81 844.447,883.476 848,864.5C 853.232,850.339 855.898,835.672 856,820.5C 854.647,819.315 853.48,817.981 852.5,816.5C 853.309,814.929 853.643,813.262 853.5,811.5C 855.204,814.256 856.537,817.256 857.5,820.5C 864.88,841.223 877.88,857.557 896.5,869.5C 919.294,882.704 943.961,889.537 970.5,890C 1002.54,893.508 1034.21,891.508 1065.5,884C 1111.39,870.113 1144.22,841.28 1164,797.5C 1166.33,789.841 1168.5,782.174 1170.5,774.5C 1170.98,771.212 1169.98,768.545 1167.5,766.5C 1168.59,766.38 1169.25,765.713 1169.5,764.5C 1168.16,760.61 1167.32,756.61 1167,752.5C 1158.57,725.633 1147.9,699.633 1135,674.5C 1122.32,653.51 1107.82,634.01 1091.5,616C 1077.23,603.418 1061.56,592.751 1044.5,584C 1036.69,580.673 1028.69,577.84 1020.5,575.5C 1017.55,573.839 1014.22,572.672 1010.5,572C 998.836,571.139 987.169,570.306 975.5,569.5C 957.174,558.92 937.84,550.754 917.5,545C 912.833,544.333 908.167,544.333 903.5,545C 866.167,558.333 832.833,578.333 803.5,605C 797.027,612.806 789.86,619.973 782,626.5C 772.484,637.687 763.317,649.187 754.5,661C 749.146,661.332 743.813,660.999 738.5,660C 728.06,656.961 717.393,654.794 706.5,653.5C 706.571,619.304 704.071,585.304 699,551.5C 696.826,539.253 693.826,527.253 690,515.5C 685.745,507.72 682.078,499.72 679,491.5C 675.735,487.838 672.568,484.005 669.5,480C 664.479,475.541 658.813,472.208 652.5,470C 645.508,469.5 638.508,469.334 631.5,469.5C 618.87,469.239 606.537,471.073 594.5,475C 565.526,485.98 539.193,501.314 515.5,521C 483.865,549.351 464.032,584.518 456,626.5C 455.502,629.482 455.335,632.482 455.5,635.5C 444.663,650.984 437.997,668.151 435.5,687C 436.031,689.817 436.364,692.65 436.5,695.5C 433.213,728.704 446.879,751.871 477.5,765C 493.691,770.694 510.357,773.694 527.5,774C 537.665,762.003 548.332,750.503 559.5,739.5C 558.829,740.847 558.829,742.014 559.5,743C 558.421,743.956 557.255,744.789 556,745.5C 518.655,800.674 473.155,847.674 419.5,886.5C 418.311,887.429 416.978,887.762 415.5,887.5C 393.046,875.19 378.546,856.523 372,831.5C 366.095,797.764 367.762,764.431 377,731.5C 382.39,713.929 388.39,696.596 395,679.5C 397.074,671.085 396.907,662.752 394.5,654.5C 390.017,649.123 384.351,645.623 377.5,644C 356.132,642.921 335.465,646.255 315.5,654C 311.058,656.268 306.724,658.768 302.5,661.5C 291.558,671.106 280.891,681.106 270.5,691.5C 269.702,691.043 269.369,690.376 269.5,689.5C 275.522,650.95 285.688,613.616 300,577.5C 317.258,535.824 342.758,499.991 376.5,470C 405.441,447.16 438.441,434.16 475.5,431C 503.167,407.333 530.833,383.667 558.5,360C 569.318,349.833 578.318,338.333 585.5,325.5C 585.343,326.873 585.51,328.207 586,329.5C 586.308,328.692 586.808,328.025 587.5,327.5C 592.285,325.859 596.952,324.025 601.5,322C 608.658,316.135 616.658,311.802 625.5,309C 629.189,305.656 633.522,303.656 638.5,303C 639.047,302.075 639.713,301.242 640.5,300.5C 659.104,292.358 677.437,284.025 695.5,275.5C 696.738,276.412 698.072,276.579 699.5,276C 703.945,272.961 708.612,270.294 713.5,268C 722.29,264.788 730.957,261.454 739.5,258C 748.861,255.794 758.194,253.461 767.5,251C 783.063,248.646 798.396,245.813 813.5,242.5 Z"/></g>
<g><path style="opacity:1" fill="#a1755a" d="M 1484.5,540.5 C 1447.53,513.849 1411.2,486.515 1375.5,458.5C 1382.92,443.318 1390.09,427.984 1397,412.5C 1405.32,396.842 1413.65,381.176 1422,365.5C 1431.33,349.5 1440.67,333.5 1450,317.5C 1456.97,306.555 1464.31,295.888 1472,285.5C 1481.84,272.327 1493.01,260.493 1505.5,250C 1515.83,243.521 1526.5,242.854 1537.5,248C 1545.69,255.878 1551.19,265.378 1554,276.5C 1558.32,301.387 1558.66,326.387 1555,351.5C 1550.68,364.12 1546.68,376.786 1543,389.5C 1524.22,439.149 1505.39,488.983 1486.5,539C 1486.16,540.03 1485.5,540.53 1484.5,540.5 Z"/></g>
<g><path style="opacity:1" fill="#f8eedf" d="M 1079.5,293.5 C 1097.7,293.649 1115.7,294.649 1133.5,296.5C 1115.3,296.403 1097.3,295.403 1079.5,293.5 Z"/></g>
<g><path style="opacity:1" fill="#eed3b2" d="M 1135.5,296.5 C 1143.73,296.178 1151.73,296.845 1159.5,298.5C 1151.27,298.822 1143.27,298.155 1135.5,296.5 Z"/></g>
<g><path style="opacity:1" fill="#e8c99e" d="M 1175.5,298.5 C 1199.51,299.056 1223.51,299.722 1247.5,300.5C 1247.5,300.833 1247.5,301.167 1247.5,301.5C 1234.16,301.389 1220.83,301.055 1207.5,300.5C 1200.12,300.753 1192.79,301.419 1185.5,302.5C 1183.5,302.333 1181.5,302.167 1179.5,302C 1182.37,301.882 1185.04,301.216 1187.5,300C 1183.31,299.824 1179.31,299.324 1175.5,298.5 Z"/></g>
<g><path style="opacity:1" fill="#ddaa6b" d="M 891.5,383.5 C 901.449,382.366 905.949,386.699 905,396.5C 893.939,406.731 882.439,416.397 870.5,425.5C 866.512,429.655 862.345,433.655 858,437.5C 856.562,438.9 855.729,440.567 855.5,442.5C 844.95,448.879 836.117,457.213 829,467.5C 819.709,476.114 810.875,485.114 802.5,494.5C 800.438,496.403 799.104,498.737 798.5,501.5C 794.591,503.314 792.091,506.314 791,510.5C 786.636,512.882 783.969,516.549 783,521.5C 779.188,525.777 775.855,530.443 773,535.5C 768.56,546.002 765.06,556.668 762.5,567.5C 753.329,571.548 747.663,568.715 745.5,559C 745.963,554.422 746.796,549.922 748,545.5C 752.394,537.275 756.56,528.942 760.5,520.5C 763.896,515.656 767.062,510.656 770,505.5C 776.248,496.581 783.248,488.248 791,480.5C 792.383,475.954 795.217,472.954 799.5,471.5C 799.608,469.217 800.441,467.217 802,465.5C 811.032,455.999 820.198,446.499 829.5,437C 835.626,433.041 840.959,428.208 845.5,422.5C 860.3,408.686 875.634,395.686 891.5,383.5 Z"/></g>
<g><path style="opacity:1" fill="#f9efd6" d="M 631.5,469.5 C 647.977,474.056 655.977,485.056 655.5,502.5C 653.864,520.513 650.364,538.179 645,555.5C 639.025,571.461 633.025,587.461 627,603.5C 613.576,633.344 599.909,663.011 586,692.5C 585.517,691.552 585.351,690.552 585.5,689.5C 585.825,681.648 585.492,673.982 584.5,666.5C 584.825,658.981 584.492,651.648 583.5,644.5C 583.139,640.085 581.806,636.085 579.5,632.5C 572.517,619.703 561.851,611.536 547.5,608C 530.739,603.637 514.072,603.47 497.5,607.5C 493.085,607.861 489.085,609.194 485.5,611.5C 473.401,616.939 463.401,624.939 455.5,635.5C 455.335,632.482 455.502,629.482 456,626.5C 464.032,584.518 483.865,549.351 515.5,521C 539.193,501.314 565.526,485.98 594.5,475C 606.537,471.073 618.87,469.239 631.5,469.5 Z"/></g>
<g><path style="opacity:1" fill="#eecba1" d="M 631.5,469.5 C 638.508,469.334 645.508,469.5 652.5,470C 658.813,472.208 664.479,475.541 669.5,480C 672.568,484.005 675.735,487.838 679,491.5C 682.078,499.72 685.745,507.72 690,515.5C 693.826,527.253 696.826,539.253 699,551.5C 704.071,585.304 706.571,619.304 706.5,653.5C 717.393,654.794 728.06,656.961 738.5,660C 743.813,660.999 749.146,661.332 754.5,661C 763.317,649.187 772.484,637.687 782,626.5C 789.86,619.973 797.027,612.806 803.5,605C 832.833,578.333 866.167,558.333 903.5,545C 908.167,544.333 912.833,544.333 917.5,545C 937.84,550.754 957.174,558.92 975.5,569.5C 987.169,570.306 998.836,571.139 1010.5,572C 1014.22,572.672 1017.55,573.839 1020.5,575.5C 996.255,570.91 971.922,570.41 947.5,574C 943.136,577.182 938.469,579.849 933.5,582C 932.833,583 932.167,584 931.5,585C 923.499,587.997 916.499,592.497 910.5,598.5C 907.397,599.763 904.397,601.263 901.5,603C 891.292,611.715 880.625,619.715 869.5,627C 850.967,642.366 834.3,659.533 819.5,678.5C 816.946,683.664 814.113,688.664 811,693.5C 806.296,705.109 805.296,717.109 808,729.5C 813.939,740.106 822.106,748.273 832.5,754C 838.96,757.46 845.627,760.46 852.5,763C 861.629,766.187 870.962,768.521 880.5,770C 881.056,770.383 881.389,770.883 881.5,771.5C 872.245,782.927 862.412,793.927 852,804.5C 851.865,806.922 852.365,809.255 853.5,811.5C 853.643,813.262 853.309,814.929 852.5,816.5C 853.48,817.981 854.647,819.315 856,820.5C 855.898,835.672 853.232,850.339 848,864.5C 844.447,883.476 839.114,901.81 832,919.5C 831.058,927.451 828.225,934.618 823.5,941C 826.365,941.183 829.031,941.683 831.5,942.5C 828.833,942.5 826.167,942.5 823.5,942.5C 809.56,982.403 787.56,1017.07 757.5,1046.5C 744.945,1055.94 731.612,1064.11 717.5,1071C 707.174,1072.75 697.174,1075.41 687.5,1079C 663.74,1084.49 639.74,1085.83 615.5,1083C 605.214,1081.48 595.714,1077.98 587,1072.5C 586.292,1073.38 585.458,1074.05 584.5,1074.5C 597.918,1052.68 604.918,1028.85 605.5,1003C 605.325,997.15 604.992,991.317 604.5,985.5C 604.805,979.01 603.471,973.01 600.5,967.5C 595.703,956.183 588.37,946.683 578.5,939C 556.365,923.101 532.031,911.768 505.5,905C 495.543,902.842 485.543,901.008 475.5,899.5C 470.453,897.694 465.12,896.694 459.5,896.5C 455.5,896.5 451.5,896.5 447.5,896.5C 432.938,895.051 418.271,895.385 403.5,897.5C 407.792,894.543 411.792,891.21 415.5,887.5C 416.978,887.762 418.311,887.429 419.5,886.5C 473.155,847.674 518.655,800.674 556,745.5C 557.255,744.789 558.421,743.956 559.5,743C 558.829,742.014 558.829,740.847 559.5,739.5C 559.833,738.833 560.167,738.167 560.5,737.5C 570.887,729.079 578.053,718.412 582,705.5C 583.075,700.011 584.241,694.678 585.5,689.5C 585.351,690.552 585.517,691.552 586,692.5C 599.909,663.011 613.576,633.344 627,603.5C 633.025,587.461 639.025,571.461 645,555.5C 650.364,538.179 653.864,520.513 655.5,502.5C 655.977,485.056 647.977,474.056 631.5,469.5 Z"/></g>
<g><path style="opacity:1" fill="#eeead1" d="M 1020.5,575.5 C 1028.69,577.84 1036.69,580.673 1044.5,584C 1061.56,592.751 1077.23,603.418 1091.5,616C 1107.82,634.01 1122.32,653.51 1135,674.5C 1147.9,699.633 1158.57,725.633 1167,752.5C 1167.32,756.61 1168.16,760.61 1169.5,764.5C 1169.25,765.713 1168.59,766.38 1167.5,766.5C 1140.58,733.417 1107.92,707.584 1069.5,689C 1060.52,684.728 1051.19,681.562 1041.5,679.5C 1037.21,677.401 1032.54,676.234 1027.5,676C 1017.66,675.175 1007.99,675.342 998.5,676.5C 997.081,677.451 995.415,677.784 993.5,677.5C 989.292,677.677 985.626,679.01 982.5,681.5C 977.052,682.556 972.052,684.722 967.5,688C 938.473,713.359 910.973,740.525 885,769.5C 884.184,770.823 883.017,771.489 881.5,771.5C 881.389,770.883 881.056,770.383 880.5,770C 870.962,768.521 861.629,766.187 852.5,763C 845.627,760.46 838.96,757.46 832.5,754C 822.106,748.273 813.939,740.106 808,729.5C 805.296,717.109 806.296,705.109 811,693.5C 814.113,688.664 816.946,683.664 819.5,678.5C 834.3,659.533 850.967,642.366 869.5,627C 880.625,619.715 891.292,611.715 901.5,603C 904.397,601.263 907.397,599.763 910.5,598.5C 916.499,592.497 923.499,587.997 931.5,585C 932.167,584 932.833,583 933.5,582C 938.469,579.849 943.136,577.182 947.5,574C 971.922,570.41 996.255,570.91 1020.5,575.5 Z"/></g>
<g><path style="opacity:1" fill="#12110f" d="M 579.5,632.5 C 580.256,636.767 581.589,640.767 583.5,644.5C 583.666,648.846 583.499,653.179 583,657.5C 582.102,654.931 580.935,652.598 579.5,650.5C 572.138,633.12 559.138,622.287 540.5,618C 522.337,615.519 506.337,620.019 492.5,631.5C 477.903,638.765 467.903,650.098 462.5,665.5C 460.723,668.505 459.723,671.838 459.5,675.5C 459.167,676.833 458.833,678.167 458.5,679.5C 457.835,682.314 457.502,685.314 457.5,688.5C 457.278,692.797 457.945,696.797 459.5,700.5C 464.479,727.475 480.146,744.475 506.5,751.5C 483.775,757.386 464.275,750.053 448,729.5C 441.828,718.814 437.994,707.481 436.5,695.5C 436.364,692.65 436.031,689.817 435.5,687C 437.997,668.151 444.663,650.984 455.5,635.5C 463.401,624.939 473.401,616.939 485.5,611.5C 489.767,610.744 493.767,609.411 497.5,607.5C 514.072,603.47 530.739,603.637 547.5,608C 561.851,611.536 572.517,619.703 579.5,632.5 Z"/></g>
<g><path style="opacity:1" fill="#423e36" d="M 497.5,607.5 C 493.767,609.411 489.767,610.744 485.5,611.5C 489.085,609.194 493.085,607.861 497.5,607.5 Z"/></g>
<g><path style="opacity:1" fill="#4f4b3b" d="M 579.5,650.5 C 576.755,647.527 573.755,644.027 570.5,640C 552.749,626.199 534.083,624.865 514.5,636C 512.093,638.183 509.76,640.35 507.5,642.5C 500.544,641.336 493.544,640.336 486.5,639.5C 488.65,636.849 490.983,634.349 493.5,632C 493.272,631.601 492.938,631.435 492.5,631.5C 506.337,620.019 522.337,615.519 540.5,618C 559.138,622.287 572.138,633.12 579.5,650.5 Z"/></g>
<g><path style="opacity:1" fill="#261c12" d="M 579.5,650.5 C 580.935,652.598 582.102,654.931 583,657.5C 583.499,653.179 583.666,648.846 583.5,644.5C 584.492,651.648 584.825,658.981 584.5,666.5C 585.228,693.586 572.561,710.42 546.5,717C 524.648,718.99 508.815,710.157 499,690.5C 494.686,679.324 494.52,668.324 498.5,657.5C 500.5,658.167 502.5,658.833 504.5,659.5C 507.084,661.472 510.084,662.472 513.5,662.5C 520.82,665.921 528.32,666.254 536,663.5C 536.755,660.503 535.922,658.003 533.5,656C 525.453,650.144 516.786,645.644 507.5,642.5C 509.76,640.35 512.093,638.183 514.5,636C 534.083,624.865 552.749,626.199 570.5,640C 573.755,644.027 576.755,647.527 579.5,650.5 Z"/></g>
<g><path style="opacity:1" fill="#4a453c" d="M 579.5,632.5 C 581.806,636.085 583.139,640.085 583.5,644.5C 581.589,640.767 580.256,636.767 579.5,632.5 Z"/></g>
<g><path style="opacity:1" fill="#f6f7f6" d="M 492.5,631.5 C 492.938,631.435 493.272,631.601 493.5,632C 490.983,634.349 488.65,636.849 486.5,639.5C 493.544,640.336 500.544,641.336 507.5,642.5C 516.786,645.644 525.453,650.144 533.5,656C 535.922,658.003 536.755,660.503 536,663.5C 528.32,666.254 520.82,665.921 513.5,662.5C 510.855,660.69 507.855,659.69 504.5,659.5C 502.5,658.833 500.5,658.167 498.5,657.5C 492.849,654.657 487.849,650.823 483.5,646C 482.668,645.312 482.002,645.479 481.5,646.5C 474.467,659.999 471.8,674.333 473.5,689.5C 473.014,696.01 474.347,702.01 477.5,707.5C 492.484,740.824 517.484,752.157 552.5,741.5C 538.764,751.316 523.431,754.649 506.5,751.5C 480.146,744.475 464.479,727.475 459.5,700.5C 458.659,693.535 458.326,686.535 458.5,679.5C 458.833,678.167 459.167,676.833 459.5,675.5C 461.277,672.495 462.277,669.162 462.5,665.5C 467.903,650.098 477.903,638.765 492.5,631.5 Z"/></g>
<g><path style="opacity:1" fill="#f9efd6" d="M 415.5,887.5 C 411.792,891.21 407.792,894.543 403.5,897.5C 402.508,897.328 401.842,897.662 401.5,898.5C 365.633,904.841 338.8,923.841 321,955.5C 320.5,978.831 320.333,1002.16 320.5,1025.5C 318.214,1033.09 315.048,1040.42 311,1047.5C 296.004,1084.87 293.337,1123.21 303,1162.5C 307.833,1177.83 313.5,1192.83 320,1207.5C 339.206,1242.58 357.873,1277.91 376,1313.5C 384.083,1323.29 393.916,1330.79 405.5,1336C 424.775,1344.48 444.775,1350.48 465.5,1354C 483.437,1356.84 501.437,1359.18 519.5,1361C 595.207,1368.01 669.874,1362.34 743.5,1344C 782.46,1333.19 817.793,1315.52 849.5,1291C 855.425,1284.91 861.425,1279.08 867.5,1273.5C 875.905,1276.06 884.238,1278.89 892.5,1282C 903.258,1288.38 914.591,1293.71 926.5,1298C 931.108,1301.72 936.108,1304.72 941.5,1307C 945.547,1308.15 947.547,1306.65 947.5,1302.5C 946.127,1302.66 944.793,1302.49 943.5,1302C 937.916,1298.48 932.25,1295.14 926.5,1292C 908.66,1283.46 890.66,1275.62 872.5,1268.5C 873.48,1265.88 874.98,1263.55 877,1261.5C 876.948,1257.23 875.115,1253.73 871.5,1251C 859.843,1243.8 847.177,1241.46 833.5,1244C 826.735,1244.72 820.068,1245.89 813.5,1247.5C 800.813,1245.45 788.147,1242.28 775.5,1238C 758.951,1233.86 742.285,1230.36 725.5,1227.5C 725.227,1229.45 725.893,1230.95 727.5,1232C 746.028,1236.97 764.695,1241.3 783.5,1245C 789.833,1246.57 795.833,1248.74 801.5,1251.5C 756.415,1263.74 710.748,1273.07 664.5,1279.5C 656.149,1279.52 647.816,1279.19 639.5,1278.5C 632.987,1277.47 626.654,1276.14 620.5,1274.5C 617.495,1272.72 614.162,1271.72 610.5,1271.5C 587.077,1263.46 565.744,1251.79 546.5,1236.5C 546.667,1210.83 546.5,1185.16 546,1159.5C 543.931,1144.47 539.765,1130.14 533.5,1116.5C 554.236,1106.97 571.236,1092.97 584.5,1074.5C 585.458,1074.05 586.292,1073.38 587,1072.5C 595.714,1077.98 605.214,1081.48 615.5,1083C 639.74,1085.83 663.74,1084.49 687.5,1079C 697.174,1075.41 707.174,1072.75 717.5,1071C 731.612,1064.11 744.945,1055.94 757.5,1046.5C 787.56,1017.07 809.56,982.403 823.5,942.5C 826.167,942.5 828.833,942.5 831.5,942.5C 855.502,942.333 879.502,942.5 903.5,943C 917.489,943.409 930.823,946.409 943.5,952C 949.247,956.077 953.914,961.077 957.5,967C 976.972,967.817 996.305,966.483 1015.5,963C 1066.24,949.634 1111.24,925.8 1150.5,891.5C 1169.12,873.931 1184.62,853.931 1197,831.5C 1204.1,823.697 1212.94,819.197 1223.5,818C 1239.5,817.333 1255.5,817.333 1271.5,818C 1333.18,823.043 1394.51,830.71 1455.5,841C 1480.75,846.862 1505.42,854.529 1529.5,864C 1535.9,867.811 1542.23,871.811 1548.5,876C 1575.98,897.243 1582.81,924.076 1569,956.5C 1567.68,962.782 1566.68,969.115 1566,975.5C 1565.33,991.5 1565.33,1007.5 1566,1023.5C 1568.7,1052.28 1570.53,1081.11 1571.5,1110C 1572.27,1194.29 1538.94,1261.12 1471.5,1310.5C 1454.87,1320.97 1439.21,1332.64 1424.5,1345.5C 1408.76,1360.33 1395.92,1377.33 1386,1396.5C 1365.92,1445.9 1373.25,1490.56 1408,1530.5C 1410.14,1532.83 1412.64,1534.49 1415.5,1535.5C 1415.28,1536.68 1415.61,1537.68 1416.5,1538.5C 1420.68,1541.09 1424.68,1543.92 1428.5,1547C 1445.58,1556.58 1461.92,1555.58 1477.5,1544C 1481.83,1543.33 1486.17,1543.33 1490.5,1544C 1504.91,1549.41 1515.07,1559.24 1521,1573.5C 1529.45,1594.8 1531.79,1616.8 1528,1639.5C 1526.12,1647.93 1522.62,1655.6 1517.5,1662.5C 1517.83,1662.83 1518.17,1663.17 1518.5,1663.5C 1530.38,1651.61 1542.38,1639.78 1554.5,1628C 1566.35,1617.9 1578.02,1607.57 1589.5,1597C 1612.12,1578.04 1636.12,1561.04 1661.5,1546C 1671.27,1541.26 1681.27,1536.93 1691.5,1533C 1696.76,1531.61 1702.09,1530.61 1707.5,1530C 1721.97,1526.92 1734.63,1530.25 1745.5,1540C 1757.82,1551.98 1768.99,1564.81 1779,1578.5C 1812.14,1627.47 1836.14,1680.81 1851,1738.5C 1854.54,1756.07 1857.54,1773.74 1860,1791.5C 1864.71,1835.39 1859.88,1878.05 1845.5,1919.5C 1290.83,1919.5 736.167,1919.5 181.5,1919.5C 177.531,1903.25 173.698,1886.92 170,1870.5C 164.083,1812.18 164.083,1753.84 170,1695.5C 180.048,1613.4 195.881,1532.57 217.5,1453C 216.87,1450.11 216.037,1447.28 215,1444.5C 209.878,1433.88 204.878,1423.21 200,1412.5C 199.587,1409.77 198.92,1407.1 198,1404.5C 192.262,1394.42 187.929,1383.75 185,1372.5C 181.742,1365.65 178.742,1358.65 176,1351.5C 170.103,1331.74 164.103,1312.08 158,1292.5C 155.973,1292.01 153.807,1292.01 151.5,1292.5C 181.255,1276.72 212.589,1263.89 245.5,1254C 246.38,1252.64 246.714,1251.14 246.5,1249.5C 214.883,1257.69 184.883,1269.36 156.5,1284.5C 150.043,1258.89 144.71,1232.89 140.5,1206.5C 138.833,1206.5 137.167,1206.5 135.5,1206.5C 166.028,1198.24 197.028,1191.57 228.5,1186.5C 228.714,1184.86 228.38,1183.36 227.5,1182C 197.438,1186.1 167.771,1192.26 138.5,1200.5C 136.141,1175.56 134.474,1150.56 133.5,1125.5C 167.696,1117.75 202.362,1114.75 237.5,1116.5C 237.64,1114.88 236.973,1113.71 235.5,1113C 200.422,1111.15 165.755,1113.98 131.5,1121.5C 132.475,1111.25 132.808,1100.92 132.5,1090.5C 128.202,1091.2 123.869,1091.53 119.5,1091.5C 159.56,1087.11 199.893,1085.45 240.5,1086.5C 240.714,1084.86 240.38,1083.36 239.5,1082C 212.833,1081.33 186.167,1081.33 159.5,1082C 150.434,1082.3 141.434,1083.13 132.5,1084.5C 134.068,1060.17 136.068,1035.84 138.5,1011.5C 177.288,1024.26 215.288,1039.1 252.5,1056C 254.319,1056.78 255.652,1056.28 256.5,1054.5C 253.199,1051.84 249.532,1049.68 245.5,1048C 230.197,1041.68 214.863,1035.35 199.5,1029C 177.825,1021.44 156.492,1013.61 135.5,1005.5C 137.167,1005.5 138.833,1005.5 140.5,1005.5C 142.257,991.114 144.423,976.781 147,962.5C 150.454,954.896 152.454,946.896 153,938.5C 171.912,868.23 201.578,803.23 242,743.5C 248.962,733.321 256.628,723.654 265,714.5C 266.089,705.955 267.589,697.621 269.5,689.5C 269.369,690.376 269.702,691.043 270.5,691.5C 280.891,681.106 291.558,671.106 302.5,661.5C 306.724,658.768 311.058,656.268 315.5,654C 335.465,646.255 356.132,642.921 377.5,644C 384.351,645.623 390.017,649.123 394.5,654.5C 396.907,662.752 397.074,671.085 395,679.5C 388.39,696.596 382.39,713.929 377,731.5C 367.762,764.431 366.095,797.764 372,831.5C 378.546,856.523 393.046,875.19 415.5,887.5 Z"/></g>
<g><path style="opacity:1" fill="#504d3c" d="M 498.5,657.5 C 494.52,668.324 494.686,679.324 499,690.5C 508.815,710.157 524.648,718.99 546.5,717C 572.561,710.42 585.228,693.586 584.5,666.5C 585.492,673.982 585.825,681.648 585.5,689.5C 584.241,694.678 583.075,700.011 582,705.5C 578.053,718.412 570.887,729.079 560.5,737.5C 557.455,738.279 554.789,739.613 552.5,741.5C 517.484,752.157 492.484,740.824 477.5,707.5C 475.91,701.436 474.577,695.436 473.5,689.5C 471.8,674.333 474.467,659.999 481.5,646.5C 482.002,645.479 482.668,645.312 483.5,646C 487.849,650.823 492.849,654.657 498.5,657.5 Z"/></g>
<g><path style="opacity:1" fill="#b1ada8" d="M 504.5,659.5 C 507.855,659.69 510.855,660.69 513.5,662.5C 510.084,662.472 507.084,661.472 504.5,659.5 Z"/></g>
<g><path style="opacity:1" fill="#abaaaa" d="M 462.5,665.5 C 462.277,669.162 461.277,672.495 459.5,675.5C 459.723,671.838 460.723,668.505 462.5,665.5 Z"/></g>
<g><path style="opacity:1" fill="#918e80" d="M 998.5,676.5 C 1007.99,675.342 1017.66,675.175 1027.5,676C 1032.54,676.234 1037.21,677.401 1041.5,679.5C 1027.3,676.899 1012.96,675.899 998.5,676.5 Z"/></g>
<g><path style="opacity:1" fill="#11100e" d="M 998.5,676.5 C 1012.96,675.899 1027.3,676.899 1041.5,679.5C 1051.19,681.562 1060.52,684.728 1069.5,689C 1107.92,707.584 1140.58,733.417 1167.5,766.5C 1169.98,768.545 1170.98,771.212 1170.5,774.5C 1159.87,801.81 1142.2,823.476 1117.5,839.5C 1116.96,839.44 1116.62,839.107 1116.5,838.5C 1117.79,836.261 1118.79,833.928 1119.5,831.5C 1121.15,826.564 1122.65,821.564 1124,816.5C 1124.67,803.5 1124.67,790.5 1124,777.5C 1122.16,770.147 1119.66,763.147 1116.5,756.5C 1114.44,750.034 1111.1,744.368 1106.5,739.5C 1091.14,718.821 1070.81,705.821 1045.5,700.5C 1039.24,698.981 1032.74,698.314 1026,698.5C 1019.59,698.289 1013.42,698.955 1007.5,700.5C 1007.17,700.5 1006.83,700.5 1006.5,700.5C 1001.84,701.057 997.502,702.39 993.5,704.5C 974.171,711.317 958.337,722.983 946,739.5C 940.768,747.298 936.601,755.631 933.5,764.5C 931.723,767.505 930.723,770.838 930.5,774.5C 928.989,777.544 928.322,780.878 928.5,784.5C 927.834,788.486 927.501,792.653 927.5,797C 927.326,803.406 927.993,809.573 929.5,815.5C 933.98,837.805 944.647,856.471 961.5,871.5C 953.603,872.358 945.603,871.858 937.5,870C 910.637,865.173 887.47,853.339 868,834.5C 864.637,829.65 861.137,824.983 857.5,820.5C 856.537,817.256 855.204,814.256 853.5,811.5C 852.365,809.255 851.865,806.922 852,804.5C 862.412,793.927 872.245,782.927 881.5,771.5C 883.017,771.489 884.184,770.823 885,769.5C 910.973,740.525 938.473,713.359 967.5,688C 972.052,684.722 977.052,682.556 982.5,681.5C 986.431,680.611 990.098,679.278 993.5,677.5C 995.415,677.784 997.081,677.451 998.5,676.5 Z"/></g>
<g><path style="opacity:1" fill="#5d5b50" d="M 993.5,677.5 C 990.098,679.278 986.431,680.611 982.5,681.5C 985.626,679.01 989.292,677.677 993.5,677.5 Z"/></g>
<g><path style="opacity:1" fill="#595857" d="M 458.5,679.5 C 458.326,686.535 458.659,693.535 459.5,700.5C 457.945,696.797 457.278,692.797 457.5,688.5C 457.502,685.314 457.835,682.314 458.5,679.5 Z"/></g>
<g><path style="opacity:1" fill="#a4a4a4" d="M 1045.5,700.5 C 1032.83,699.167 1020.17,699.167 1007.5,700.5C 1013.42,698.955 1019.59,698.289 1026,698.5C 1032.74,698.314 1039.24,698.981 1045.5,700.5 Z"/></g>
<g><path style="opacity:1" fill="#fbfcfc" d="M 1045.5,700.5 C 1070.81,705.821 1091.14,718.821 1106.5,739.5C 1096.29,732.071 1084.62,726.571 1071.5,723C 1050.29,718.345 1030.62,721.845 1012.5,733.5C 1027.31,736.241 1040.65,742.241 1052.5,751.5C 1053.66,753.138 1054.82,754.804 1056,756.5C 1057.58,761.596 1055.75,764.763 1050.5,766C 1046.51,766.499 1042.51,766.666 1038.5,766.5C 1023.16,763.584 1009.33,757.251 997,747.5C 990.527,753.328 985.527,760.328 982,768.5C 979.248,776.321 977.415,784.321 976.5,792.5C 975.345,799.321 975.179,806.321 976,813.5C 976.278,814.416 976.778,815.082 977.5,815.5C 983.268,840.251 997.268,858.584 1019.5,870.5C 1019.08,871.222 1018.42,871.722 1017.5,872C 999.525,873.496 981.525,873.829 963.5,873C 962.956,872.283 962.289,871.783 961.5,871.5C 944.647,856.471 933.98,837.805 929.5,815.5C 928.768,806.185 928.434,796.852 928.5,787.5C 930.054,783.433 930.72,779.1 930.5,774.5C 932.277,771.495 933.277,768.162 933.5,764.5C 936.601,755.631 940.768,747.298 946,739.5C 958.337,722.983 974.171,711.317 993.5,704.5C 998.165,703.943 1002.5,702.61 1006.5,700.5C 1006.83,700.5 1007.17,700.5 1007.5,700.5C 1020.17,699.167 1032.83,699.167 1045.5,700.5 Z"/></g>
<g><path style="opacity:1" fill="#c2c2bc" d="M 473.5,689.5 C 474.577,695.436 475.91,701.436 477.5,707.5C 474.347,702.01 473.014,696.01 473.5,689.5 Z"/></g>
<g><path style="opacity:1" fill="#c7c6c6" d="M 1006.5,700.5 C 1002.5,702.61 998.165,703.943 993.5,704.5C 997.502,702.39 1001.84,701.057 1006.5,700.5 Z"/></g>
<g><path style="opacity:1" fill="#514e3d" d="M 1106.5,739.5 C 1111.1,744.368 1114.44,750.034 1116.5,756.5C 1101.11,744.779 1083.78,740.946 1064.5,745C 1059.99,746.418 1055.99,748.585 1052.5,751.5C 1040.65,742.241 1027.31,736.241 1012.5,733.5C 1030.62,721.845 1050.29,718.345 1071.5,723C 1084.62,726.571 1096.29,732.071 1106.5,739.5 Z"/></g>
<g><path style="opacity:1" fill="#261c12" d="M 1116.5,756.5 C 1119.66,763.147 1122.16,770.147 1124,777.5C 1124.67,790.5 1124.67,803.5 1124,816.5C 1122.65,821.564 1121.15,826.564 1119.5,831.5C 1105.03,844.598 1088.03,849.765 1068.5,847C 1046.1,839.926 1032.93,824.759 1029,801.5C 1027.33,789.837 1029.33,778.837 1035,768.5C 1035.82,767.177 1036.98,766.511 1038.5,766.5C 1042.51,766.666 1046.51,766.499 1050.5,766C 1055.75,764.763 1057.58,761.596 1056,756.5C 1054.82,754.804 1053.66,753.138 1052.5,751.5C 1055.99,748.585 1059.99,746.418 1064.5,745C 1083.78,740.946 1101.11,744.779 1116.5,756.5 Z"/></g>
<g><path style="opacity:1" fill="#504d3c" d="M 1038.5,766.5 C 1036.98,766.511 1035.82,767.177 1035,768.5C 1029.33,778.837 1027.33,789.837 1029,801.5C 1032.93,824.759 1046.1,839.926 1068.5,847C 1088.03,849.765 1105.03,844.598 1119.5,831.5C 1118.79,833.928 1117.79,836.261 1116.5,838.5C 1116.62,839.107 1116.96,839.44 1117.5,839.5C 1105.71,847.397 1093.04,853.73 1079.5,858.5C 1060.91,864.564 1041.91,868.898 1022.5,871.5C 1021.42,871.315 1020.42,870.982 1019.5,870.5C 997.268,858.584 983.268,840.251 977.5,815.5C 976.642,807.868 976.309,800.201 976.5,792.5C 977.415,784.321 979.248,776.321 982,768.5C 985.527,760.328 990.527,753.328 997,747.5C 1009.33,757.251 1023.16,763.584 1038.5,766.5 Z"/></g>
<g><path style="opacity:1" fill="#ddaa6b" d="M 1693.5,749.5 C 1696.98,749.184 1700.31,749.684 1703.5,751C 1705.51,755.867 1707.68,760.701 1710,765.5C 1712.74,780.554 1715.74,795.554 1719,810.5C 1719.37,823.455 1721.37,836.122 1725,848.5C 1732.9,916.089 1733.56,983.756 1727,1051.5C 1724.51,1066.42 1722.51,1081.42 1721,1096.5C 1716.36,1114.03 1712.36,1131.69 1709,1149.5C 1703.9,1165.14 1698.23,1180.47 1692,1195.5C 1691.17,1199 1690.33,1202.5 1689.5,1206C 1684.49,1213.18 1680.99,1221.01 1679,1229.5C 1675.95,1234.68 1673.28,1240.01 1671,1245.5C 1668.18,1251.13 1664.85,1256.46 1661,1261.5C 1659.12,1267.59 1656.45,1273.26 1653,1278.5C 1643.82,1291.52 1634.32,1304.19 1624.5,1316.5C 1623.9,1317.79 1623.4,1319.13 1623,1320.5C 1594.74,1353.27 1563.24,1382.27 1528.5,1407.5C 1520.92,1412.98 1512.92,1417.81 1504.5,1422C 1503.66,1423.01 1503.33,1424.18 1503.5,1425.5C 1501.44,1425.69 1499.44,1426.19 1497.5,1427C 1489.62,1432.21 1481.28,1436.37 1472.5,1439.5C 1464.04,1437.51 1461.04,1432.17 1463.5,1423.5C 1514.09,1397.62 1558.42,1363.28 1596.5,1320.5C 1597.32,1319.61 1598.32,1319.28 1599.5,1319.5C 1599.35,1318.45 1599.52,1317.45 1600,1316.5C 1603.99,1311.51 1608.33,1306.84 1613,1302.5C 1618.74,1294.03 1624.74,1285.69 1631,1277.5C 1633.69,1268.51 1638.35,1260.85 1645,1254.5C 1651.14,1240.66 1657.81,1226.99 1665,1213.5C 1671.41,1197.48 1677.58,1181.32 1683.5,1165C 1685.8,1154.97 1688.63,1145.14 1692,1135.5C 1696.3,1119.69 1699.96,1103.69 1703,1087.5C 1717.8,983.937 1714.64,880.937 1693.5,778.5C 1691.38,771.971 1689.38,765.471 1687.5,759C 1687.48,756.621 1688.15,754.454 1689.5,752.5C 1691.33,751.943 1692.66,750.943 1693.5,749.5 Z"/></g>
<g><path style="opacity:1" fill="#6f6450" d="M 436.5,695.5 C 437.994,707.481 441.828,718.814 448,729.5C 464.275,750.053 483.775,757.386 506.5,751.5C 523.431,754.649 538.764,751.316 552.5,741.5C 554.789,739.613 557.455,738.279 560.5,737.5C 560.167,738.167 559.833,738.833 559.5,739.5C 548.332,750.503 537.665,762.003 527.5,774C 510.357,773.694 493.691,770.694 477.5,765C 446.879,751.871 433.213,728.704 436.5,695.5 Z"/></g>
<g><path style="opacity:1" fill="#aaaaaa" d="M 933.5,764.5 C 933.277,768.162 932.277,771.495 930.5,774.5C 930.723,770.838 931.723,767.505 933.5,764.5 Z"/></g>
<g><path style="opacity:1" fill="#b0afaf" d="M 930.5,774.5 C 930.72,779.1 930.054,783.433 928.5,787.5C 928.5,786.5 928.5,785.5 928.5,784.5C 928.322,780.878 928.989,777.544 930.5,774.5 Z"/></g>
<g><path style="opacity:1" fill="#767674" d="M 928.5,784.5 C 928.5,785.5 928.5,786.5 928.5,787.5C 928.434,796.852 928.768,806.185 929.5,815.5C 927.993,809.573 927.326,803.406 927.5,797C 927.501,792.653 927.834,788.486 928.5,784.5 Z"/></g>
<g><path style="opacity:1" fill="#c9c8c2" d="M 976.5,792.5 C 976.309,800.201 976.642,807.868 977.5,815.5C 976.778,815.082 976.278,814.416 976,813.5C 975.179,806.321 975.345,799.321 976.5,792.5 Z"/></g>
<g><path style="opacity:1" fill="#6f644f" d="M 1170.5,774.5 C 1168.5,782.174 1166.33,789.841 1164,797.5C 1144.22,841.28 1111.39,870.113 1065.5,884C 1034.21,891.508 1002.54,893.508 970.5,890C 943.961,889.537 919.294,882.704 896.5,869.5C 877.88,857.557 864.88,841.223 857.5,820.5C 861.137,824.983 864.637,829.65 868,834.5C 887.47,853.339 910.637,865.173 937.5,870C 945.603,871.858 953.603,872.358 961.5,871.5C 962.289,871.783 962.956,872.283 963.5,873C 981.525,873.829 999.525,873.496 1017.5,872C 1018.42,871.722 1019.08,871.222 1019.5,870.5C 1020.42,870.982 1021.42,871.315 1022.5,871.5C 1041.91,868.898 1060.91,864.564 1079.5,858.5C 1093.04,853.73 1105.71,847.397 1117.5,839.5C 1142.2,823.476 1159.87,801.81 1170.5,774.5 Z"/></g>
<g><path style="opacity:1" fill="#614b37" d="M 447.5,896.5 C 432.115,896.191 416.781,896.857 401.5,898.5C 401.842,897.662 402.508,897.328 403.5,897.5C 418.271,895.385 432.938,895.051 447.5,896.5 Z"/></g>
<g><path style="opacity:1" fill="#3a281a" d="M 447.5,896.5 C 451.5,896.5 455.5,896.5 459.5,896.5C 464.57,898.23 469.903,899.23 475.5,899.5C 485.543,901.008 495.543,902.842 505.5,905C 532.031,911.768 556.365,923.101 578.5,939C 588.37,946.683 595.703,956.183 600.5,967.5C 601.747,973.615 603.081,979.615 604.5,985.5C 604.992,991.317 605.325,997.15 605.5,1003C 604.918,1028.85 597.918,1052.68 584.5,1074.5C 571.236,1092.97 554.236,1106.97 533.5,1116.5C 513.192,1125.8 491.859,1131.63 469.5,1134C 455.548,1135.66 441.548,1136.49 427.5,1136.5C 427.241,1097.03 425.407,1057.7 422,1018.5C 421.08,1015.9 420.413,1013.23 420,1010.5C 418.989,1009.66 417.822,1009.33 416.5,1009.5C 415.218,1048.84 415.718,1088.17 418,1127.5C 418.29,1129.92 418.79,1132.25 419.5,1134.5C 382.405,1124.21 353.571,1102.88 333,1070.5C 326.783,1055.95 322.617,1040.95 320.5,1025.5C 320.333,1002.16 320.5,978.831 321,955.5C 338.8,923.841 365.633,904.841 401.5,898.5C 416.781,896.857 432.115,896.191 447.5,896.5 Z"/></g>
<g><path style="opacity:1" fill="#775e45" d="M 459.5,896.5 C 465.12,896.694 470.453,897.694 475.5,899.5C 469.903,899.23 464.57,898.23 459.5,896.5 Z"/></g>
<g><path style="opacity:1" fill="#6e4e34" d="M 367.5,932.5 C 411.255,931.725 454.588,935.558 497.5,944C 507.381,947.071 517.381,949.737 527.5,952C 535.41,955.79 543.41,959.29 551.5,962.5C 552.27,967.09 550.436,969.756 546,970.5C 522.298,959.947 497.465,952.78 471.5,949C 437.006,944.344 402.339,942.011 367.5,942C 363.562,938.887 363.562,935.72 367.5,932.5 Z"/></g>
<g><path style="opacity:1" fill="#261c12" d="M 359.5,966.5 C 362.884,966.34 366.217,966.673 369.5,967.5C 372.423,969.131 375.423,970.464 378.5,971.5C 378.351,972.552 378.517,973.552 379,974.5C 381.347,976.014 383.18,978.014 384.5,980.5C 392.074,994.922 393.408,1009.92 388.5,1025.5C 382.054,1029.08 375.387,1029.42 368.5,1026.5C 361.522,1017.88 356.689,1008.21 354,997.5C 344.968,987.095 345.468,977.261 355.5,968C 357.058,967.79 358.391,967.29 359.5,966.5 Z"/></g>
<g><path style="opacity:1" fill="#786046" d="M 600.5,967.5 C 603.471,973.01 604.805,979.01 604.5,985.5C 603.081,979.615 601.747,973.615 600.5,967.5 Z"/></g>
<g><path style="opacity:1" fill="#261c12" d="M 479.5,976.5 C 484.248,976.275 488.915,976.775 493.5,978C 497.201,981.276 501.035,984.442 505,987.5C 507.923,993.015 510.59,998.682 513,1004.5C 513.333,1011 514.5,1017.33 516.5,1023.5C 517.495,1028.79 517.828,1034.13 517.5,1039.5C 523.448,1040.6 529.448,1041.27 535.5,1041.5C 534.711,1044.43 532.711,1046.27 529.5,1047C 515.065,1051.92 500.732,1051.59 486.5,1046C 481.923,1042.6 477.09,1039.77 472,1037.5C 468.188,1033.22 464.855,1028.56 462,1023.5C 459.418,1017.36 458.918,1011.03 460.5,1004.5C 462.209,998.672 464.375,993.005 467,987.5C 470.542,983.002 474.709,979.335 479.5,976.5 Z"/></g>
<g><path style="opacity:1" fill="#dfcfac" d="M 135.5,1005.5 C 156.492,1013.61 177.825,1021.44 199.5,1029C 214.863,1035.35 230.197,1041.68 245.5,1048C 249.532,1049.68 253.199,1051.84 256.5,1054.5C 255.652,1056.28 254.319,1056.78 252.5,1056C 215.288,1039.1 177.288,1024.26 138.5,1011.5C 100.98,998.886 62.6464,988.719 23.5,981C 20.2277,980.563 18.561,978.73 18.5,975.5C 41.629,980.461 64.629,985.628 87.5,991C 103.405,996.054 119.405,1000.89 135.5,1005.5 Z"/></g>
<g><path style="opacity:1" fill="#271c12" d="M 427.5,1136.5 C 424.733,1136.14 422.067,1135.48 419.5,1134.5C 418.79,1132.25 418.29,1129.92 418,1127.5C 415.718,1088.17 415.218,1048.84 416.5,1009.5C 417.822,1009.33 418.989,1009.66 420,1010.5C 420.413,1013.23 421.08,1015.9 422,1018.5C 425.407,1057.7 427.241,1097.03 427.5,1136.5 Z"/></g>
<g><path style="opacity:1" fill="#80776c" d="M 320.5,1025.5 C 322.617,1040.95 326.783,1055.95 333,1070.5C 353.571,1102.88 382.405,1124.21 419.5,1134.5C 422.067,1135.48 424.733,1136.14 427.5,1136.5C 441.548,1136.49 455.548,1135.66 469.5,1134C 491.859,1131.63 513.192,1125.8 533.5,1116.5C 539.765,1130.14 543.931,1144.47 546,1159.5C 546.5,1185.16 546.667,1210.83 546.5,1236.5C 540.203,1237.54 533.87,1237.71 527.5,1237C 508.948,1232.73 490.948,1226.73 473.5,1219C 455.825,1210.75 438.658,1201.58 422,1191.5C 410.751,1198.03 398.585,1201.53 385.5,1202C 372.838,1202.5 360.171,1202.67 347.5,1202.5C 348.261,1214.13 353.261,1223.63 362.5,1231C 380.679,1243.25 400.346,1252.59 421.5,1259C 465.487,1270.94 510.153,1279.11 555.5,1283.5C 592.671,1289.08 630.005,1290.75 667.5,1288.5C 704.517,1285.28 740.517,1277.44 775.5,1265C 780.624,1262.44 785.957,1260.44 791.5,1259C 796.387,1256.73 801.054,1254.23 805.5,1251.5C 818.721,1255.97 832.055,1260.14 845.5,1264C 853.14,1266.7 860.474,1269.87 867.5,1273.5C 861.425,1279.08 855.425,1284.91 849.5,1291C 817.793,1315.52 782.46,1333.19 743.5,1344C 669.874,1362.34 595.207,1368.01 519.5,1361C 501.437,1359.18 483.437,1356.84 465.5,1354C 444.775,1350.48 424.775,1344.48 405.5,1336C 393.916,1330.79 384.083,1323.29 376,1313.5C 357.873,1277.91 339.206,1242.58 320,1207.5C 313.5,1192.83 307.833,1177.83 303,1162.5C 293.337,1123.21 296.004,1084.87 311,1047.5C 315.048,1040.42 318.214,1033.09 320.5,1025.5 Z"/></g>
<g><path style="opacity:1" fill="#dfcfab" d="M 119.5,1091.5 C 79.9251,1094.92 41.0917,1102.25 3,1113.5C 1.86151,1113.01 0.69484,1112.68 -0.5,1112.5C -0.5,1111.17 -0.5,1109.83 -0.5,1108.5C 42.8338,1095.37 87.1671,1087.37 132.5,1084.5C 141.434,1083.13 150.434,1082.3 159.5,1082C 186.167,1081.33 212.833,1081.33 239.5,1082C 240.38,1083.36 240.714,1084.86 240.5,1086.5C 199.893,1085.45 159.56,1087.11 119.5,1091.5 Z"/></g>
<g><path style="opacity:1" fill="#fefefe" d="M 131.5,1121.5 C 121.043,1123.72 110.71,1126.55 100.5,1130C 99.6634,1131.01 99.33,1132.18 99.5,1133.5C 110.648,1130.27 121.981,1127.61 133.5,1125.5C 134.474,1150.56 136.141,1175.56 138.5,1200.5C 95.0146,1211.41 53.348,1227.08 13.5,1247.5C 12.5713,1248.69 12.238,1250.02 12.5,1251.5C 14.1992,1251.66 15.8659,1251.49 17.5,1251C 55.5365,1232.4 94.8698,1217.56 135.5,1206.5C 137.167,1206.5 138.833,1206.5 140.5,1206.5C 144.71,1232.89 150.043,1258.89 156.5,1284.5C 133.853,1295.83 112.52,1309.16 92.5,1324.5C 92.3433,1325.87 92.51,1327.21 93,1328.5C 93.7175,1329.45 94.5509,1329.62 95.5,1329C 113.287,1315.36 131.953,1303.19 151.5,1292.5C 153.807,1292.01 155.973,1292.01 158,1292.5C 164.103,1312.08 170.103,1331.74 176,1351.5C 178.742,1358.65 181.742,1365.65 185,1372.5C 187.929,1383.75 192.262,1394.42 198,1404.5C 198.92,1407.1 199.587,1409.77 200,1412.5C 204.878,1423.21 209.878,1433.88 215,1444.5C 216.037,1447.28 216.87,1450.11 217.5,1453C 195.881,1532.57 180.048,1613.4 170,1695.5C 164.083,1753.84 164.083,1812.18 170,1870.5C 173.698,1886.92 177.531,1903.25 181.5,1919.5C 120.833,1919.5 60.1667,1919.5 -0.5,1919.5C -0.5,1650.5 -0.5,1381.5 -0.5,1112.5C 0.69484,1112.68 1.86151,1113.01 3,1113.5C 41.0917,1102.25 79.9251,1094.92 119.5,1091.5C 123.869,1091.53 128.202,1091.2 132.5,1090.5C 132.808,1100.92 132.475,1111.25 131.5,1121.5 Z"/></g>
<g><path style="opacity:1" fill="#dfceaa" d="M 1083.5,1036.5 C 1086.5,1036.5 1089.5,1036.5 1092.5,1036.5C 1092.19,1039.35 1090.52,1040.85 1087.5,1041C 975.355,1057.02 865.355,1082.02 757.5,1116C 755.527,1116.5 753.527,1116.66 751.5,1116.5C 751.33,1115.18 751.663,1114.01 752.5,1113C 860.903,1079.15 971.236,1053.65 1083.5,1036.5 Z"/></g>
<g><path style="opacity:1" fill="#e5bf8c" d="M 190.5,1095.5 C 193.898,1095.18 197.232,1095.51 200.5,1096.5C 203.646,1103.21 201.646,1107.54 194.5,1109.5C 191.019,1108.43 189.019,1106.09 188.5,1102.5C 188.441,1099.89 189.108,1097.56 190.5,1095.5 Z"/></g>
<g><path style="opacity:1" fill="#e4c08d" d="M 259.5,1095.5 C 267.202,1094.63 270.702,1097.97 270,1105.5C 265.645,1110.71 261.311,1110.71 257,1105.5C 255.861,1101.58 256.695,1098.25 259.5,1095.5 Z"/></g>
<g><path style="opacity:1" fill="#e4be8b" d="M 601.5,1111.5 C 609.427,1110.37 612.594,1113.7 611,1121.5C 608.133,1125.43 604.467,1126.43 600,1124.5C 597.679,1119.77 598.179,1115.44 601.5,1111.5 Z"/></g>
<g><path style="opacity:1" fill="#e0d0ac" d="M 133.5,1125.5 C 121.981,1127.61 110.648,1130.27 99.5,1133.5C 99.33,1132.18 99.6634,1131.01 100.5,1130C 110.71,1126.55 121.043,1123.72 131.5,1121.5C 165.755,1113.98 200.422,1111.15 235.5,1113C 236.973,1113.71 237.64,1114.88 237.5,1116.5C 202.362,1114.75 167.696,1117.75 133.5,1125.5 Z"/></g>
<g><path style="opacity:1" fill="#e5bf8b" d="M 651.5,1118.5 C 655.639,1117.7 658.805,1119.04 661,1122.5C 662.015,1130.6 658.515,1133.43 650.5,1131C 646.405,1126.42 646.739,1122.25 651.5,1118.5 Z"/></g>
<g><path style="opacity:1" fill="#e5c08d" d="M 715.5,1123.5 C 725.86,1124.26 727.86,1128.76 721.5,1137C 713.537,1138.6 710.37,1135.44 712,1127.5C 713.376,1126.29 714.542,1124.96 715.5,1123.5 Z"/></g>
<g><path style="opacity:1" fill="#e5be8b" d="M 197.5,1135.5 C 200.898,1135.18 204.232,1135.51 207.5,1136.5C 210.167,1140.17 210.167,1143.83 207.5,1147.5C 196.65,1149.8 193.316,1145.8 197.5,1135.5 Z"/></g>
<g><path style="opacity:1" fill="#e4be8b" d="M 266.5,1145.5 C 270.054,1145.15 273.388,1145.82 276.5,1147.5C 278.848,1154.97 276.182,1158.47 268.5,1158C 262.691,1154.65 262.024,1150.48 266.5,1145.5 Z"/></g>
<g><path style="opacity:1" fill="#dfcea9" d="M 775.5,1141.5 C 879.149,1139.58 982.149,1146.42 1084.5,1162C 1096.49,1164.66 1108.49,1167.16 1120.5,1169.5C 1120.62,1172.89 1118.96,1174.23 1115.5,1173.5C 1002.44,1153.15 888.445,1144.48 773.5,1147.5C 773.253,1145.14 773.919,1143.14 775.5,1141.5 Z"/></g>
<g><path style="opacity:1" fill="#e5bf8a" d="M 609.5,1151.5 C 618.078,1150.74 621.078,1154.4 618.5,1162.5C 614.991,1164.56 611.324,1164.9 607.5,1163.5C 604.496,1158.86 605.162,1154.86 609.5,1151.5 Z"/></g>
<g><path style="opacity:1" fill="#e4be8a" d="M 744.5,1158.5 C 752.16,1157 755.327,1160 754,1167.5C 750.927,1173.06 747.094,1173.73 742.5,1169.5C 740.811,1165.3 741.478,1161.64 744.5,1158.5 Z"/></g>
<g><path style="opacity:1" fill="#e4be8b" d="M 690.5,1165.5 C 694.111,1165.04 697.444,1165.71 700.5,1167.5C 703.267,1173.93 701.267,1177.6 694.5,1178.5C 687.136,1176.05 685.803,1171.71 690.5,1165.5 Z"/></g>
<g><path style="opacity:1" fill="#e5bf8c" d="M 242.5,1167.5 C 246.467,1167.03 249.967,1168.03 253,1170.5C 254.365,1178.76 250.865,1181.93 242.5,1180C 238.547,1175.84 238.547,1171.67 242.5,1167.5 Z"/></g>
<g><path style="opacity:1" fill="#e0cfab" d="M 778.5,1173.5 C 844.911,1171.59 910.578,1177.26 975.5,1190.5C 975.5,1191.83 975.5,1193.17 975.5,1194.5C 910.637,1180.67 844.97,1175.01 778.5,1177.5C 778.5,1176.17 778.5,1174.83 778.5,1173.5 Z"/></g>
<g><path style="opacity:1" fill="#e5c08d" d="M 637.5,1183.5 C 643.863,1182.03 647.196,1184.53 647.5,1191C 647.695,1193.35 647.028,1195.35 645.5,1197C 637.333,1198.82 633.5,1195.66 634,1187.5C 635.376,1186.29 636.542,1184.96 637.5,1183.5 Z"/></g>
<g><path style="opacity:1" fill="#261c12" d="M 546.5,1236.5 C 565.744,1251.79 587.077,1263.46 610.5,1271.5C 613.505,1273.28 616.838,1274.28 620.5,1274.5C 626.654,1276.14 632.987,1277.47 639.5,1278.5C 644.065,1280.04 648.898,1280.71 654,1280.5C 657.683,1280.5 661.183,1280.17 664.5,1279.5C 710.748,1273.07 756.415,1263.74 801.5,1251.5C 802.833,1251.5 804.167,1251.5 805.5,1251.5C 801.054,1254.23 796.387,1256.73 791.5,1259C 785.957,1260.44 780.624,1262.44 775.5,1265C 740.517,1277.44 704.517,1285.28 667.5,1288.5C 642.777,1288.93 618.111,1288.09 593.5,1286C 592.874,1285.25 592.374,1284.42 592,1283.5C 591.612,1284.43 590.945,1285.09 590,1285.5C 582.536,1284.72 575.036,1284.22 567.5,1284C 566.391,1283.36 565.225,1282.86 564,1282.5C 561.23,1283.35 558.397,1283.68 555.5,1283.5C 510.153,1279.11 465.487,1270.94 421.5,1259C 400.346,1252.59 380.679,1243.25 362.5,1231C 353.261,1223.63 348.261,1214.13 347.5,1202.5C 360.171,1202.67 372.838,1202.5 385.5,1202C 398.585,1201.53 410.751,1198.03 422,1191.5C 438.658,1201.58 455.825,1210.75 473.5,1219C 490.948,1226.73 508.948,1232.73 527.5,1237C 533.87,1237.71 540.203,1237.54 546.5,1236.5 Z"/></g>
<g><path style="opacity:1" fill="#e5be8a" d="M 577.5,1202.5 C 585.382,1201.55 588.549,1204.88 587,1212.5C 583.432,1217.41 579.432,1217.74 575,1213.5C 574.125,1209.4 574.959,1205.73 577.5,1202.5 Z"/></g>
<g><path style="opacity:1" fill="#dfcea9" d="M 720.5,1197.5 C 745.571,1199.68 770.571,1202.51 795.5,1206C 851.62,1215.62 907.287,1227.29 962.5,1241C 985.406,1248.31 1008.41,1255.48 1031.5,1262.5C 1031.83,1265.52 1030.49,1267.19 1027.5,1267.5C 929.771,1234.82 829.438,1213.32 726.5,1203C 722.102,1203.59 720.102,1201.76 720.5,1197.5 Z"/></g>
<g><path style="opacity:1" fill="#e5be8b" d="M 234.5,1207.5 C 242.202,1206.63 245.702,1209.97 245,1217.5C 235.524,1224.54 231.191,1222.21 232,1210.5C 233.045,1209.63 233.878,1208.63 234.5,1207.5 Z"/></g>
<g><path style="opacity:1" fill="#e5bf8b" d="M 684.5,1209.5 C 692.403,1208.57 695.57,1211.9 694,1219.5C 689.491,1224.78 685.158,1224.78 681,1219.5C 680.333,1217.5 680.333,1215.5 681,1213.5C 682.376,1212.29 683.542,1210.96 684.5,1209.5 Z"/></g>
<g><path style="opacity:1" fill="#e5bf8d" d="M 287.5,1221.5 C 297.676,1221.58 300.009,1226.08 294.5,1235C 286.725,1236.59 283.225,1233.43 284,1225.5C 285.388,1224.26 286.554,1222.93 287.5,1221.5 Z"/></g>
<g><path style="opacity:1" fill="#efdbbc" d="M 1866.5,1219.5 C 1868.31,1228.63 1869.64,1237.96 1870.5,1247.5C 1868.16,1238.44 1866.83,1229.11 1866.5,1219.5 Z"/></g>
<g><path style="opacity:1" fill="#e5c08d" d="M 644.5,1223.5 C 648.595,1223.08 651.928,1224.42 654.5,1227.5C 655.709,1235.12 652.376,1238.29 644.5,1237C 639.233,1232.46 639.233,1227.96 644.5,1223.5 Z"/></g>
<g><path style="opacity:1" fill="#dfceab" d="M 135.5,1206.5 C 94.8698,1217.56 55.5365,1232.4 17.5,1251C 15.8659,1251.49 14.1992,1251.66 12.5,1251.5C 12.238,1250.02 12.5713,1248.69 13.5,1247.5C 53.348,1227.08 95.0146,1211.41 138.5,1200.5C 167.771,1192.26 197.438,1186.1 227.5,1182C 228.38,1183.36 228.714,1184.86 228.5,1186.5C 197.028,1191.57 166.028,1198.24 135.5,1206.5 Z"/></g>
<g><path style="opacity:1" fill="#837b6f" d="M 872.5,1268.5 C 854.423,1261.89 836.09,1255.72 817.5,1250C 815.934,1249.39 814.6,1248.56 813.5,1247.5C 820.068,1245.89 826.735,1244.72 833.5,1244C 847.177,1241.46 859.843,1243.8 871.5,1251C 875.115,1253.73 876.948,1257.23 877,1261.5C 874.98,1263.55 873.48,1265.88 872.5,1268.5 Z"/></g>
<g><path style="opacity:1" fill="#decda9" d="M 813.5,1247.5 C 814.6,1248.56 815.934,1249.39 817.5,1250C 836.09,1255.72 854.423,1261.89 872.5,1268.5C 890.66,1275.62 908.66,1283.46 926.5,1292C 932.25,1295.14 937.916,1298.48 943.5,1302C 944.793,1302.49 946.127,1302.66 947.5,1302.5C 947.547,1306.65 945.547,1308.15 941.5,1307C 936.108,1304.72 931.108,1301.72 926.5,1298C 914.591,1293.71 903.258,1288.38 892.5,1282C 884.238,1278.89 875.905,1276.06 867.5,1273.5C 860.474,1269.87 853.14,1266.7 845.5,1264C 832.055,1260.14 818.721,1255.97 805.5,1251.5C 804.167,1251.5 802.833,1251.5 801.5,1251.5C 795.833,1248.74 789.833,1246.57 783.5,1245C 764.695,1241.3 746.028,1236.97 727.5,1232C 725.893,1230.95 725.227,1229.45 725.5,1227.5C 742.285,1230.36 758.951,1233.86 775.5,1238C 788.147,1242.28 800.813,1245.45 813.5,1247.5 Z"/></g>
<g><path style="opacity:1" fill="#a39887" d="M 610.5,1271.5 C 614.162,1271.72 617.495,1272.72 620.5,1274.5C 616.838,1274.28 613.505,1273.28 610.5,1271.5 Z"/></g>
<g><path style="opacity:1" fill="#867d6e" d="M 639.5,1278.5 C 647.816,1279.19 656.149,1279.52 664.5,1279.5C 661.183,1280.17 657.683,1280.5 654,1280.5C 648.898,1280.71 644.065,1280.04 639.5,1278.5 Z"/></g>
<g><path style="opacity:1" fill="#342a20" d="M 667.5,1288.5 C 630.005,1290.75 592.671,1289.08 555.5,1283.5C 558.397,1283.68 561.23,1283.35 564,1282.5C 565.225,1282.86 566.391,1283.36 567.5,1284C 575.036,1284.22 582.536,1284.72 590,1285.5C 590.945,1285.09 591.612,1284.43 592,1283.5C 592.374,1284.42 592.874,1285.25 593.5,1286C 618.111,1288.09 642.777,1288.93 667.5,1288.5 Z"/></g>
<g><path style="opacity:1" fill="#dfceaa" d="M 151.5,1292.5 C 131.953,1303.19 113.287,1315.36 95.5,1329C 94.5509,1329.62 93.7175,1329.45 93,1328.5C 92.51,1327.21 92.3433,1325.87 92.5,1324.5C 112.52,1309.16 133.853,1295.83 156.5,1284.5C 184.883,1269.36 214.883,1257.69 246.5,1249.5C 246.714,1251.14 246.38,1252.64 245.5,1254C 212.589,1263.89 181.255,1276.72 151.5,1292.5 Z"/></g>
<g><path style="opacity:1" fill="#edd2b0" d="M 1882.5,1367.5 C 1884.14,1380.64 1885.14,1393.97 1885.5,1407.5C 1883.37,1394.4 1882.37,1381.07 1882.5,1367.5 Z"/></g>
<g><path style="opacity:1" fill="#efd8b8" d="M 1885.5,1407.5 C 1887.09,1417.96 1887.76,1428.62 1887.5,1439.5C 1886.18,1429.03 1885.51,1418.36 1885.5,1407.5 Z"/></g>
<g><path style="opacity:1" fill="#e8dabd" d="M 285.5,1425.5 C 305.454,1456.97 327.954,1486.64 353,1514.5C 362.728,1523.14 371.895,1532.31 380.5,1542C 390.021,1549.93 399.354,1558.1 408.5,1566.5C 449.8,1599.65 495.134,1625.82 544.5,1645C 600.986,1665.13 659.319,1674.13 719.5,1672C 894.621,1657.55 1062.62,1616.88 1223.5,1550C 1241.54,1541.03 1259.87,1532.53 1278.5,1524.5C 1279.8,1536.19 1279.64,1547.85 1278,1559.5C 1274.5,1578.36 1269,1596.53 1261.5,1614C 1257.25,1621 1253.42,1628.16 1250,1635.5C 1241.17,1647.05 1232.17,1658.39 1223,1669.5C 1214.17,1677.67 1205.33,1685.83 1196.5,1694C 1154.42,1724.37 1108.08,1746.2 1057.5,1759.5C 1055.45,1761.19 1053.11,1762.36 1050.5,1763C 1026.87,1767.79 1003.2,1772.46 979.5,1777C 955.498,1780 931.498,1783 907.5,1786C 831.441,1789.99 755.441,1788.99 679.5,1783C 634.648,1778.9 590.315,1771.56 546.5,1761C 527.48,1754.83 508.48,1748.83 489.5,1743C 441.225,1726.03 398.059,1700.53 360,1666.5C 359.517,1665.55 359.351,1664.55 359.5,1663.5C 356.386,1662.91 353.886,1661.24 352,1658.5C 291.233,1592.34 269.067,1514.67 285.5,1425.5 Z"/></g>
<g><path style="opacity:1" fill="#f5e3cd" d="M 1889.5,1479.5 C 1891.27,1489.94 1891.94,1500.61 1891.5,1511.5C 1890.18,1501.03 1889.51,1490.36 1889.5,1479.5 Z"/></g>
<g><path style="opacity:1" fill="#fcfaf7" d="M 1894.5,1735.5 C 1894.5,1796.83 1894.5,1858.17 1894.5,1919.5C 1892.5,1919.5 1890.5,1919.5 1888.5,1919.5C 1889.28,1908.85 1889.61,1898.19 1889.5,1887.5C 1891.67,1836.69 1893.34,1786.02 1894.5,1735.5 Z"/></g>
<g><path style="opacity:1" fill="#f2e2ca" d="M 1889.5,1887.5 C 1889.61,1898.19 1889.28,1908.85 1888.5,1919.5C 1888.17,1919.5 1887.83,1919.5 1887.5,1919.5C 1887.3,1908.63 1887.97,1897.96 1889.5,1887.5 Z"/></g>
</svg>
