<?xml version="1.0" encoding="UTF-8"?>
<!DOCTYPE svg PUBLIC "-//W3C//DTD SVG 1.1//EN" "http://www.w3.org/Graphics/SVG/1.1/DTD/svg11.dtd">
<svg xmlns="http://www.w3.org/2000/svg" version="1.1" width="1895px" height="1920px" style="shape-rendering:geometricPrecision; text-rendering:geometricPrecision; image-rendering:optimizeQuality; fill-rule:evenodd; clip-rule:evenodd" xmlns:xlink="http://www.w3.org/1999/xlink">
<g><path style="opacity:1" fill="#fcfcfc" d="M -0.5,-0.5 C 201.833,-0.5 404.167,-0.5 606.5,-0.5C 604.036,0.56651 601.703,1.89984 599.5,3.5C 591.791,7.37927 586.291,13.3793 583,21.5C 577.959,36.5806 575.459,52.0806 575.5,68C 576.478,89.2409 578.312,110.408 581,131.5C 585.556,166.947 590.889,202.28 597,237.5C 602.912,269.369 598.746,299.702 584.5,328.5C 576.948,341.571 567.281,353.071 555.5,363C 528.897,385.263 502.564,407.93 476.5,431C 433.528,434.198 396.528,450.531 365.5,480C 338.805,506.385 317.971,536.885 303,571.5C 286.309,610.247 275.309,650.58 270,692.5C 283.981,674.842 301.147,661.342 321.5,652C 331.41,649.285 341.41,646.951 351.5,645C 361.5,644.333 371.5,644.333 381.5,645C 391.602,648.689 396.602,655.856 396.5,666.5C 396.378,670.878 395.878,675.211 395,679.5C 384.681,705.472 376.681,732.138 371,759.5C 368.241,780.797 367.908,802.13 370,823.5C 373.149,837.96 378.816,851.294 387,863.5C 391.393,868.47 395.893,873.303 400.5,878C 405.696,881.43 411.029,884.597 416.5,887.5C 412.347,891.075 408.014,894.409 403.5,897.5C 375.906,902.211 352.739,914.878 334,935.5C 329.475,940.553 325.975,946.219 323.5,952.5C 322.685,953.429 321.852,954.429 321,955.5C 320.5,978.831 320.333,1002.16 320.5,1025.5C 318.214,1033.09 315.048,1040.42 311,1047.5C 299.527,1076.07 295.194,1105.74 298,1136.5C 301.603,1159.65 308.27,1181.99 318,1203.5C 337.838,1239.84 357.171,1276.51 376,1313.5C 384.083,1323.29 393.916,1330.79 405.5,1336C 416.281,1340.59 427.281,1344.59 438.5,1348C 465.184,1354.19 492.184,1358.53 519.5,1361C 557.157,1362.44 594.823,1362.77 632.5,1362C 675.802,1359.2 718.135,1351.54 759.5,1339C 792.24,1327.89 822.24,1311.89 849.5,1291C 855.395,1284.94 861.395,1279.1 867.5,1273.5C 876.477,1276.5 885.477,1279.67 894.5,1283C 905.136,1287.98 915.803,1292.98 926.5,1298C 931.367,1301.26 936.367,1304.26 941.5,1307C 945.318,1307.8 946.651,1306.46 945.5,1303C 942.177,1301 938.844,1299 935.5,1297C 924.833,1291.67 914.167,1286.33 903.5,1281C 892.804,1277.58 882.471,1273.42 872.5,1268.5C 873.48,1265.88 874.98,1263.55 877,1261.5C 876.948,1257.23 875.115,1253.73 871.5,1251C 859.892,1243.79 847.226,1241.46 833.5,1244C 826.735,1244.72 820.068,1245.89 813.5,1247.5C 791.141,1242.33 768.808,1236.83 746.5,1231C 739.515,1229.64 732.515,1228.47 725.5,1227.5C 725.215,1231.04 726.882,1232.87 730.5,1233C 754.096,1237.7 777.429,1243.36 800.5,1250C 801.056,1250.38 801.389,1250.88 801.5,1251.5C 767.995,1259.96 734.328,1267.63 700.5,1274.5C 696.84,1274.16 693.507,1274.83 690.5,1276.5C 669.478,1280.37 648.478,1280.37 627.5,1276.5C 625.485,1275.08 623.152,1274.41 620.5,1274.5C 617.495,1272.72 614.162,1271.72 610.5,1271.5C 587.201,1263.69 566.201,1252.02 547.5,1236.5C 547.667,1213.5 547.5,1190.5 547,1167.5C 546.48,1161.97 545.647,1156.64 544.5,1151.5C 544.002,1148.51 543.502,1145.51 543,1142.5C 540.062,1133.65 536.895,1124.98 533.5,1116.5C 554.236,1106.97 571.236,1092.97 584.5,1074.5C 585.458,1074.05 586.292,1073.38 587,1072.5C 591.309,1074.48 595.476,1076.65 599.5,1079C 604.29,1079.93 608.956,1081.26 613.5,1083C 642.348,1086.52 670.681,1084.18 698.5,1076C 719.747,1071.21 738.747,1061.88 755.5,1048C 763.994,1039.87 772.161,1031.37 780,1022.5C 798.04,998.09 812.707,971.757 824,943.5C 824.671,942.748 825.504,942.414 826.5,942.5C 856.527,942.074 886.527,942.574 916.5,944C 925.779,945.787 934.779,948.454 943.5,952C 947.299,954.797 950.799,957.964 954,961.5C 955.009,963.025 955.509,964.692 955.5,966.5C 978.461,968.387 1001.13,966.554 1023.5,961C 1083.43,943.646 1133.93,911.812 1175,865.5C 1182.67,853.833 1190.33,842.167 1198,830.5C 1203.8,824.181 1210.97,820.347 1219.5,819C 1234.13,817.482 1248.8,817.149 1263.5,818C 1329.34,822.064 1394.68,830.064 1459.5,842C 1488.73,848.412 1516.73,858.412 1543.5,872C 1550.3,876.969 1556.64,882.469 1562.5,888.5C 1574.31,902.717 1578.47,919.051 1575,937.5C 1566.01,963.775 1563.01,990.775 1566,1018.5C 1568.77,1047.94 1570.6,1077.44 1571.5,1107C 1573.64,1187.03 1543.97,1252.03 1482.5,1302C 1464.26,1314.28 1446.6,1327.28 1429.5,1341C 1407.82,1359.84 1391.65,1382.67 1381,1409.5C 1367.42,1455.33 1376.58,1495.83 1408.5,1531C 1414.8,1536.81 1421.47,1542.15 1428.5,1547C 1440.66,1554.36 1453.33,1555.69 1466.5,1551C 1483.08,1540.64 1497.92,1542.8 1511,1557.5C 1530.74,1586.51 1535.08,1617.84 1524,1651.5C 1521.25,1656.35 1518.59,1661.02 1516,1665.5C 1550.01,1631.15 1586.18,1599.32 1624.5,1570C 1644.52,1555.15 1666.19,1543.15 1689.5,1534C 1704.75,1528.53 1720.08,1528.2 1735.5,1533C 1738.17,1534.67 1740.83,1536.33 1743.5,1538C 1763.43,1557.71 1780.6,1579.54 1795,1603.5C 1826.46,1656.88 1847.46,1714.21 1858,1775.5C 1862.62,1807.52 1862.62,1839.52 1858,1871.5C 1854.44,1887.73 1850.28,1903.73 1845.5,1919.5C 1230.17,1919.5 614.833,1919.5 -0.5,1919.5C -0.5,1650.5 -0.5,1381.5 -0.5,1112.5C 0.416349,1112.98 1.41635,1113.31 2.5,1113.5C 59.0437,1097.56 116.71,1088.72 175.5,1087C 197.164,1086.5 218.831,1086.33 240.5,1086.5C 240.714,1084.86 240.38,1083.36 239.5,1082C 158.034,1078.33 78.0336,1087.16 -0.5,1108.5C -0.5,738.833 -0.5,369.167 -0.5,-0.5 Z"/></g>
<g><path style="opacity:1" fill="#9e9e9e" d="M 606.5,-0.5 C 613.167,-0.5 619.833,-0.5 626.5,-0.5C 645.539,5.43638 663.039,14.4364 679,26.5C 700.091,73.3544 723.757,118.688 750,162.5C 768.336,191.345 789.503,218.011 813.5,242.5C 811.611,243.322 809.611,244.155 807.5,245C 768.22,248.383 731.22,258.883 696.5,276.5C 692.191,267.885 687.358,259.552 682,251.5C 671.654,236.13 661.32,220.796 651,205.5C 646.17,200.31 642.504,194.31 640,187.5C 639.333,176.833 639.333,166.167 640,155.5C 646.616,122.496 649.616,89.1629 649,55.5C 648.144,46.5881 645.144,38.5881 640,31.5C 630.519,19.857 618.686,11.5237 604.5,6.5C 603.667,5.5 602.833,4.5 602,3.5C 601.23,4.59809 600.397,4.59809 599.5,3.5C 601.703,1.89984 604.036,0.56651 606.5,-0.5 Z"/></g>
<g><path style="opacity:1" fill="#fefefe" d="M 626.5,-0.5 C 1049.17,-0.5 1471.83,-0.5 1894.5,-0.5C 1894.5,531.5 1894.5,1063.5 1894.5,1595.5C 1891.39,1427.07 1875.55,1259.74 1847,1093.5C 1829.42,998.275 1805.76,904.608 1776,812.5C 1750.94,737.394 1719.61,665.061 1682,595.5C 1665.22,566.242 1646.72,538.242 1626.5,511.5C 1669.22,417.014 1680.72,318.681 1661,216.5C 1648.67,160.875 1627.34,109.208 1597,61.5C 1595.83,59.6667 1594.33,58.1667 1592.5,57C 1572.27,47.1595 1551.27,45.1595 1529.5,51C 1516.62,54.5687 1504.29,59.402 1492.5,65.5C 1474.69,76.9725 1458.02,89.9725 1442.5,104.5C 1394.78,157.723 1345.11,209.223 1293.5,259C 1278.25,272.756 1263.25,286.589 1248.5,300.5C 1135.76,299.302 1023.43,292.135 911.5,279C 888.352,275.546 865.685,270.212 843.5,263C 832.6,257.391 822.6,250.558 813.5,242.5C 789.503,218.011 768.336,191.345 750,162.5C 723.757,118.688 700.091,73.3544 679,26.5C 663.039,14.4364 645.539,5.43638 626.5,-0.5 Z"/></g>
<g><path style="opacity:1" fill="#b8b8b8" d="M 599.5,3.5 C 600.397,4.59809 601.23,4.59809 602,3.5C 602.833,4.5 603.667,5.5 604.5,6.5C 618.686,11.5237 630.519,19.857 640,31.5C 645.144,38.5881 648.144,46.5881 649,55.5C 649.616,89.1629 646.616,122.496 640,155.5C 639.333,166.167 639.333,176.833 640,187.5C 642.504,194.31 646.17,200.31 651,205.5C 661.32,220.796 671.654,236.13 682,251.5C 687.358,259.552 692.191,267.885 696.5,276.5C 685.345,280.404 674.345,284.904 663.5,290C 636.953,302.793 610.62,315.627 584.5,328.5C 598.746,299.702 602.912,269.369 597,237.5C 590.889,202.28 585.556,166.947 581,131.5C 578.312,110.408 576.478,89.2409 575.5,68C 575.459,52.0806 577.959,36.5806 583,21.5C 586.291,13.3793 591.791,7.37927 599.5,3.5 Z"/></g>
<g><path style="opacity:1" fill="#9e9e9e" d="M 1626.5,511.5 C 1620.69,530.713 1614.86,550.046 1609,569.5C 1603.55,581.837 1598.89,594.503 1595,607.5C 1592.05,611.277 1588.21,612.443 1583.5,611C 1579.28,609.891 1575.28,608.225 1571.5,606C 1557.61,595.898 1543.61,586.065 1529.5,576.5C 1531.47,571.904 1533.97,567.571 1537,563.5C 1559.83,534.058 1579.17,502.391 1595,468.5C 1596,467.5 1597,466.5 1598,465.5C 1602.56,452.489 1607.89,439.822 1614,427.5C 1635.42,366.678 1641.09,304.345 1631,240.5C 1626.33,217.314 1620.5,194.481 1613.5,172C 1609.41,161.775 1605.24,151.609 1601,141.5C 1592.5,127.829 1584.5,113.829 1577,99.5C 1571.65,90.4753 1564.15,83.9753 1554.5,80C 1546.07,79.0864 1538.4,81.0864 1531.5,86C 1528.01,88.9113 1524.34,91.578 1520.5,94C 1507.84,105.459 1495.34,117.293 1483,129.5C 1464.52,149.164 1446.52,169.164 1429,189.5C 1406.39,223.71 1385.06,258.71 1365,294.5C 1354.32,309.852 1344.65,325.852 1336,342.5C 1323.6,361.087 1311.76,380.087 1300.5,399.5C 1300.04,400.298 1299.38,400.631 1298.5,400.5C 1280.58,389.196 1262.92,377.363 1245.5,365C 1224.64,342.355 1225.64,320.855 1248.5,300.5C 1263.25,286.589 1278.25,272.756 1293.5,259C 1345.11,209.223 1394.78,157.723 1442.5,104.5C 1458.02,89.9725 1474.69,76.9725 1492.5,65.5C 1504.29,59.402 1516.62,54.5687 1529.5,51C 1551.27,45.1595 1572.27,47.1595 1592.5,57C 1594.33,58.1667 1595.83,59.6667 1597,61.5C 1627.34,109.208 1648.67,160.875 1661,216.5C 1680.72,318.681 1669.22,417.014 1626.5,511.5 Z"/></g>
<g><path style="opacity:1" fill="#b8b8b8" d="M 1529.5,576.5 C 1514.18,565.034 1499.18,553.367 1484.5,541.5C 1510.28,479.358 1533.78,416.024 1555,351.5C 1555.76,347.181 1556.43,342.848 1557,338.5C 1557.67,323.167 1557.67,307.833 1557,292.5C 1555.74,280.056 1552.07,268.389 1546,257.5C 1538.16,245.344 1527.32,241.51 1513.5,246C 1509.24,247.934 1505.24,250.268 1501.5,253C 1493.33,260.837 1485.5,269.004 1478,277.5C 1463.3,297.584 1449.64,318.251 1437,339.5C 1415.07,378.807 1394.57,418.807 1375.5,459.5C 1349.05,441.08 1323.39,421.413 1298.5,400.5C 1299.38,400.631 1300.04,400.298 1300.5,399.5C 1311.76,380.087 1323.6,361.087 1336,342.5C 1344.65,325.852 1354.32,309.852 1365,294.5C 1385.06,258.71 1406.39,223.71 1429,189.5C 1446.52,169.164 1464.52,149.164 1483,129.5C 1495.34,117.293 1507.84,105.459 1520.5,94C 1524.34,91.578 1528.01,88.9113 1531.5,86C 1538.4,81.0864 1546.07,79.0864 1554.5,80C 1564.15,83.9753 1571.65,90.4753 1577,99.5C 1584.5,113.829 1592.5,127.829 1601,141.5C 1605.24,151.609 1609.41,161.775 1613.5,172C 1620.5,194.481 1626.33,217.314 1631,240.5C 1641.09,304.345 1635.42,366.678 1614,427.5C 1607.89,439.822 1602.56,452.489 1598,465.5C 1597,466.5 1596,467.5 1595,468.5C 1579.17,502.391 1559.83,534.058 1537,563.5C 1533.97,567.571 1531.47,571.904 1529.5,576.5 Z"/></g>
<g><path style="opacity:1" fill="#cbcbcb" d="M 813.5,242.5 C 822.6,250.558 832.6,257.391 843.5,263C 865.685,270.212 888.352,275.546 911.5,279C 1023.43,292.135 1135.76,299.302 1248.5,300.5C 1225.64,320.855 1224.64,342.355 1245.5,365C 1262.92,377.363 1280.58,389.196 1298.5,400.5C 1323.39,421.413 1349.05,441.08 1375.5,459.5C 1411.81,486.802 1448.14,514.135 1484.5,541.5C 1499.18,553.367 1514.18,565.034 1529.5,576.5C 1543.61,586.065 1557.61,595.898 1571.5,606C 1575.28,608.225 1579.28,609.891 1583.5,611C 1588.21,612.443 1592.05,611.277 1595,607.5C 1598.89,594.503 1603.55,581.837 1609,569.5C 1614.86,550.046 1620.69,530.713 1626.5,511.5C 1646.72,538.242 1665.22,566.242 1682,595.5C 1719.61,665.061 1750.94,737.394 1776,812.5C 1805.76,904.608 1829.42,998.275 1847,1093.5C 1875.55,1259.74 1891.39,1427.07 1894.5,1595.5C 1894.5,1646.17 1894.5,1696.83 1894.5,1747.5C 1892.95,1804.71 1890.62,1862.04 1887.5,1919.5C 1873.5,1919.5 1859.5,1919.5 1845.5,1919.5C 1850.28,1903.73 1854.44,1887.73 1858,1871.5C 1862.62,1839.52 1862.62,1807.52 1858,1775.5C 1847.46,1714.21 1826.46,1656.88 1795,1603.5C 1780.6,1579.54 1763.43,1557.71 1743.5,1538C 1740.83,1536.33 1738.17,1534.67 1735.5,1533C 1720.08,1528.2 1704.75,1528.53 1689.5,1534C 1666.19,1543.15 1644.52,1555.15 1624.5,1570C 1586.18,1599.32 1550.01,1631.15 1516,1665.5C 1518.59,1661.02 1521.25,1656.35 1524,1651.5C 1535.08,1617.84 1530.74,1586.51 1511,1557.5C 1497.92,1542.8 1483.08,1540.64 1466.5,1551C 1453.33,1555.69 1440.66,1554.36 1428.5,1547C 1421.47,1542.15 1414.8,1536.81 1408.5,1531C 1376.58,1495.83 1367.42,1455.33 1381,1409.5C 1391.65,1382.67 1407.82,1359.84 1429.5,1341C 1446.6,1327.28 1464.26,1314.28 1482.5,1302C 1543.97,1252.03 1573.64,1187.03 1571.5,1107C 1570.6,1077.44 1568.77,1047.94 1566,1018.5C 1563.01,990.775 1566.01,963.775 1575,937.5C 1578.47,919.051 1574.31,902.717 1562.5,888.5C 1556.64,882.469 1550.3,876.969 1543.5,872C 1516.73,858.412 1488.73,848.412 1459.5,842C 1394.68,830.064 1329.34,822.064 1263.5,818C 1248.8,817.149 1234.13,817.482 1219.5,819C 1210.97,820.347 1203.8,824.181 1198,830.5C 1190.33,842.167 1182.67,853.833 1175,865.5C 1133.93,911.812 1083.43,943.646 1023.5,961C 1001.13,966.554 978.461,968.387 955.5,966.5C 955.509,964.692 955.009,963.025 954,961.5C 950.799,957.964 947.299,954.797 943.5,952C 934.779,948.454 925.779,945.787 916.5,944C 886.527,942.574 856.527,942.074 826.5,942.5C 826.875,934.851 829.042,927.518 833,920.5C 843.144,888.924 851.311,856.924 857.5,824.5C 873.307,856.283 898.64,876.449 933.5,885C 969.282,891.869 1005.28,893.203 1041.5,889C 1099.56,879.913 1140.72,848.747 1165,795.5C 1166.94,788.504 1168.78,781.504 1170.5,774.5C 1170.98,771.212 1169.98,768.545 1167.5,766.5C 1168.59,766.38 1169.25,765.713 1169.5,764.5C 1157.34,714.142 1135.17,668.808 1103,628.5C 1081.34,603.593 1054.84,586.093 1023.5,576C 1016.62,574.098 1009.62,572.932 1002.5,572.5C 1001.74,571.732 1000.74,571.232 999.5,571C 991.812,570.831 984.145,570.331 976.5,569.5C 971.561,566.404 966.228,564.071 960.5,562.5C 958.421,561.088 956.421,559.588 954.5,558C 943.832,554 933.165,550 922.5,546C 916.224,544.576 909.891,544.242 903.5,545C 853.341,563.187 810.841,592.687 776,633.5C 769.147,642.681 762.314,651.848 755.5,661C 748.917,660.117 742.25,659.45 735.5,659C 726.381,656.39 717.047,654.39 707.5,653C 707.375,608.588 702.208,564.754 692,521.5C 686.971,501.685 676.471,485.519 660.5,473C 651.211,469.763 641.544,468.596 631.5,469.5C 611.859,469.91 593.193,474.41 575.5,483C 541.705,498.154 513.205,519.988 490,548.5C 471.947,573.293 460.447,600.96 455.5,631.5C 455.52,632.726 455.853,633.726 456.5,634.5C 445.052,649.725 438.052,666.892 435.5,686C 435.901,689.167 436.234,692.334 436.5,695.5C 433.014,724.696 444.014,746.529 469.5,761C 487.916,769.815 507.249,774.148 527.5,774C 536.834,763.142 546.501,752.642 556.5,742.5C 551.936,751.185 546.436,759.852 540,768.5C 505.522,815.146 464.355,854.812 416.5,887.5C 411.029,884.597 405.696,881.43 400.5,878C 395.893,873.303 391.393,868.47 387,863.5C 378.816,851.294 373.149,837.96 370,823.5C 367.908,802.13 368.241,780.797 371,759.5C 376.681,732.138 384.681,705.472 395,679.5C 395.878,675.211 396.378,670.878 396.5,666.5C 396.602,655.856 391.602,648.689 381.5,645C 371.5,644.333 361.5,644.333 351.5,645C 341.41,646.951 331.41,649.285 321.5,652C 301.147,661.342 283.981,674.842 270,692.5C 275.309,650.58 286.309,610.247 303,571.5C 317.971,536.885 338.805,506.385 365.5,480C 396.528,450.531 433.528,434.198 476.5,431C 502.564,407.93 528.897,385.263 555.5,363C 567.281,353.071 576.948,341.571 584.5,328.5C 610.62,315.627 636.953,302.793 663.5,290C 674.345,284.904 685.345,280.404 696.5,276.5C 731.22,258.883 768.22,248.383 807.5,245C 809.611,244.155 811.611,243.322 813.5,242.5 Z"/></g>
<g><path style="opacity:1" fill="#828282" d="M 1484.5,541.5 C 1448.14,514.135 1411.81,486.802 1375.5,459.5C 1394.57,418.807 1415.07,378.807 1437,339.5C 1449.64,318.251 1463.3,297.584 1478,277.5C 1485.5,269.004 1493.33,260.837 1501.5,253C 1505.24,250.268 1509.24,247.934 1513.5,246C 1527.32,241.51 1538.16,245.344 1546,257.5C 1552.07,268.389 1555.74,280.056 1557,292.5C 1557.67,307.833 1557.67,323.167 1557,338.5C 1556.43,342.848 1555.76,347.181 1555,351.5C 1533.78,416.024 1510.28,479.358 1484.5,541.5 Z"/></g>
<g><path style="opacity:1" fill="#b9b9b9" d="M 891.5,383.5 C 896.846,382.959 901.346,384.626 905,388.5C 907.016,391.929 906.849,395.262 904.5,398.5C 899.981,401.534 895.648,404.701 891.5,408C 890.328,410.696 888.328,412.363 885.5,413C 877.453,421.381 868.786,429.048 859.5,436C 845.585,451.248 831.085,465.748 816,479.5C 810.667,485.5 805.333,491.5 800,497.5C 790.817,509.606 781.984,522.106 773.5,535C 769.068,544.716 765.901,554.883 764,565.5C 759.287,570.154 754.121,570.654 748.5,567C 746.112,564.694 745.112,561.861 745.5,558.5C 746.074,552.277 747.574,546.277 750,540.5C 754.48,530.872 759.48,521.539 765,512.5C 779.065,493.01 794.065,474.343 810,456.5C 835.768,430.684 862.935,406.35 891.5,383.5 Z"/></g>
<g><path style="opacity:1" fill="#dadada" d="M 631.5,469.5 C 641.544,468.596 651.211,469.763 660.5,473C 676.471,485.519 686.971,501.685 692,521.5C 702.208,564.754 707.375,608.588 707.5,653C 717.047,654.39 726.381,656.39 735.5,659C 742.25,659.45 748.917,660.117 755.5,661C 762.314,651.848 769.147,642.681 776,633.5C 810.841,592.687 853.341,563.187 903.5,545C 909.891,544.242 916.224,544.576 922.5,546C 933.165,550 943.832,554 954.5,558C 956.421,559.588 958.421,561.088 960.5,562.5C 966.228,564.071 971.561,566.404 976.5,569.5C 984.145,570.331 991.812,570.831 999.5,571C 1000.74,571.232 1001.74,571.732 1002.5,572.5C 982.984,570.452 963.65,571.452 944.5,575.5C 917.356,591.916 891.356,610.083 866.5,630C 846.527,645.97 829.36,664.47 815,685.5C 797.872,718.735 806.372,742.901 840.5,758C 847.64,760.408 854.64,763.074 861.5,766C 868.754,767.917 876.088,769.417 883.5,770.5C 873.206,781.963 862.706,793.297 852,804.5C 852.822,808.511 853.989,812.511 855.5,816.5C 855.584,819.327 856.25,821.994 857.5,824.5C 851.311,856.924 843.144,888.924 833,920.5C 829.042,927.518 826.875,934.851 826.5,942.5C 825.504,942.414 824.671,942.748 824,943.5C 812.707,971.757 798.04,998.09 780,1022.5C 772.161,1031.37 763.994,1039.87 755.5,1048C 738.747,1061.88 719.747,1071.21 698.5,1076C 670.681,1084.18 642.348,1086.52 613.5,1083C 608.956,1081.26 604.29,1079.93 599.5,1079C 595.476,1076.65 591.309,1074.48 587,1072.5C 586.292,1073.38 585.458,1074.05 584.5,1074.5C 596.868,1055.38 603.535,1034.38 604.5,1011.5C 606.074,998.57 605.574,985.57 603,972.5C 602.626,970.509 601.793,968.842 600.5,967.5C 595.703,956.183 588.37,946.683 578.5,939C 561.299,925.899 542.299,916.233 521.5,910C 503.556,903.979 485.223,899.812 466.5,897.5C 460.406,895.906 454.072,895.239 447.5,895.5C 432.771,895.115 418.105,895.781 403.5,897.5C 408.014,894.409 412.347,891.075 416.5,887.5C 464.355,854.812 505.522,815.146 540,768.5C 546.436,759.852 551.936,751.185 556.5,742.5C 557.833,740.833 559.167,739.167 560.5,737.5C 574.955,724.706 583.288,708.706 585.5,689.5C 585.351,690.552 585.517,691.552 586,692.5C 592.18,677.139 599.18,662.139 607,647.5C 617.379,623.42 627.712,599.42 638,575.5C 644.49,557.18 649.824,538.513 654,519.5C 656.254,508.079 655.921,496.746 653,485.5C 648.508,476.501 641.342,471.167 631.5,469.5 Z"/></g>
<g><path style="opacity:1" fill="#fafafa" d="M 631.5,469.5 C 641.342,471.167 648.508,476.501 653,485.5C 655.921,496.746 656.254,508.079 654,519.5C 649.824,538.513 644.49,557.18 638,575.5C 627.712,599.42 617.379,623.42 607,647.5C 599.18,662.139 592.18,677.139 586,692.5C 585.517,691.552 585.351,690.552 585.5,689.5C 585.825,681.648 585.492,673.982 584.5,666.5C 584.825,658.981 584.492,651.648 583.5,644.5C 583.139,640.085 581.806,636.085 579.5,632.5C 571.438,618.111 559.105,609.611 542.5,607C 523.912,603.088 505.579,604.088 487.5,610C 474.918,615.426 464.584,623.593 456.5,634.5C 455.853,633.726 455.52,632.726 455.5,631.5C 460.447,600.96 471.947,573.293 490,548.5C 513.205,519.988 541.705,498.154 575.5,483C 593.193,474.41 611.859,469.91 631.5,469.5 Z"/></g>
<g><path style="opacity:1" fill="#f3f3f3" d="M 1002.5,572.5 C 1009.62,572.932 1016.62,574.098 1023.5,576C 1054.84,586.093 1081.34,603.593 1103,628.5C 1135.17,668.808 1157.34,714.142 1169.5,764.5C 1169.25,765.713 1168.59,766.38 1167.5,766.5C 1140.58,733.417 1107.92,707.584 1069.5,689C 1060.53,684.732 1051.2,681.565 1041.5,679.5C 1037.21,677.401 1032.54,676.234 1027.5,676C 1020.65,675.179 1013.99,675.346 1007.5,676.5C 1002.81,676.54 998.141,676.873 993.5,677.5C 989.838,677.723 986.505,678.723 983.5,680.5C 977.811,682.177 972.478,684.677 967.5,688C 938.107,713.892 910.107,741.392 883.5,770.5C 876.088,769.417 868.754,767.917 861.5,766C 854.64,763.074 847.64,760.408 840.5,758C 806.372,742.901 797.872,718.735 815,685.5C 829.36,664.47 846.527,645.97 866.5,630C 891.356,610.083 917.356,591.916 944.5,575.5C 963.65,571.452 982.984,570.452 1002.5,572.5 Z"/></g>
<g><path style="opacity:1" fill="#0d0d0d" d="M 579.5,632.5 C 580.256,636.767 581.589,640.767 583.5,644.5C 583.666,649.179 583.499,653.845 583,658.5C 582.434,656.277 581.6,654.277 580.5,652.5C 568.085,624.789 546.752,613.622 516.5,619C 507.725,621.886 499.725,626.053 492.5,631.5C 467.016,646.468 455.849,668.801 459,698.5C 463.498,726.49 479.331,744.157 506.5,751.5C 466.418,756.983 443.084,738.317 436.5,695.5C 436.234,692.334 435.901,689.167 435.5,686C 438.052,666.892 445.052,649.725 456.5,634.5C 464.584,623.593 474.918,615.426 487.5,610C 505.579,604.088 523.912,603.088 542.5,607C 559.105,609.611 571.438,618.111 579.5,632.5 Z"/></g>
<g><path style="opacity:1" fill="#494949" d="M 580.5,652.5 C 580.565,652.938 580.399,653.272 580,653.5C 569.105,634.323 552.605,626.157 530.5,629C 521.551,631.469 513.884,635.969 507.5,642.5C 505.435,642.483 503.435,642.15 501.5,641.5C 496.934,640.024 492.267,639.024 487.5,638.5C 489.294,636.203 491.294,634.037 493.5,632C 493.272,631.601 492.938,631.435 492.5,631.5C 499.725,626.053 507.725,621.886 516.5,619C 546.752,613.622 568.085,624.789 580.5,652.5 Z"/></g>
<g><path style="opacity:1" fill="#191919" d="M 580.5,652.5 C 581.6,654.277 582.434,656.277 583,658.5C 583.499,653.845 583.666,649.179 583.5,644.5C 584.492,651.648 584.825,658.981 584.5,666.5C 585.577,692.184 573.91,709.017 549.5,717C 521.232,719.401 503.399,706.901 496,679.5C 494.767,671.71 495.601,664.377 498.5,657.5C 501.167,658.5 503.833,659.5 506.5,660.5C 508.515,661.924 510.848,662.59 513.5,662.5C 519.871,664.765 526.538,665.599 533.5,665C 537.179,662.912 537.512,660.245 534.5,657C 526.166,650.738 517.166,645.904 507.5,642.5C 513.884,635.969 521.551,631.469 530.5,629C 552.605,626.157 569.105,634.323 580,653.5C 580.399,653.272 580.565,652.938 580.5,652.5 Z"/></g>
<g><path style="opacity:1" fill="#f7f7f7" d="M 492.5,631.5 C 492.938,631.435 493.272,631.601 493.5,632C 491.294,634.037 489.294,636.203 487.5,638.5C 486.957,638.56 486.624,638.893 486.5,639.5C 491.477,640.407 496.477,641.073 501.5,641.5C 503.435,642.15 505.435,642.483 507.5,642.5C 517.166,645.904 526.166,650.738 534.5,657C 537.512,660.245 537.179,662.912 533.5,665C 526.538,665.599 519.871,664.765 513.5,662.5C 511.485,661.076 509.152,660.41 506.5,660.5C 503.833,659.5 501.167,658.5 498.5,657.5C 492.52,654.494 487.186,650.494 482.5,645.5C 476.139,655.734 473.139,666.901 473.5,679C 472.61,707.572 484.61,728.572 509.5,742C 523.914,746.771 538.247,746.605 552.5,741.5C 538.798,751.755 523.464,755.089 506.5,751.5C 479.331,744.157 463.498,726.49 459,698.5C 455.849,668.801 467.016,646.468 492.5,631.5 Z"/></g>
<g><path style="opacity:1" fill="#434343" d="M 579.5,632.5 C 581.806,636.085 583.139,640.085 583.5,644.5C 581.589,640.767 580.256,636.767 579.5,632.5 Z"/></g>
<g><path style="opacity:1" fill="#8e8e8e" d="M 487.5,638.5 C 492.267,639.024 496.934,640.024 501.5,641.5C 496.477,641.073 491.477,640.407 486.5,639.5C 486.624,638.893 486.957,638.56 487.5,638.5 Z"/></g>
<g><path style="opacity:1" fill="#4b4b4b" d="M 498.5,657.5 C 495.601,664.377 494.767,671.71 496,679.5C 503.399,706.901 521.232,719.401 549.5,717C 573.91,709.017 585.577,692.184 584.5,666.5C 585.492,673.982 585.825,681.648 585.5,689.5C 583.288,708.706 574.955,724.706 560.5,737.5C 557.455,738.279 554.789,739.613 552.5,741.5C 538.247,746.605 523.914,746.771 509.5,742C 484.61,728.572 472.61,707.572 473.5,679C 473.139,666.901 476.139,655.734 482.5,645.5C 487.186,650.494 492.52,654.494 498.5,657.5 Z"/></g>
<g><path style="opacity:1" fill="#a9a9a9" d="M 506.5,660.5 C 509.152,660.41 511.485,661.076 513.5,662.5C 510.848,662.59 508.515,661.924 506.5,660.5 Z"/></g>
<g><path style="opacity:1" fill="#8d8d8d" d="M 1007.5,676.5 C 1013.99,675.346 1020.65,675.179 1027.5,676C 1032.54,676.234 1037.21,677.401 1041.5,679.5C 1030.3,677.1 1018.97,676.1 1007.5,676.5 Z"/></g>
<g><path style="opacity:1" fill="#0b0b0b" d="M 1007.5,676.5 C 1018.97,676.1 1030.3,677.1 1041.5,679.5C 1051.2,681.565 1060.53,684.732 1069.5,689C 1107.92,707.584 1140.58,733.417 1167.5,766.5C 1169.98,768.545 1170.98,771.212 1170.5,774.5C 1159.87,801.81 1142.2,823.476 1117.5,839.5C 1116.96,839.44 1116.62,839.107 1116.5,838.5C 1117.79,836.261 1118.79,833.928 1119.5,831.5C 1121.85,824.395 1123.35,817.062 1124,809.5C 1124.67,798.5 1124.67,787.5 1124,776.5C 1121.97,769.552 1119.47,762.885 1116.5,756.5C 1114.44,750.034 1111.1,744.368 1106.5,739.5C 1089.62,717.219 1067.29,703.885 1039.5,699.5C 1035.18,698.834 1030.68,698.501 1026,698.5C 1019.59,698.289 1013.42,698.955 1007.5,700.5C 971.471,708.689 946.637,730.022 933,764.5C 931.203,769.023 930.036,773.69 929.5,778.5C 928.035,783.59 927.368,788.923 927.5,794.5C 927.502,798.018 927.835,801.351 928.5,804.5C 930.717,831.267 941.717,853.6 961.5,871.5C 925.365,871.677 894.198,859.343 868,834.5C 863.564,828.608 859.398,822.608 855.5,816.5C 853.989,812.511 852.822,808.511 852,804.5C 862.706,793.297 873.206,781.963 883.5,770.5C 910.107,741.392 938.107,713.892 967.5,688C 972.478,684.677 977.811,682.177 983.5,680.5C 987.162,680.277 990.495,679.277 993.5,677.5C 998.141,676.873 1002.81,676.54 1007.5,676.5 Z"/></g>
<g><path style="opacity:1" fill="#636363" d="M 993.5,677.5 C 990.495,679.277 987.162,680.277 983.5,680.5C 986.505,678.723 989.838,677.723 993.5,677.5 Z"/></g>
<g><path style="opacity:1" fill="#acacac" d="M 1039.5,699.5 C 1028.81,699.39 1018.15,699.723 1007.5,700.5C 1013.42,698.955 1019.59,698.289 1026,698.5C 1030.68,698.501 1035.18,698.834 1039.5,699.5 Z"/></g>
<g><path style="opacity:1" fill="#666666" d="M 436.5,695.5 C 443.084,738.317 466.418,756.983 506.5,751.5C 523.464,755.089 538.798,751.755 552.5,741.5C 554.789,739.613 557.455,738.279 560.5,737.5C 559.167,739.167 557.833,740.833 556.5,742.5C 546.501,752.642 536.834,763.142 527.5,774C 507.249,774.148 487.916,769.815 469.5,761C 444.014,746.529 433.014,724.696 436.5,695.5 Z"/></g>
<g><path style="opacity:1" fill="#fcfcfc" d="M 1039.5,699.5 C 1067.29,703.885 1089.62,717.219 1106.5,739.5C 1096.29,732.071 1084.62,726.571 1071.5,723C 1050.32,718.337 1030.65,721.837 1012.5,733.5C 1027.35,736.262 1040.69,742.262 1052.5,751.5C 1054.37,753.914 1055.71,756.58 1056.5,759.5C 1055.97,763.457 1053.64,765.624 1049.5,766C 1045.18,766.499 1040.85,766.666 1036.5,766.5C 1021.86,762.847 1008.53,756.513 996.5,747.5C 986.125,758.087 979.625,770.754 977,785.5C 972.622,822.404 986.122,850.404 1017.5,869.5C 1017.92,870.222 1018.58,870.722 1019.5,871C 1015.28,872.204 1010.95,872.87 1006.5,873C 992.167,873.667 977.833,873.667 963.5,873C 962.956,872.283 962.289,871.783 961.5,871.5C 941.717,853.6 930.717,831.267 928.5,804.5C 928.521,795.818 928.854,787.152 929.5,778.5C 930.036,773.69 931.203,769.023 933,764.5C 946.637,730.022 971.471,708.689 1007.5,700.5C 1018.15,699.723 1028.81,699.39 1039.5,699.5 Z"/></g>
<g><path style="opacity:1" fill="#4c4c4c" d="M 1106.5,739.5 C 1111.1,744.368 1114.44,750.034 1116.5,756.5C 1101.49,744.566 1084.49,740.733 1065.5,745C 1060.56,746.138 1056.22,748.305 1052.5,751.5C 1040.69,742.262 1027.35,736.262 1012.5,733.5C 1030.65,721.837 1050.32,718.337 1071.5,723C 1084.62,726.571 1096.29,732.071 1106.5,739.5 Z"/></g>
<g><path style="opacity:1" fill="#191919" d="M 1116.5,756.5 C 1119.47,762.885 1121.97,769.552 1124,776.5C 1124.67,787.5 1124.67,798.5 1124,809.5C 1123.35,817.062 1121.85,824.395 1119.5,831.5C 1098.19,849.87 1075.19,852.37 1050.5,839C 1027.44,818.405 1022.77,794.239 1036.5,766.5C 1040.85,766.666 1045.18,766.499 1049.5,766C 1053.64,765.624 1055.97,763.457 1056.5,759.5C 1055.71,756.58 1054.37,753.914 1052.5,751.5C 1056.22,748.305 1060.56,746.138 1065.5,745C 1084.49,740.733 1101.49,744.566 1116.5,756.5 Z"/></g>
<g><path style="opacity:1" fill="#4b4b4b" d="M 1036.5,766.5 C 1022.77,794.239 1027.44,818.405 1050.5,839C 1075.19,852.37 1098.19,849.87 1119.5,831.5C 1118.79,833.928 1117.79,836.261 1116.5,838.5C 1116.62,839.107 1116.96,839.44 1117.5,839.5C 1104.69,847.905 1091.02,854.739 1076.5,860C 1058.92,865.019 1041.09,868.852 1023,871.5C 1021.4,870.115 1019.57,869.449 1017.5,869.5C 986.122,850.404 972.622,822.404 977,785.5C 979.625,770.754 986.125,758.087 996.5,747.5C 1008.53,756.513 1021.86,762.847 1036.5,766.5 Z"/></g>
<g><path style="opacity:1" fill="#b9b9b9" d="M 1695.5,748.5 C 1699.41,748.467 1702.74,749.801 1705.5,752.5C 1707.68,756.551 1709.18,760.885 1710,765.5C 1730.35,855.094 1736.68,945.761 1729,1037.5C 1723.55,1097.43 1709.55,1155.1 1687,1210.5C 1680.75,1224.46 1674.41,1238.46 1668,1252.5C 1660.8,1262.24 1654.63,1272.57 1649.5,1283.5C 1644.98,1288.18 1641.48,1293.52 1639,1299.5C 1629.23,1310.82 1619.9,1322.48 1611,1334.5C 1600.47,1345.36 1589.97,1356.19 1579.5,1367C 1547.56,1394.77 1513.23,1418.77 1476.5,1439C 1466,1440.5 1461.5,1436 1463,1425.5C 1463.47,1424.07 1464.3,1422.9 1465.5,1422C 1531.48,1388.99 1585.64,1341.82 1628,1280.5C 1633.25,1270.92 1638.91,1261.58 1645,1252.5C 1651.36,1240.15 1657.69,1227.82 1664,1215.5C 1677.03,1184.42 1687.69,1152.42 1696,1119.5C 1707.4,1064.39 1712.9,1008.73 1712.5,952.5C 1712.72,933.452 1711.89,914.452 1710,895.5C 1707.34,872.857 1705,850.19 1703,827.5C 1698.82,804.737 1693.98,782.071 1688.5,759.5C 1688.67,757.5 1688.83,755.5 1689,753.5C 1691.64,752.268 1693.81,750.602 1695.5,748.5 Z"/></g>
<g><path style="opacity:1" fill="#828282" d="M 929.5,778.5 C 928.854,787.152 928.521,795.818 928.5,804.5C 927.835,801.351 927.502,798.018 927.5,794.5C 927.368,788.923 928.035,783.59 929.5,778.5 Z"/></g>
<g><path style="opacity:1" fill="#666666" d="M 1170.5,774.5 C 1168.78,781.504 1166.94,788.504 1165,795.5C 1140.72,848.747 1099.56,879.913 1041.5,889C 1005.28,893.203 969.282,891.869 933.5,885C 898.64,876.449 873.307,856.283 857.5,824.5C 856.25,821.994 855.584,819.327 855.5,816.5C 859.398,822.608 863.564,828.608 868,834.5C 894.198,859.343 925.365,871.677 961.5,871.5C 962.289,871.783 962.956,872.283 963.5,873C 977.833,873.667 992.167,873.667 1006.5,873C 1010.95,872.87 1015.28,872.204 1019.5,871C 1018.58,870.722 1017.92,870.222 1017.5,869.5C 1019.57,869.449 1021.4,870.115 1023,871.5C 1041.09,868.852 1058.92,865.019 1076.5,860C 1091.02,854.739 1104.69,847.905 1117.5,839.5C 1142.2,823.476 1159.87,801.81 1170.5,774.5 Z"/></g>
<g><path style="opacity:1" fill="#898989" d="M 447.5,895.5 C 454.072,895.239 460.406,895.906 466.5,897.5C 459.95,897.546 453.617,896.879 447.5,895.5 Z"/></g>
<g><path style="opacity:1" fill="#282828" d="M 447.5,895.5 C 453.617,896.879 459.95,897.546 466.5,897.5C 485.223,899.812 503.556,903.979 521.5,910C 542.299,916.233 561.299,925.899 578.5,939C 588.37,946.683 595.703,956.183 600.5,967.5C 603.937,981.926 605.27,996.593 604.5,1011.5C 603.535,1034.38 596.868,1055.38 584.5,1074.5C 571.236,1092.97 554.236,1106.97 533.5,1116.5C 517.078,1124.58 499.745,1129.75 481.5,1132C 462.785,1135.18 444.119,1136.35 425.5,1135.5C 426.627,1095.57 425.127,1055.57 421,1015.5C 418.792,1005.03 417.126,1005.03 416,1015.5C 415.359,1054.85 415.859,1094.18 417.5,1133.5C 380.961,1123.51 352.795,1102.51 333,1070.5C 326.506,1056.19 322.673,1041.19 321.5,1025.5C 321.333,1002.5 321.5,979.498 322,956.5C 323.188,955.437 323.688,954.103 323.5,952.5C 325.975,946.219 329.475,940.553 334,935.5C 352.739,914.878 375.906,902.211 403.5,897.5C 418.105,895.781 432.771,895.115 447.5,895.5 Z"/></g>
<g><path style="opacity:1" fill="#545454" d="M 366.5,932.5 C 419.328,931.408 471.328,937.241 522.5,950C 530.371,954.072 538.538,957.572 547,960.5C 551.773,962.713 552.607,965.88 549.5,970C 547.5,970.667 545.5,970.667 543.5,970C 533.125,965.153 522.459,960.819 511.5,957C 503.236,955.934 495.236,953.934 487.5,951C 447.029,945.516 406.362,942.016 365.5,940.5C 365.013,939.554 364.68,938.554 364.5,937.5C 365.187,935.823 365.854,934.156 366.5,932.5 Z"/></g>
<g><path style="opacity:1" fill="#494949" d="M 323.5,952.5 C 323.688,954.103 323.188,955.437 322,956.5C 321.5,979.498 321.333,1002.5 321.5,1025.5C 321.167,1025.5 320.833,1025.5 320.5,1025.5C 320.333,1002.16 320.5,978.831 321,955.5C 321.852,954.429 322.685,953.429 323.5,952.5 Z"/></g>
<g><path style="opacity:1" fill="#191919" d="M 359.5,966.5 C 371.619,965.731 380.286,970.898 385.5,982C 391.362,994.355 392.862,1007.19 390,1020.5C 386.527,1028.09 380.694,1030.59 372.5,1028C 366.837,1024.54 362.671,1019.71 360,1013.5C 356.672,1005.52 353.338,997.519 350,989.5C 346.249,979.056 349.415,971.389 359.5,966.5 Z"/></g>
<g><path style="opacity:1" fill="#191919" d="M 482.5,976.5 C 491.583,976.415 498.749,980.081 504,987.5C 508.063,993.631 511.063,1000.3 513,1007.5C 515.437,1017.73 517.27,1028.06 518.5,1038.5C 524.02,1040.63 529.686,1042.3 535.5,1043.5C 525.062,1050.03 513.729,1052.2 501.5,1050C 494.352,1048.06 487.352,1045.73 480.5,1043C 456.968,1027.95 453.135,1008.78 469,985.5C 472.401,980.557 476.901,977.557 482.5,976.5 Z"/></g>
<g><path style="opacity:1" fill="#d9d9d9" d="M 19.5,975.5 C 65.0237,984.586 109.69,996.752 153.5,1012C 186.55,1024.02 219.216,1037.02 251.5,1051C 253.555,1051.69 255.221,1052.85 256.5,1054.5C 256.167,1055.5 255.5,1056.17 254.5,1056.5C 199.727,1032.21 143.394,1011.71 85.5,995C 64.2927,989.364 42.9593,984.364 21.5,980C 19.9632,978.89 19.2965,977.39 19.5,975.5 Z"/></g>
<g><path style="opacity:1" fill="#777777" d="M 600.5,967.5 C 601.793,968.842 602.626,970.509 603,972.5C 605.574,985.57 606.074,998.57 604.5,1011.5C 605.27,996.593 603.937,981.926 600.5,967.5 Z"/></g>
<g><path style="opacity:1" fill="#191919" d="M 425.5,1135.5 C 422.572,1135.43 419.905,1134.77 417.5,1133.5C 415.859,1094.18 415.359,1054.85 416,1015.5C 417.126,1005.03 418.792,1005.03 421,1015.5C 425.127,1055.57 426.627,1095.57 425.5,1135.5 Z"/></g>
<g><path style="opacity:1" fill="#7b7b7b" d="M 320.5,1025.5 C 320.833,1025.5 321.167,1025.5 321.5,1025.5C 322.673,1041.19 326.506,1056.19 333,1070.5C 352.795,1102.51 380.961,1123.51 417.5,1133.5C 419.905,1134.77 422.572,1135.43 425.5,1135.5C 444.119,1136.35 462.785,1135.18 481.5,1132C 499.745,1129.75 517.078,1124.58 533.5,1116.5C 536.895,1124.98 540.062,1133.65 543,1142.5C 543.502,1145.51 544.002,1148.51 544.5,1151.5C 546.32,1179.79 546.987,1208.12 546.5,1236.5C 540.203,1237.54 533.87,1237.71 527.5,1237C 489.976,1227.33 454.81,1212.16 422,1191.5C 410.751,1198.03 398.585,1201.53 385.5,1202C 372.838,1202.5 360.171,1202.67 347.5,1202.5C 347.344,1206.58 347.844,1210.58 349,1214.5C 355.549,1225.38 364.383,1233.88 375.5,1240C 399.893,1252.58 425.56,1261.58 452.5,1267C 505.226,1278.42 558.559,1285.76 612.5,1289C 634.855,1289.85 657.189,1289.52 679.5,1288C 703.113,1284.57 726.446,1279.9 749.5,1274C 766.238,1268.31 782.905,1262.31 799.5,1256C 801.747,1254.72 803.747,1253.22 805.5,1251.5C 818.726,1255.97 832.06,1260.14 845.5,1264C 852.93,1267.08 860.263,1270.25 867.5,1273.5C 861.395,1279.1 855.395,1284.94 849.5,1291C 822.24,1311.89 792.24,1327.89 759.5,1339C 718.135,1351.54 675.802,1359.2 632.5,1362C 594.823,1362.77 557.157,1362.44 519.5,1361C 492.184,1358.53 465.184,1354.19 438.5,1348C 427.281,1344.59 416.281,1340.59 405.5,1336C 393.916,1330.79 384.083,1323.29 376,1313.5C 357.171,1276.51 337.838,1239.84 318,1203.5C 308.27,1181.99 301.603,1159.65 298,1136.5C 295.194,1105.74 299.527,1076.07 311,1047.5C 315.048,1040.42 318.214,1033.09 320.5,1025.5 Z"/></g>
<g><path style="opacity:1" fill="#dadada" d="M 1081.5,1036.5 C 1085.17,1036.5 1088.83,1036.5 1092.5,1036.5C 1092.5,1037.5 1092.5,1038.5 1092.5,1039.5C 978.709,1056.29 867.043,1081.79 757.5,1116C 755.527,1116.5 753.527,1116.66 751.5,1116.5C 751.33,1115.18 751.663,1114.01 752.5,1113C 860.218,1079.15 969.885,1053.65 1081.5,1036.5 Z"/></g>
<g><path style="opacity:1" fill="#d8d8d8" d="M -0.5,1112.5 C -0.5,1111.17 -0.5,1109.83 -0.5,1108.5C 78.0336,1087.16 158.034,1078.33 239.5,1082C 240.38,1083.36 240.714,1084.86 240.5,1086.5C 218.831,1086.33 197.164,1086.5 175.5,1087C 116.71,1088.72 59.0437,1097.56 2.5,1113.5C 1.41635,1113.31 0.416349,1112.98 -0.5,1112.5 Z"/></g>
<g><path style="opacity:1" fill="#cecece" d="M 192.5,1094.5 C 200.392,1094.38 203.392,1098.05 201.5,1105.5C 197.928,1110.39 193.928,1110.72 189.5,1106.5C 187.593,1101.69 188.593,1097.69 192.5,1094.5 Z"/></g>
<g><path style="opacity:1" fill="#cdcdcd" d="M 260.5,1095.5 C 267.204,1094.97 270.37,1097.97 270,1104.5C 266.781,1110.08 262.781,1110.74 258,1106.5C 255.876,1102.06 256.709,1098.39 260.5,1095.5 Z"/></g>
<g><path style="opacity:1" fill="#cccccc" d="M 603.5,1111.5 C 610.369,1111.54 612.869,1114.87 611,1121.5C 606.819,1126.77 602.819,1126.77 599,1121.5C 597.598,1116.65 599.098,1113.31 603.5,1111.5 Z"/></g>
<g><path style="opacity:1" fill="#d9d9d9" d="M 201.5,1113.5 C 213.186,1113.17 224.852,1113.5 236.5,1114.5C 190.26,1114.73 144.927,1121.06 100.5,1133.5C 100.33,1132.18 100.663,1131.01 101.5,1130C 134.097,1119.11 167.431,1113.61 201.5,1113.5 Z"/></g>
<g><path style="opacity:1" fill="#cdcdcd" d="M 651.5,1118.5 C 659.239,1117.74 662.739,1121.08 662,1128.5C 657.867,1133.48 653.701,1133.64 649.5,1129C 647.756,1124.95 648.423,1121.45 651.5,1118.5 Z"/></g>
<g><path style="opacity:1" fill="#cecece" d="M 715.5,1123.5 C 722.706,1123.2 725.873,1126.54 725,1133.5C 720.984,1139.56 716.651,1139.9 712,1134.5C 710.662,1129.96 711.829,1126.29 715.5,1123.5 Z"/></g>
<g><path style="opacity:1" fill="#cdcdcd" d="M 198.5,1135.5 C 208.361,1134.5 211.361,1138.33 207.5,1147C 200.864,1150.4 196.864,1148.56 195.5,1141.5C 195.628,1139.05 196.628,1137.05 198.5,1135.5 Z"/></g>
<g><path style="opacity:1" fill="#d8d8d8" d="M 774.5,1141.5 C 878.554,1139.47 981.888,1146.3 1084.5,1162C 1096.55,1164.67 1108.55,1167.17 1120.5,1169.5C 1120.62,1172.89 1118.96,1174.23 1115.5,1173.5C 1079.57,1167.68 1043.57,1162.18 1007.5,1157C 976.19,1154.08 944.857,1151.41 913.5,1149C 866.844,1147.67 820.177,1147.17 773.5,1147.5C 773.517,1145.44 773.85,1143.44 774.5,1141.5 Z"/></g>
<g><path style="opacity:1" fill="#cccccc" d="M 266.5,1145.5 C 274.272,1143.78 277.772,1146.78 277,1154.5C 272.796,1159.74 268.463,1159.74 264,1154.5C 262.927,1150.9 263.76,1147.9 266.5,1145.5 Z"/></g>
<g><path style="opacity:1" fill="#cdcdcd" d="M 609.5,1151.5 C 616.985,1150.83 620.152,1154.16 619,1161.5C 614.558,1165.36 610.224,1165.36 606,1161.5C 604.581,1157.08 605.748,1153.75 609.5,1151.5 Z"/></g>
<g><path style="opacity:1" fill="#cccccc" d="M 745.5,1158.5 C 753.563,1157.4 756.397,1160.73 754,1168.5C 749.198,1174.1 745.198,1173.77 742,1167.5C 740.665,1163.39 741.832,1160.39 745.5,1158.5 Z"/></g>
<g><path style="opacity:1" fill="#cdcdcd" d="M 692.5,1165.5 C 697.708,1164.59 701.041,1166.59 702.5,1171.5C 701.006,1177.25 697.339,1179.42 691.5,1178C 686.041,1173.18 686.375,1169.01 692.5,1165.5 Z"/></g>
<g><path style="opacity:1" fill="#cdcdcd" d="M 242.5,1167.5 C 248.067,1166.44 251.734,1168.44 253.5,1173.5C 253.426,1178.41 250.926,1180.74 246,1180.5C 239.977,1179.81 237.977,1176.47 240,1170.5C 241.045,1169.63 241.878,1168.63 242.5,1167.5 Z"/></g>
<g><path style="opacity:1" fill="#d9d9d9" d="M 779.5,1173.5 C 845.542,1172.08 910.876,1177.75 975.5,1190.5C 975.5,1191.83 975.5,1193.17 975.5,1194.5C 910.926,1181.07 845.592,1175.07 779.5,1176.5C 779.5,1175.5 779.5,1174.5 779.5,1173.5 Z"/></g>
<g><path style="opacity:1" fill="#bbbbbb" d="M 544.5,1151.5 C 545.647,1156.64 546.48,1161.97 547,1167.5C 547.5,1190.5 547.667,1213.5 547.5,1236.5C 547.167,1236.5 546.833,1236.5 546.5,1236.5C 546.987,1208.12 546.32,1179.79 544.5,1151.5 Z"/></g>
<g><path style="opacity:1" fill="#cdcdcd" d="M 636.5,1184.5 C 640.131,1184.03 643.465,1184.7 646.5,1186.5C 648.761,1195.74 645.261,1199.07 636,1196.5C 632.658,1192.37 632.825,1188.37 636.5,1184.5 Z"/></g>
<g><path style="opacity:1" fill="#1a1a1a" d="M 546.5,1236.5 C 546.833,1236.5 547.167,1236.5 547.5,1236.5C 566.201,1252.02 587.201,1263.69 610.5,1271.5C 613.505,1273.28 616.838,1274.28 620.5,1274.5C 622.515,1275.92 624.848,1276.59 627.5,1276.5C 648.478,1280.37 669.478,1280.37 690.5,1276.5C 694.04,1276.25 697.373,1275.58 700.5,1274.5C 734.328,1267.63 767.995,1259.96 801.5,1251.5C 802.833,1251.5 804.167,1251.5 805.5,1251.5C 803.747,1253.22 801.747,1254.72 799.5,1256C 782.905,1262.31 766.238,1268.31 749.5,1274C 726.446,1279.9 703.113,1284.57 679.5,1288C 657.189,1289.52 634.855,1289.85 612.5,1289C 558.559,1285.76 505.226,1278.42 452.5,1267C 425.56,1261.58 399.893,1252.58 375.5,1240C 364.383,1233.88 355.549,1225.38 349,1214.5C 347.844,1210.58 347.344,1206.58 347.5,1202.5C 360.171,1202.67 372.838,1202.5 385.5,1202C 398.585,1201.53 410.751,1198.03 422,1191.5C 454.81,1212.16 489.976,1227.33 527.5,1237C 533.87,1237.71 540.203,1237.54 546.5,1236.5 Z"/></g>
<g><path style="opacity:1" fill="#d9d9d9" d="M 721.5,1197.5 C 827.314,1207.8 930.647,1229.46 1031.5,1262.5C 1031.83,1265.52 1030.49,1267.19 1027.5,1267.5C 962.424,1245.81 896.09,1228.98 828.5,1217C 794.579,1211.69 760.579,1207.02 726.5,1203C 721.614,1203.62 719.947,1201.78 721.5,1197.5 Z"/></g>
<g><path style="opacity:1" fill="#d8d8d8" d="M 219.5,1182.5 C 222.5,1182.5 225.5,1182.5 228.5,1182.5C 228.5,1183.83 228.5,1185.17 228.5,1186.5C 163.197,1196.1 100.197,1213.93 39.5,1240C 32.1667,1243.67 24.8333,1247.33 17.5,1251C 15.8659,1251.49 14.1992,1251.66 12.5,1251.5C 12.238,1250.02 12.5713,1248.69 13.5,1247.5C 57.3604,1225.82 103.027,1208.99 150.5,1197C 173.54,1191.43 196.54,1186.59 219.5,1182.5 Z"/></g>
<g><path style="opacity:1" fill="#cdcdcd" d="M 577.5,1202.5 C 587.944,1202.71 590.278,1207.21 584.5,1216C 576.333,1217.83 573.167,1214.67 575,1206.5C 575.662,1205.02 576.496,1203.68 577.5,1202.5 Z"/></g>
<g><path style="opacity:1" fill="#cdcdcd" d="M 235.5,1207.5 C 244.893,1207.03 247.559,1210.86 243.5,1219C 239.584,1220.99 235.75,1220.82 232,1218.5C 230.518,1213.77 231.685,1210.11 235.5,1207.5 Z"/></g>
<g><path style="opacity:1" fill="#cecece" d="M 684.5,1209.5 C 692.382,1208.55 695.549,1211.88 694,1219.5C 689.54,1224.77 685.206,1224.77 681,1219.5C 680.333,1217.5 680.333,1215.5 681,1213.5C 682.376,1212.29 683.542,1210.96 684.5,1209.5 Z"/></g>
<g><path style="opacity:1" fill="#cdcdcd" d="M 287.5,1221.5 C 295.382,1220.55 298.549,1223.88 297,1231.5C 292.155,1237.08 287.822,1236.75 284,1230.5C 282.98,1226.55 284.147,1223.55 287.5,1221.5 Z"/></g>
<g><path style="opacity:1" fill="#cdcdcd" d="M 643.5,1224.5 C 651.167,1223.02 655,1226.02 655,1233.5C 650.333,1238.83 645.667,1238.83 641,1233.5C 639.927,1229.9 640.76,1226.9 643.5,1224.5 Z"/></g>
<g><path style="opacity:1" fill="#7f7f7f" d="M 872.5,1268.5 C 853.762,1261.59 834.762,1255.25 815.5,1249.5C 814.287,1249.25 813.62,1248.59 813.5,1247.5C 820.068,1245.89 826.735,1244.72 833.5,1244C 847.226,1241.46 859.892,1243.79 871.5,1251C 875.115,1253.73 876.948,1257.23 877,1261.5C 874.98,1263.55 873.48,1265.88 872.5,1268.5 Z"/></g>
<g><path style="opacity:1" fill="#d8d8d8" d="M 242.5,1249.5 C 243.833,1249.5 245.167,1249.5 246.5,1249.5C 246.5,1251.17 246.5,1252.83 246.5,1254.5C 191,1269.71 140.333,1294.71 94.5,1329.5C 92.5104,1328.54 92.1771,1327.2 93.5,1325.5C 113.258,1309.93 134.258,1296.1 156.5,1284C 170.167,1277.67 183.833,1271.33 197.5,1265C 212.357,1259.37 227.357,1254.2 242.5,1249.5 Z"/></g>
<g><path style="opacity:1" fill="#d5d5d5" d="M 813.5,1247.5 C 813.62,1248.59 814.287,1249.25 815.5,1249.5C 834.762,1255.25 853.762,1261.59 872.5,1268.5C 882.471,1273.42 892.804,1277.58 903.5,1281C 914.167,1286.33 924.833,1291.67 935.5,1297C 938.844,1299 942.177,1301 945.5,1303C 946.651,1306.46 945.318,1307.8 941.5,1307C 936.367,1304.26 931.367,1301.26 926.5,1298C 915.803,1292.98 905.136,1287.98 894.5,1283C 885.477,1279.67 876.477,1276.5 867.5,1273.5C 860.263,1270.25 852.93,1267.08 845.5,1264C 832.06,1260.14 818.726,1255.97 805.5,1251.5C 804.167,1251.5 802.833,1251.5 801.5,1251.5C 801.389,1250.88 801.056,1250.38 800.5,1250C 777.429,1243.36 754.096,1237.7 730.5,1233C 726.882,1232.87 725.215,1231.04 725.5,1227.5C 732.515,1228.47 739.515,1229.64 746.5,1231C 768.808,1236.83 791.141,1242.33 813.5,1247.5 Z"/></g>
<g><path style="opacity:1" fill="#9e9e9e" d="M 610.5,1271.5 C 614.162,1271.72 617.495,1272.72 620.5,1274.5C 616.838,1274.28 613.505,1273.28 610.5,1271.5 Z"/></g>
<g><path style="opacity:1" fill="#8f8f8f" d="M 620.5,1274.5 C 623.152,1274.41 625.485,1275.08 627.5,1276.5C 624.848,1276.59 622.515,1275.92 620.5,1274.5 Z"/></g>
<g><path style="opacity:1" fill="#848484" d="M 700.5,1274.5 C 697.373,1275.58 694.04,1276.25 690.5,1276.5C 693.507,1274.83 696.84,1274.16 700.5,1274.5 Z"/></g>
<g><path style="opacity:1" fill="#e5e5e5" d="M 284.5,1427.5 C 287.346,1427.81 288.846,1429.48 289,1432.5C 290.512,1433.26 291.846,1434.26 293,1435.5C 298.938,1445.77 305.272,1455.77 312,1465.5C 316.657,1470.79 321.323,1476.13 326,1481.5C 326.36,1483.42 327.194,1485.09 328.5,1486.5C 337.268,1495.29 345.435,1504.62 353,1514.5C 368.767,1530.59 384.934,1546.09 401.5,1561C 411.129,1567.96 420.462,1575.3 429.5,1583C 447.788,1595.49 466.788,1606.99 486.5,1617.5C 487.287,1618.24 487.953,1619.08 488.5,1620C 505.088,1628.41 522.088,1636.08 539.5,1643C 555.65,1648.65 571.983,1653.99 588.5,1659C 604.254,1661.52 619.92,1664.52 635.5,1668C 674.071,1673.19 712.738,1673.86 751.5,1670C 879.286,1655.91 1003.95,1628.58 1125.5,1588C 1177.71,1569.55 1228.71,1548.39 1278.5,1524.5C 1279.09,1524.71 1279.59,1525.04 1280,1525.5C 1280.59,1535.19 1280.26,1544.86 1279,1554.5C 1275.4,1572.8 1270.73,1590.8 1265,1608.5C 1258.72,1617.69 1253.39,1627.36 1249,1637.5C 1240.33,1648.17 1231.67,1658.83 1223,1669.5C 1216.26,1676.12 1209.43,1682.62 1202.5,1689C 1191.76,1697.06 1180.76,1705.06 1169.5,1713C 1156.91,1718.63 1144.91,1725.29 1133.5,1733C 1122.4,1736.36 1111.73,1740.7 1101.5,1746C 1086,1750.7 1070.66,1755.7 1055.5,1761C 960.942,1784.77 864.942,1793.77 767.5,1788C 691.703,1787.13 617.036,1777.8 543.5,1760C 503.204,1748.37 464.204,1733.37 426.5,1715C 419.744,1710.45 412.744,1706.11 405.5,1702C 401.728,1698.88 397.728,1696.21 393.5,1694C 390.876,1690.54 387.543,1688.04 383.5,1686.5C 378.641,1682.23 373.975,1677.73 369.5,1673C 367.079,1670.91 364.412,1669.24 361.5,1668C 351.35,1656.22 340.85,1644.72 330,1633.5C 323.702,1623.86 317.369,1614.19 311,1604.5C 298.471,1578.11 289.137,1550.45 283,1521.5C 280.764,1496.88 280.097,1472.22 281,1447.5C 282.307,1440.85 283.474,1434.18 284.5,1427.5 Z"/></g>
<g><path style="opacity:1" fill="#fdfdfd" d="M 1894.5,1747.5 C 1894.5,1804.83 1894.5,1862.17 1894.5,1919.5C 1892.17,1919.5 1889.83,1919.5 1887.5,1919.5C 1890.62,1862.04 1892.95,1804.71 1894.5,1747.5 Z"/></g>
</svg>
