<?xml version="1.0" encoding="UTF-8"?>
<!DOCTYPE svg PUBLIC "-//W3C//DTD SVG 1.1//EN" "http://www.w3.org/Graphics/SVG/1.1/DTD/svg11.dtd">
<svg xmlns="http://www.w3.org/2000/svg" version="1.1" width="1711px" height="1920px" style="shape-rendering:geometricPrecision; text-rendering:geometricPrecision; image-rendering:optimizeQuality; fill-rule:evenodd; clip-rule:evenodd" xmlns:xlink="http://www.w3.org/1999/xlink">
<g><path style="opacity:1" fill="#fefefe" d="M -0.5,-0.5 C 265.5,-0.5 531.5,-0.5 797.5,-0.5C 792.311,16.6044 786.977,33.6044 781.5,50.5C 779.39,54.5021 778.057,58.8354 777.5,63.5C 764.95,100.343 753.617,137.676 743.5,175.5C 742.076,177.515 741.41,179.848 741.5,182.5C 716.671,267.132 695.838,352.799 679,439.5C 677.319,448.099 676.152,456.766 675.5,465.5C 673.073,465.477 670.74,464.977 668.5,464C 643.954,450.96 623.954,432.793 608.5,409.5C 585.036,371.981 568.869,331.314 560,287.5C 553.205,253.141 548.705,218.474 546.5,183.5C 545.448,183.351 544.448,183.517 543.5,184C 519.963,201.818 500.129,222.985 484,247.5C 448.85,302.752 422.683,362.085 405.5,425.5C 404.076,427.515 403.41,429.848 403.5,432.5C 400.076,442.615 397.409,452.948 395.5,463.5C 393.548,468.564 392.215,473.897 391.5,479.5C 388.587,490.706 386.254,502.039 384.5,513.5C 382.755,517.2 381.755,521.2 381.5,525.5C 376.998,548.343 373.332,571.343 370.5,594.5C 369.105,601.308 368.105,608.308 367.5,615.5C 366.468,622.122 365.801,628.788 365.5,635.5C 363.696,643.263 362.696,651.263 362.5,659.5C 359.484,696.467 356.817,733.467 354.5,770.5C 341.681,750.532 330.681,729.532 321.5,707.5C 304.17,664.509 288.837,620.843 275.5,576.5C 274.739,572.216 273.405,568.216 271.5,564.5C 266.373,546.859 261.373,529.192 256.5,511.5C 256.59,508.848 255.924,506.515 254.5,504.5C 251.49,492.467 248.157,480.467 244.5,468.5C 150.557,631.494 80.3904,804.16 34,986.5C 23.2437,1030.37 15.077,1074.71 9.5,1119.5C 7.89581,1123.9 7.22914,1128.57 7.5,1133.5C 4.12541,1161.89 1.45874,1190.22 -0.5,1218.5C -0.5,812.167 -0.5,405.833 -0.5,-0.5 Z"/></g>
<g><path style="opacity:1" fill="#fefefe" d="M 801.5,-0.5 C 1104.5,-0.5 1407.5,-0.5 1710.5,-0.5C 1710.5,388.833 1710.5,778.167 1710.5,1167.5C 1711.41,1048.13 1700.25,929.797 1677,812.5C 1673.5,797.458 1670,782.458 1666.5,767.5C 1666.71,764.505 1666.04,761.838 1664.5,759.5C 1657.22,727.08 1648.55,695.08 1638.5,663.5C 1637.41,658.216 1635.74,653.216 1633.5,648.5C 1617.71,598.296 1598.88,549.296 1577,501.5C 1572.16,491.155 1566.83,481.155 1561,471.5C 1530.23,533.232 1496.57,593.232 1460,651.5C 1433.11,693.568 1402.61,732.901 1368.5,769.5C 1367.51,764.695 1367.18,759.695 1367.5,754.5C 1372.39,647.959 1369.56,541.625 1359,435.5C 1357.33,420.614 1355.16,405.948 1352.5,391.5C 1352.64,386.586 1351.97,381.919 1350.5,377.5C 1344.01,330.862 1332.51,285.529 1316,241.5C 1307.64,221.108 1296.97,202.108 1284,184.5C 1280.83,181.333 1277.67,178.167 1274.5,175C 1273.55,174.517 1272.55,174.351 1271.5,174.5C 1209.92,285.993 1148.09,397.326 1086,508.5C 1066.01,418.931 1046.35,329.264 1027,239.5C 1007.07,166.433 968.569,105.266 911.5,56C 878.557,30.0277 841.89,11.1943 801.5,-0.5 Z"/></g>
<g><path style="opacity:1" fill="#d16729" d="M 797.5,-0.5 C 798.833,-0.5 800.167,-0.5 801.5,-0.5C 841.89,11.1943 878.557,30.0277 911.5,56C 968.569,105.266 1007.07,166.433 1027,239.5C 1046.35,329.264 1066.01,418.931 1086,508.5C 1148.09,397.326 1209.92,285.993 1271.5,174.5C 1272.55,174.351 1273.55,174.517 1274.5,175C 1277.67,178.167 1280.83,181.333 1284,184.5C 1296.97,202.108 1307.64,221.108 1316,241.5C 1332.51,285.529 1344.01,330.862 1350.5,377.5C 1350.36,382.414 1351.03,387.081 1352.5,391.5C 1355.16,405.948 1357.33,420.614 1359,435.5C 1369.56,541.625 1372.39,647.959 1367.5,754.5C 1366.19,759.68 1366.19,765.014 1367.5,770.5C 1368.11,770.376 1368.44,770.043 1368.5,769.5C 1402.61,732.901 1433.11,693.568 1460,651.5C 1496.57,593.232 1530.23,533.232 1561,471.5C 1566.83,481.155 1572.16,491.155 1577,501.5C 1598.88,549.296 1617.71,598.296 1633.5,648.5C 1634.19,653.915 1635.86,658.915 1638.5,663.5C 1648.55,695.08 1657.22,727.08 1664.5,759.5C 1664.57,762.428 1665.23,765.095 1666.5,767.5C 1670,782.458 1673.5,797.458 1677,812.5C 1700.25,929.797 1711.41,1048.13 1710.5,1167.5C 1710.5,1186.17 1710.5,1204.83 1710.5,1223.5C 1709.18,1233.97 1708.51,1244.64 1708.5,1255.5C 1707,1261.61 1706.34,1267.94 1706.5,1274.5C 1695.78,1395.12 1659.95,1507.45 1599,1611.5C 1550.42,1689.58 1487.59,1753.58 1410.5,1803.5C 1455.01,1736.46 1488.85,1664.13 1512,1586.5C 1515.67,1578.81 1518.67,1570.81 1521,1562.5C 1522.72,1553.22 1524.89,1544.22 1527.5,1535.5C 1552.19,1512.31 1570.02,1484.64 1581,1452.5C 1586.7,1435.28 1590.37,1417.62 1592,1399.5C 1592.82,1394.32 1592.65,1389.32 1591.5,1384.5C 1604.6,1370.65 1613.26,1354.32 1617.5,1335.5C 1619.02,1330.25 1619.69,1324.75 1619.5,1319C 1619.5,1314.98 1619.17,1311.15 1618.5,1307.5C 1616.57,1293.2 1611.4,1280.2 1603,1268.5C 1592.95,1255.28 1581.11,1243.95 1567.5,1234.5C 1569.26,1231.3 1570.09,1227.63 1570,1223.5C 1570.65,1166.83 1570.32,1110.16 1569,1053.5C 1567.25,1019.52 1565.92,985.517 1565,951.5C 1561.37,907.2 1558.37,862.867 1556,818.5C 1551.25,770.416 1545.92,722.416 1540,674.5C 1539.75,673.376 1539.25,672.376 1538.5,671.5C 1533.86,682.039 1528.36,692.039 1522,701.5C 1520.95,707.359 1518.28,712.359 1514,716.5C 1508.59,726.994 1502.92,737.327 1497,747.5C 1494.82,751.188 1492.15,754.521 1489,757.5C 1486.93,761.97 1484.6,766.303 1482,770.5C 1475.38,779.786 1468.38,788.786 1461,797.5C 1457.01,803.827 1453.01,810.161 1449,816.5C 1446.14,818.537 1443.97,821.204 1442.5,824.5C 1441.68,825.386 1440.68,825.719 1439.5,825.5C 1439.66,826.873 1439.49,828.207 1439,829.5C 1433.58,836.155 1427.91,842.488 1422,848.5C 1420.12,850.527 1418.95,852.86 1418.5,855.5C 1416.57,855.729 1414.9,856.562 1413.5,858C 1406.29,865.215 1399.79,873.049 1394,881.5C 1389.14,884.361 1385.31,888.194 1382.5,893C 1368.65,905.432 1354.99,918.099 1341.5,931C 1332.51,937.172 1323.84,943.839 1315.5,951C 1312.04,952.051 1309.37,954.051 1307.5,957C 1306.55,957.483 1305.55,957.649 1304.5,957.5C 1306.7,899.532 1308.37,841.532 1309.5,783.5C 1310.05,722.35 1307.55,661.35 1302,600.5C 1297.52,571.686 1293.52,542.686 1290,513.5C 1287.11,506.153 1285.45,498.486 1285,490.5C 1281.32,476.736 1277.32,463.069 1273,449.5C 1268.51,437.586 1262.68,426.586 1255.5,416.5C 1250.41,416.761 1247.58,419.761 1247,425.5C 1239.29,434.543 1231.96,443.876 1225,453.5C 1223.63,456.991 1222.13,460.325 1220.5,463.5C 1218.41,463.561 1216.91,464.561 1216,466.5C 1179.24,519.87 1141.91,572.537 1104,624.5C 1103.55,628.117 1101.72,630.784 1098.5,632.5C 1096.98,634.662 1095.98,636.995 1095.5,639.5C 1094.32,639.281 1093.32,639.614 1092.5,640.5C 1085.31,650.163 1078.81,660.163 1073,670.5C 1068.41,676.683 1063.57,682.683 1058.5,688.5C 1056.69,693.815 1053.52,698.148 1049,701.5C 1047.26,704.397 1045.76,707.397 1044.5,710.5C 1032.13,725.962 1020.8,741.962 1010.5,758.5C 1009.68,759.386 1008.68,759.719 1007.5,759.5C 999.324,685.789 991.491,612.122 984,538.5C 984.276,512.036 982.61,485.703 979,459.5C 973.518,404.154 959.851,351.154 938,300.5C 933.433,293.135 929.433,285.468 926,277.5C 919.364,267.521 912.697,257.521 906,247.5C 899.336,240.64 893.003,233.64 887,226.5C 876.178,217.695 865.011,209.195 853.5,201C 846.172,197.668 838.839,194.335 831.5,191C 826.112,189.093 820.612,187.593 815,186.5C 814.167,186.833 813.333,187.167 812.5,187.5C 811.669,189.58 810.669,191.58 809.5,193.5C 803.264,225.78 795.764,257.78 787,289.5C 784.591,305.803 780.924,321.803 776,337.5C 773.607,351.986 770.274,366.319 766,380.5C 759.434,412.263 752.434,443.93 745,475.5C 743.638,483.533 742.305,491.533 741,499.5C 734.539,525.68 728.539,552.013 723,578.5C 718.528,600.059 714.528,621.726 711,643.5C 710.46,646.361 709.46,649.028 708,651.5C 706.812,650.437 706.312,649.103 706.5,647.5C 705.5,647.5 704.5,647.5 703.5,647.5C 686.71,631.398 668.377,617.065 648.5,604.5C 634.794,598.684 621.127,593.351 607.5,588.5C 598.569,575.628 589.403,562.962 580,550.5C 549.24,501.36 523.74,449.694 503.5,395.5C 503.167,395.667 502.833,395.833 502.5,396C 501.363,398.457 499.863,400.624 498,402.5C 491.677,422.487 486.343,442.821 482,463.5C 479.421,486.564 476.421,509.564 473,532.5C 472.171,574.185 472.671,615.852 474.5,657.5C 463.982,682.445 460.482,708.445 464,735.5C 467.287,766.5 474.787,796.166 486.5,824.5C 491.103,834.708 495.436,845.041 499.5,855.5C 479.942,853.261 461.275,856.094 443.5,864C 428.991,873.17 420.657,886.337 418.5,903.5C 417.834,906.689 417.167,910.023 416.5,913.5C 393.991,905.257 372.658,894.924 352.5,882.5C 351.614,881.675 351.281,880.675 351.5,879.5C 350.127,879.657 348.793,879.49 347.5,879C 345.403,876.447 343.07,874.114 340.5,872C 339.128,871.598 337.795,871.098 336.5,870.5C 328.293,863.127 320.293,855.461 312.5,847.5C 310.145,844.307 307.979,840.974 306,837.5C 298.269,831.942 293.103,824.608 290.5,815.5C 289.325,815.719 288.325,815.386 287.5,814.5C 281.334,805.524 276.501,795.857 273,785.5C 270.3,781.78 267.967,777.78 266,773.5C 262.157,761.801 258.157,750.135 254,738.5C 253.064,734.886 252.564,731.22 252.5,727.5C 251.5,727.5 250.5,727.5 249.5,727.5C 239.357,749.054 229.857,771.054 221,793.5C 201.589,844.533 183.922,896.2 168,948.5C 166.054,954.292 164.72,960.292 164,966.5C 163,968.5 162,970.5 161,972.5C 154.629,1001.29 147.629,1029.95 140,1058.5C 133.352,1093.1 127.018,1127.76 121,1162.5C 109.759,1246.55 107.426,1330.88 114,1415.5C 117.177,1440.25 120.844,1464.92 125,1489.5C 129.814,1506.42 134.147,1523.42 138,1540.5C 144.454,1561.03 151.121,1581.37 158,1601.5C 159,1602.5 160,1603.5 161,1604.5C 163.677,1611.87 166.343,1619.2 169,1626.5C 170.665,1628.81 172.331,1631.14 174,1633.5C 176.642,1640.15 179.308,1646.82 182,1653.5C 187.896,1664.68 194.562,1675.34 202,1685.5C 202.406,1688.92 204.072,1691.58 207,1693.5C 211.995,1701.34 216.828,1709.34 221.5,1717.5C 222.833,1718.5 224.167,1719.5 225.5,1720.5C 230.197,1727.68 235.03,1734.68 240,1741.5C 250.867,1753.18 261.367,1765.18 271.5,1777.5C 132.163,1692.04 46.1631,1568.7 13.5,1407.5C 13.7062,1404.5 13.0395,1401.84 11.5,1399.5C 5.46785,1363.28 1.46785,1326.95 -0.5,1290.5C -0.5,1266.5 -0.5,1242.5 -0.5,1218.5C 1.45874,1190.22 4.12541,1161.89 7.5,1133.5C 8.97151,1129.08 9.63818,1124.41 9.5,1119.5C 15.077,1074.71 23.2437,1030.37 34,986.5C 80.3904,804.16 150.557,631.494 244.5,468.5C 248.157,480.467 251.49,492.467 254.5,504.5C 254.41,507.152 255.076,509.485 256.5,511.5C 261.373,529.192 266.373,546.859 271.5,564.5C 271.861,568.915 273.194,572.915 275.5,576.5C 288.837,620.843 304.17,664.509 321.5,707.5C 330.681,729.532 341.681,750.532 354.5,770.5C 356.817,733.467 359.484,696.467 362.5,659.5C 364.217,651.727 365.217,643.727 365.5,635.5C 365.801,628.788 366.468,622.122 367.5,615.5C 368.856,612.423 369.689,609.09 370,605.5C 370.535,607.271 371.369,607.604 372.5,606.5C 370.656,602.783 369.989,598.783 370.5,594.5C 373.332,571.343 376.998,548.343 381.5,525.5C 383.468,521.983 384.468,517.983 384.5,513.5C 386.254,502.039 388.587,490.706 391.5,479.5C 392.315,478.571 393.148,477.571 394,476.5C 394.333,476.833 394.667,477.167 395,477.5C 394.175,472.836 394.341,468.17 395.5,463.5C 397.409,452.948 400.076,442.615 403.5,432.5C 404.924,430.485 405.59,428.152 405.5,425.5C 422.683,362.085 448.85,302.752 484,247.5C 500.129,222.985 519.963,201.818 543.5,184C 544.448,183.517 545.448,183.351 546.5,183.5C 548.705,218.474 553.205,253.141 560,287.5C 568.869,331.314 585.036,371.981 608.5,409.5C 623.954,432.793 643.954,450.96 668.5,464C 670.74,464.977 673.073,465.477 675.5,465.5C 676.152,456.766 677.319,448.099 679,439.5C 695.838,352.799 716.671,267.132 741.5,182.5C 742.924,180.485 743.59,178.152 743.5,175.5C 753.617,137.676 764.95,100.343 777.5,63.5C 779.61,59.4979 780.943,55.1646 781.5,50.5C 786.977,33.6044 792.311,16.6044 797.5,-0.5 Z"/></g>
<g><path style="opacity:1" fill="#e29a71" d="M 781.5,50.5 C 780.943,55.1646 779.61,59.4979 777.5,63.5C 778.057,58.8354 779.39,54.5021 781.5,50.5 Z"/></g>
<g><path style="opacity:1" fill="#e29b70" d="M 743.5,175.5 C 743.59,178.152 742.924,180.485 741.5,182.5C 741.41,179.848 742.076,177.515 743.5,175.5 Z"/></g>
<g><path style="opacity:1" fill="#de7d2d" d="M 1567.5,1234.5 C 1550.07,1223.79 1531.4,1215.79 1511.5,1210.5C 1509.09,1209.23 1506.43,1208.57 1503.5,1208.5C 1495.42,1207.66 1487.42,1206.49 1479.5,1205C 1468.84,1204.5 1458.17,1204.33 1447.5,1204.5C 1443.38,1203.26 1439.05,1202.43 1434.5,1202C 1404.08,1200.7 1373.74,1201.7 1343.5,1205C 1323.39,1208.21 1303.39,1211.87 1283.5,1216C 1261.54,1221.27 1239.87,1227.43 1218.5,1234.5C 1220.09,1228.64 1222.26,1222.98 1225,1217.5C 1228.08,1206.95 1230.58,1196.28 1232.5,1185.5C 1233.27,1184.74 1233.77,1183.74 1234,1182.5C 1234.5,1178.85 1234.67,1175.18 1234.5,1171.5C 1237.38,1138.93 1232.05,1107.93 1218.5,1078.5C 1202.57,1042.36 1176.57,1016.19 1140.5,1000C 1127.53,995.257 1114.2,992.424 1100.5,991.5C 1059.29,919.721 997.625,876.055 915.5,860.5C 900.718,858.484 886.051,856.817 871.5,855.5C 873.362,851.458 875.862,847.792 879,844.5C 883.389,835.802 887.722,827.135 892,818.5C 895.261,807.033 897.927,795.366 900,783.5C 900.785,771.135 900.451,758.802 899,746.5C 896.331,739.162 893.664,731.829 891,724.5C 888.597,722.695 886.93,720.362 886,717.5C 879.719,710.759 872.219,705.593 863.5,702C 848.605,697.808 835.605,700.974 824.5,711.5C 820.833,715.167 817.167,718.833 813.5,722.5C 804.567,734.651 794.9,746.318 784.5,757.5C 775.866,742.356 766.199,727.856 755.5,714C 748.842,713.5 742.175,713.334 735.5,713.5C 741.653,712.672 747.987,712.172 754.5,712C 745.408,697.916 735.575,684.416 725,671.5C 723.333,670.167 721.667,668.833 720,667.5C 715.028,660.364 709.528,653.698 703.5,647.5C 704.5,647.5 705.5,647.5 706.5,647.5C 706.312,649.103 706.812,650.437 708,651.5C 709.46,649.028 710.46,646.361 711,643.5C 714.528,621.726 718.528,600.059 723,578.5C 728.539,552.013 734.539,525.68 741,499.5C 742.305,491.533 743.638,483.533 745,475.5C 752.434,443.93 759.434,412.263 766,380.5C 770.274,366.319 773.607,351.986 776,337.5C 780.924,321.803 784.591,305.803 787,289.5C 795.764,257.78 803.264,225.78 809.5,193.5C 810.669,191.58 811.669,189.58 812.5,187.5C 813.333,187.167 814.167,186.833 815,186.5C 820.612,187.593 826.112,189.093 831.5,191C 838.839,194.335 846.172,197.668 853.5,201C 865.011,209.195 876.178,217.695 887,226.5C 893.003,233.64 899.336,240.64 906,247.5C 912.697,257.521 919.364,267.521 926,277.5C 929.433,285.468 933.433,293.135 938,300.5C 959.851,351.154 973.518,404.154 979,459.5C 982.61,485.703 984.276,512.036 984,538.5C 991.491,612.122 999.324,685.789 1007.5,759.5C 1008.68,759.719 1009.68,759.386 1010.5,758.5C 1020.8,741.962 1032.13,725.962 1044.5,710.5C 1045.76,707.397 1047.26,704.397 1049,701.5C 1053.52,698.148 1056.69,693.815 1058.5,688.5C 1063.57,682.683 1068.41,676.683 1073,670.5C 1078.81,660.163 1085.31,650.163 1092.5,640.5C 1093.32,639.614 1094.32,639.281 1095.5,639.5C 1095.98,636.995 1096.98,634.662 1098.5,632.5C 1101.72,630.784 1103.55,628.117 1104,624.5C 1141.91,572.537 1179.24,519.87 1216,466.5C 1216.91,464.561 1218.41,463.561 1220.5,463.5C 1222.13,460.325 1223.63,456.991 1225,453.5C 1231.96,443.876 1239.29,434.543 1247,425.5C 1247.58,419.761 1250.41,416.761 1255.5,416.5C 1262.68,426.586 1268.51,437.586 1273,449.5C 1277.32,463.069 1281.32,476.736 1285,490.5C 1285.45,498.486 1287.11,506.153 1290,513.5C 1293.52,542.686 1297.52,571.686 1302,600.5C 1307.55,661.35 1310.05,722.35 1309.5,783.5C 1308.37,841.532 1306.7,899.532 1304.5,957.5C 1305.55,957.649 1306.55,957.483 1307.5,957C 1309.37,954.051 1312.04,952.051 1315.5,951C 1323.84,943.839 1332.51,937.172 1341.5,931C 1354.99,918.099 1368.65,905.432 1382.5,893C 1385.31,888.194 1389.14,884.361 1394,881.5C 1399.79,873.049 1406.29,865.215 1413.5,858C 1414.9,856.562 1416.57,855.729 1418.5,855.5C 1418.95,852.86 1420.12,850.527 1422,848.5C 1427.91,842.488 1433.58,836.155 1439,829.5C 1439.49,828.207 1439.66,826.873 1439.5,825.5C 1440.68,825.719 1441.68,825.386 1442.5,824.5C 1443.97,821.204 1446.14,818.537 1449,816.5C 1453.01,810.161 1457.01,803.827 1461,797.5C 1468.38,788.786 1475.38,779.786 1482,770.5C 1484.6,766.303 1486.93,761.97 1489,757.5C 1492.15,754.521 1494.82,751.188 1497,747.5C 1502.92,737.327 1508.59,726.994 1514,716.5C 1518.28,712.359 1520.95,707.359 1522,701.5C 1528.36,692.039 1533.86,682.039 1538.5,671.5C 1539.25,672.376 1539.75,673.376 1540,674.5C 1545.92,722.416 1551.25,770.416 1556,818.5C 1558.37,862.867 1561.37,907.2 1565,951.5C 1565.92,985.517 1567.25,1019.52 1569,1053.5C 1570.32,1110.16 1570.65,1166.83 1570,1223.5C 1570.09,1227.63 1569.26,1231.3 1567.5,1234.5 Z"/></g>
<g><path style="opacity:1" fill="#de8d5c" d="M 1350.5,377.5 C 1351.97,381.919 1352.64,386.586 1352.5,391.5C 1351.03,387.081 1350.36,382.414 1350.5,377.5 Z"/></g>
<g><path style="opacity:1" fill="#de7d2c" d="M 607.5,588.5 C 590.078,586.708 572.745,587.208 555.5,590C 547.229,593.534 538.896,596.867 530.5,600C 522.021,605.075 513.687,610.408 505.5,616C 498.622,623.209 491.789,630.376 485,637.5C 481.769,644.4 478.269,651.067 474.5,657.5C 472.671,615.852 472.171,574.185 473,532.5C 476.421,509.564 479.421,486.564 482,463.5C 486.343,442.821 491.677,422.487 498,402.5C 499.863,400.624 501.363,398.457 502.5,396C 502.833,395.833 503.167,395.667 503.5,395.5C 523.74,449.694 549.24,501.36 580,550.5C 589.403,562.962 598.569,575.628 607.5,588.5 Z"/></g>
<g><path style="opacity:1" fill="#e0996d" d="M 405.5,425.5 C 405.59,428.152 404.924,430.485 403.5,432.5C 403.41,429.848 404.076,427.515 405.5,425.5 Z"/></g>
<g><path style="opacity:1" fill="#d87f4b" d="M 395.5,463.5 C 394.341,468.17 394.175,472.836 395,477.5C 394.667,477.167 394.333,476.833 394,476.5C 393.148,477.571 392.315,478.571 391.5,479.5C 392.215,473.897 393.548,468.564 395.5,463.5 Z"/></g>
<g><path style="opacity:1" fill="#e19b72" d="M 254.5,504.5 C 255.924,506.515 256.59,508.848 256.5,511.5C 255.076,509.485 254.41,507.152 254.5,504.5 Z"/></g>
<g><path style="opacity:1" fill="#db8859" d="M 384.5,513.5 C 384.468,517.983 383.468,521.983 381.5,525.5C 381.755,521.2 382.755,517.2 384.5,513.5 Z"/></g>
<g><path style="opacity:1" fill="#e29b73" d="M 271.5,564.5 C 273.405,568.216 274.739,572.216 275.5,576.5C 273.194,572.915 271.861,568.915 271.5,564.5 Z"/></g>
<g><path style="opacity:1" fill="#eba128" d="M 607.5,588.5 C 621.127,593.351 634.794,598.684 648.5,604.5C 668.377,617.065 686.71,631.398 703.5,647.5C 709.528,653.698 715.028,660.364 720,667.5C 721.667,668.833 723.333,670.167 725,671.5C 735.575,684.416 745.408,697.916 754.5,712C 747.987,712.172 741.653,712.672 735.5,713.5C 692.169,716.397 650.502,726.064 610.5,742.5C 608.033,742.755 606.033,743.755 604.5,745.5C 559.785,763.896 520.452,790.23 486.5,824.5C 474.787,796.166 467.287,766.5 464,735.5C 460.482,708.445 463.982,682.445 474.5,657.5C 478.269,651.067 481.769,644.4 485,637.5C 491.789,630.376 498.622,623.209 505.5,616C 513.687,610.408 522.021,605.075 530.5,600C 538.896,596.867 547.229,593.534 555.5,590C 572.745,587.208 590.078,586.708 607.5,588.5 Z"/></g>
<g><path style="opacity:1" fill="#d9804e" d="M 370.5,594.5 C 369.989,598.783 370.656,602.783 372.5,606.5C 371.369,607.604 370.535,607.271 370,605.5C 369.689,609.09 368.856,612.423 367.5,615.5C 368.105,608.308 369.105,601.308 370.5,594.5 Z"/></g>
<g><path style="opacity:1" fill="#e4a27b" d="M 365.5,635.5 C 365.217,643.727 364.217,651.727 362.5,659.5C 362.696,651.263 363.696,643.263 365.5,635.5 Z"/></g>
<g><path style="opacity:1" fill="#df976c" d="M 1633.5,648.5 C 1635.74,653.216 1637.41,658.216 1638.5,663.5C 1635.86,658.915 1634.19,653.915 1633.5,648.5 Z"/></g>
<g><path style="opacity:1" fill="#eba129" d="M 871.5,855.5 C 848.908,885.585 820.908,909.418 787.5,927C 763.724,939.033 739.391,949.699 714.5,959C 675.586,971.288 635.92,980.288 595.5,986C 579.466,987.685 563.466,989.518 547.5,991.5C 531.076,992.09 514.743,991.257 498.5,989C 489.544,986.792 480.544,984.792 471.5,983C 459.344,978.518 448.844,971.685 440,962.5C 436.41,956.571 432.41,950.905 428,945.5C 426.065,940.585 423.732,935.918 421,931.5C 419.007,922.278 418.173,912.944 418.5,903.5C 420.657,886.337 428.991,873.17 443.5,864C 461.275,856.094 479.942,853.261 499.5,855.5C 503.944,856.813 508.611,857.646 513.5,858C 544.836,860.973 576.169,861.139 607.5,858.5C 613.216,858.773 618.549,857.773 623.5,855.5C 631.701,853.711 639.701,851.211 647.5,848C 695.976,821.784 741.642,791.618 784.5,757.5C 794.9,746.318 804.567,734.651 813.5,722.5C 817.167,718.833 820.833,715.167 824.5,711.5C 835.605,700.974 848.605,697.808 863.5,702C 872.219,705.593 879.719,710.759 886,717.5C 886.93,720.362 888.597,722.695 891,724.5C 893.664,731.829 896.331,739.162 899,746.5C 900.451,758.802 900.785,771.135 900,783.5C 897.927,795.366 895.261,807.033 892,818.5C 887.722,827.135 883.389,835.802 879,844.5C 875.862,847.792 873.362,851.458 871.5,855.5 Z"/></g>
<g><path style="opacity:1" fill="#261c12" d="M 735.5,713.5 C 742.175,713.334 748.842,713.5 755.5,714C 766.199,727.856 775.866,742.356 784.5,757.5C 741.642,791.618 695.976,821.784 647.5,848C 639.701,851.211 631.701,853.711 623.5,855.5C 617.939,855.956 612.606,856.956 607.5,858.5C 576.169,861.139 544.836,860.973 513.5,858C 508.611,857.646 503.944,856.813 499.5,855.5C 495.436,845.041 491.103,834.708 486.5,824.5C 520.452,790.23 559.785,763.896 604.5,745.5C 606.967,745.245 608.967,744.245 610.5,742.5C 650.502,726.064 692.169,716.397 735.5,713.5 Z"/></g>
<g><path style="opacity:1" fill="#de7d2c" d="M 418.5,903.5 C 418.173,912.944 419.007,922.278 421,931.5C 423.732,935.918 426.065,940.585 428,945.5C 432.41,950.905 436.41,956.571 440,962.5C 448.844,971.685 459.344,978.518 471.5,983C 480.544,984.792 489.544,986.792 498.5,989C 514.743,991.257 531.076,992.09 547.5,991.5C 529.467,1014.88 514.467,1040.21 502.5,1067.5C 436.815,1119.69 378.649,1179.35 328,1246.5C 295.529,1289.76 269.529,1336.76 250,1387.5C 232.093,1437.1 226.76,1488.1 234,1540.5C 248.892,1619.89 296.059,1651.22 375.5,1634.5C 376.043,1634.56 376.376,1634.89 376.5,1635.5C 374.27,1646.15 372.103,1656.82 370,1667.5C 352.3,1698.23 337.3,1730.23 325,1763.5C 321.619,1776.6 318.452,1789.6 315.5,1802.5C 300.315,1794.96 285.648,1786.63 271.5,1777.5C 261.367,1765.18 250.867,1753.18 240,1741.5C 235.03,1734.68 230.197,1727.68 225.5,1720.5C 224.167,1719.5 222.833,1718.5 221.5,1717.5C 216.828,1709.34 211.995,1701.34 207,1693.5C 204.072,1691.58 202.406,1688.92 202,1685.5C 194.562,1675.34 187.896,1664.68 182,1653.5C 179.308,1646.82 176.642,1640.15 174,1633.5C 172.331,1631.14 170.665,1628.81 169,1626.5C 166.343,1619.2 163.677,1611.87 161,1604.5C 160,1603.5 159,1602.5 158,1601.5C 151.121,1581.37 144.454,1561.03 138,1540.5C 134.147,1523.42 129.814,1506.42 125,1489.5C 120.844,1464.92 117.177,1440.25 114,1415.5C 107.426,1330.88 109.759,1246.55 121,1162.5C 127.018,1127.76 133.352,1093.1 140,1058.5C 147.629,1029.95 154.629,1001.29 161,972.5C 162,970.5 163,968.5 164,966.5C 164.72,960.292 166.054,954.292 168,948.5C 183.922,896.2 201.589,844.533 221,793.5C 229.857,771.054 239.357,749.054 249.5,727.5C 250.5,727.5 251.5,727.5 252.5,727.5C 252.564,731.22 253.064,734.886 254,738.5C 258.157,750.135 262.157,761.801 266,773.5C 267.967,777.78 270.3,781.78 273,785.5C 276.501,795.857 281.334,805.524 287.5,814.5C 288.325,815.386 289.325,815.719 290.5,815.5C 293.103,824.608 298.269,831.942 306,837.5C 307.979,840.974 310.145,844.307 312.5,847.5C 320.293,855.461 328.293,863.127 336.5,870.5C 337.795,871.098 339.128,871.598 340.5,872C 343.07,874.114 345.403,876.447 347.5,879C 348.793,879.49 350.127,879.657 351.5,879.5C 351.281,880.675 351.614,881.675 352.5,882.5C 372.658,894.924 393.991,905.257 416.5,913.5C 417.167,910.023 417.834,906.689 418.5,903.5 Z"/></g>
<g><path style="opacity:1" fill="#5d3f19" d="M 610.5,742.5 C 608.967,744.245 606.967,745.245 604.5,745.5C 606.033,743.755 608.033,742.755 610.5,742.5 Z"/></g>
<g><path style="opacity:1" fill="#e6a984" d="M 1367.5,754.5 C 1367.18,759.695 1367.51,764.695 1368.5,769.5C 1368.44,770.043 1368.11,770.376 1367.5,770.5C 1366.19,765.014 1366.19,759.68 1367.5,754.5 Z"/></g>
<g><path style="opacity:1" fill="#e49d7a" d="M 1664.5,759.5 C 1666.04,761.838 1666.71,764.505 1666.5,767.5C 1665.23,765.095 1664.57,762.428 1664.5,759.5 Z"/></g>
<g><path style="opacity:1" fill="#be8128" d="M 623.5,855.5 C 618.549,857.773 613.216,858.773 607.5,858.5C 612.606,856.956 617.939,855.956 623.5,855.5 Z"/></g>
<g><path style="opacity:1" fill="#f8ce5f" d="M 871.5,855.5 C 886.051,856.817 900.718,858.484 915.5,860.5C 997.625,876.055 1059.29,919.721 1100.5,991.5C 1067.76,989.915 1038.76,999.415 1013.5,1020C 983.01,1046.47 964.01,1079.64 956.5,1119.5C 954.896,1123.9 954.229,1128.57 954.5,1133.5C 953.54,1145.78 953.206,1158.12 953.5,1170.5C 953.45,1177.79 954.45,1184.79 956.5,1191.5C 964.917,1235.23 986.584,1270.4 1021.5,1297C 1031.58,1303.13 1042.08,1308.3 1053,1312.5C 1065.75,1304.9 1078.58,1297.57 1091.5,1290.5C 1131.78,1267.2 1174.11,1248.53 1218.5,1234.5C 1239.87,1227.43 1261.54,1221.27 1283.5,1216C 1303.39,1211.87 1323.39,1208.21 1343.5,1205C 1373.74,1201.7 1404.08,1200.7 1434.5,1202C 1439.05,1202.43 1443.38,1203.26 1447.5,1204.5C 1445.44,1204.52 1443.44,1204.85 1441.5,1205.5C 1435.18,1205.4 1429.18,1206.4 1423.5,1208.5C 1382.14,1214.42 1348.31,1233.42 1322,1265.5C 1315.54,1274.73 1310.7,1284.73 1307.5,1295.5C 1305.04,1299.74 1304.04,1304.4 1304.5,1309.5C 1302.86,1346.06 1316.52,1375.56 1345.5,1398C 1366.23,1414.19 1389.56,1424.69 1415.5,1429.5C 1417.84,1431.04 1420.5,1431.71 1423.5,1431.5C 1444.07,1434.66 1464.73,1435.33 1485.5,1433.5C 1490.86,1433.33 1496.19,1432.83 1501.5,1432C 1502.42,1431.72 1503.08,1431.22 1503.5,1430.5C 1531.01,1424.74 1556.01,1413.57 1578.5,1397C 1583.29,1393.28 1587.63,1389.11 1591.5,1384.5C 1592.65,1389.32 1592.82,1394.32 1592,1399.5C 1590.37,1417.62 1586.7,1435.28 1581,1452.5C 1570.02,1484.64 1552.19,1512.31 1527.5,1535.5C 1504.01,1554.85 1477.35,1568.01 1447.5,1575C 1405.13,1583.11 1362.46,1584.77 1319.5,1580C 1278.17,1575.27 1237.17,1568.6 1196.5,1560C 1195.19,1559.02 1194.19,1557.85 1193.5,1556.5C 1177.61,1552.08 1161.61,1547.58 1145.5,1543C 1114.95,1533.73 1087.28,1519.23 1062.5,1499.5C 1061.27,1498.35 1061.27,1497.18 1062.5,1496C 1079.36,1483.8 1095.19,1470.3 1110,1455.5C 1117.64,1444.78 1114.81,1440.28 1101.5,1442C 1072.46,1473.52 1037.79,1496.52 997.5,1511C 993.527,1512.03 989.527,1512.86 985.5,1513.5C 984.611,1515.91 983.945,1518.41 983.5,1521C 983.167,1523.67 984.167,1525.67 986.5,1527C 1009.72,1526.54 1030.72,1519.37 1049.5,1505.5C 1072.78,1525.93 1098.78,1542.1 1127.5,1554C 1143.16,1557.39 1158.83,1560.55 1174.5,1563.5C 1174.08,1572.91 1174.58,1582.25 1176,1591.5C 1200.66,1639.42 1222.33,1688.75 1241,1739.5C 1249.89,1766.41 1257.23,1793.74 1263,1821.5C 1265.13,1838.43 1265.97,1855.43 1265.5,1872.5C 1192.36,1897.26 1117.02,1911.93 1039.5,1916.5C 1023.33,1917.18 1007.33,1918.18 991.5,1919.5C 951.5,1919.5 911.5,1919.5 871.5,1919.5C 859.678,1918.5 847.678,1918.17 835.5,1918.5C 824.694,1917.14 813.694,1916.47 802.5,1916.5C 775.446,1915.22 748.446,1913.22 721.5,1910.5C 715.726,1909.05 709.726,1908.39 703.5,1908.5C 615.014,1899.54 528.347,1882.04 443.5,1856C 399.301,1841.73 356.635,1823.9 315.5,1802.5C 318.452,1789.6 321.619,1776.6 325,1763.5C 337.3,1730.23 352.3,1698.23 370,1667.5C 372.103,1656.82 374.27,1646.15 376.5,1635.5C 376.376,1634.89 376.043,1634.56 375.5,1634.5C 381.289,1632.55 387.289,1630.88 393.5,1629.5C 398.703,1628.99 403.37,1627.32 407.5,1624.5C 419.043,1620.15 430.376,1615.32 441.5,1610C 458.663,1590.84 473.496,1570 486,1547.5C 497.867,1524.45 508.034,1500.78 516.5,1476.5C 518.61,1472.5 519.943,1468.16 520.5,1463.5C 521.015,1461.11 521.681,1458.77 522.5,1456.5C 523.924,1454.49 524.59,1452.15 524.5,1449.5C 540.467,1384.74 545.634,1319.07 540,1252.5C 538.237,1232.06 535.737,1211.73 532.5,1191.5C 532.956,1186.39 531.956,1181.73 529.5,1177.5C 526.455,1158.65 522.455,1139.98 517.5,1121.5C 517.277,1117.84 516.277,1114.5 514.5,1111.5C 512.211,1101.38 509.544,1091.38 506.5,1081.5C 506.072,1078.22 505.072,1075.22 503.5,1072.5C 503.371,1070.78 503.038,1069.12 502.5,1067.5C 514.467,1040.21 529.467,1014.88 547.5,991.5C 563.466,989.518 579.466,987.685 595.5,986C 635.92,980.288 675.586,971.288 714.5,959C 739.391,949.699 763.724,939.033 787.5,927C 820.908,909.418 848.908,885.585 871.5,855.5 Z"/></g>
<g><path style="opacity:1" fill="#fdfefd" d="M 1100.5,991.5 C 1114.2,992.424 1127.53,995.257 1140.5,1000C 1176.57,1016.19 1202.57,1042.36 1218.5,1078.5C 1194.32,1048.94 1163.99,1040.11 1127.5,1052C 1104.8,1063.37 1087.3,1080.2 1075,1102.5C 1050.78,1149.12 1046.78,1197.45 1063,1247.5C 1069.52,1263.89 1079.02,1278.22 1091.5,1290.5C 1078.58,1297.57 1065.75,1304.9 1053,1312.5C 1042.08,1308.3 1031.58,1303.13 1021.5,1297C 986.584,1270.4 964.917,1235.23 956.5,1191.5C 955.948,1184.3 954.948,1177.3 953.5,1170.5C 953.206,1158.12 953.54,1145.78 954.5,1133.5C 955.972,1129.08 956.638,1124.41 956.5,1119.5C 964.01,1079.64 983.01,1046.47 1013.5,1020C 1038.76,999.415 1067.76,989.915 1100.5,991.5 Z"/></g>
<g><path style="opacity:1" fill="#261c12" d="M 1218.5,1078.5 C 1232.05,1107.93 1237.38,1138.93 1234.5,1171.5C 1233.2,1175.94 1232.53,1180.61 1232.5,1185.5C 1230.58,1196.28 1228.08,1206.95 1225,1217.5C 1222.26,1222.98 1220.09,1228.64 1218.5,1234.5C 1174.11,1248.53 1131.78,1267.2 1091.5,1290.5C 1079.02,1278.22 1069.52,1263.89 1063,1247.5C 1046.78,1197.45 1050.78,1149.12 1075,1102.5C 1087.3,1080.2 1104.8,1063.37 1127.5,1052C 1163.99,1040.11 1194.32,1048.94 1218.5,1078.5 Z"/></g>
<g><path style="opacity:1" fill="#261c12" d="M 502.5,1067.5 C 503.038,1069.12 503.371,1070.78 503.5,1072.5C 503.528,1075.92 504.528,1078.92 506.5,1081.5C 509.544,1091.38 512.211,1101.38 514.5,1111.5C 514.723,1115.16 515.723,1118.5 517.5,1121.5C 522.455,1139.98 526.455,1158.65 529.5,1177.5C 530.216,1182.35 531.216,1187.02 532.5,1191.5C 535.737,1211.73 538.237,1232.06 540,1252.5C 545.634,1319.07 540.467,1384.74 524.5,1449.5C 523.076,1451.51 522.41,1453.85 522.5,1456.5C 521.681,1458.77 521.015,1461.11 520.5,1463.5C 518.39,1467.5 517.057,1471.84 516.5,1476.5C 508.034,1500.78 497.867,1524.45 486,1547.5C 473.496,1570 458.663,1590.84 441.5,1610C 430.376,1615.32 419.043,1620.15 407.5,1624.5C 402.607,1625.8 397.94,1627.46 393.5,1629.5C 387.289,1630.88 381.289,1632.55 375.5,1634.5C 296.059,1651.22 248.892,1619.89 234,1540.5C 226.76,1488.1 232.093,1437.1 250,1387.5C 269.529,1336.76 295.529,1289.76 328,1246.5C 378.649,1179.35 436.815,1119.69 502.5,1067.5 Z"/></g>
<g><path style="opacity:1" fill="#72592d" d="M 503.5,1072.5 C 505.072,1075.22 506.072,1078.22 506.5,1081.5C 504.528,1078.92 503.528,1075.92 503.5,1072.5 Z"/></g>
<g><path style="opacity:1" fill="#fdfefd" d="M 607.5,1311.5 C 606.949,1304.96 605.949,1298.63 604.5,1292.5C 599.079,1241.2 609.579,1193.53 636,1149.5C 654.24,1121.6 678.406,1100.43 708.5,1086C 761.573,1066.94 809.573,1075.61 852.5,1112C 895.937,1154.42 917.27,1206.25 916.5,1267.5C 916.909,1327.16 896.243,1377.99 854.5,1420C 810.3,1458.8 760.633,1467.8 705.5,1447C 674.62,1431.79 650.454,1409.29 633,1379.5C 620.864,1358.22 612.364,1335.56 607.5,1311.5 Z"/></g>
<g><path style="opacity:1" fill="#644b29" d="M 514.5,1111.5 C 516.277,1114.5 517.277,1117.84 517.5,1121.5C 515.723,1118.5 514.723,1115.16 514.5,1111.5 Z"/></g>
<g><path style="opacity:1" fill="#fcefca" d="M 956.5,1119.5 C 956.638,1124.41 955.972,1129.08 954.5,1133.5C 954.229,1128.57 954.896,1123.9 956.5,1119.5 Z"/></g>
<g><path style="opacity:1" fill="#df9469" d="M 9.5,1119.5 C 9.63818,1124.41 8.97151,1129.08 7.5,1133.5C 7.22914,1128.57 7.89581,1123.9 9.5,1119.5 Z"/></g>
<g><path style="opacity:1" fill="#261c12" d="M 854.5,1228.5 C 854.41,1231.15 855.076,1233.49 856.5,1235.5C 856.5,1236.17 856.5,1236.83 856.5,1237.5C 857.811,1250.17 857.811,1262.84 856.5,1275.5C 856.5,1275.83 856.5,1276.17 856.5,1276.5C 855.343,1279.27 854.676,1282.27 854.5,1285.5C 848.436,1317.82 831.769,1342.99 804.5,1361C 796.639,1365.45 788.305,1368.62 779.5,1370.5C 771.534,1371.36 763.534,1371.7 755.5,1371.5C 732.575,1369.29 713.741,1359.29 699,1341.5C 685.598,1325.03 676.764,1306.36 672.5,1285.5C 671.913,1279.96 670.913,1274.63 669.5,1269.5C 666.694,1234.44 675.861,1203.11 697,1175.5C 732.978,1136.53 772.811,1132.03 816.5,1162C 836.825,1179.82 849.491,1201.99 854.5,1228.5 Z"/></g>
<g><path style="opacity:1" fill="#f9e29e" d="M 953.5,1170.5 C 954.948,1177.3 955.948,1184.3 956.5,1191.5C 954.45,1184.79 953.45,1177.79 953.5,1170.5 Z"/></g>
<g><path style="opacity:1" fill="#a56129" d="M 1234.5,1171.5 C 1234.67,1175.18 1234.5,1178.85 1234,1182.5C 1233.77,1183.74 1233.27,1184.74 1232.5,1185.5C 1232.53,1180.61 1233.2,1175.94 1234.5,1171.5 Z"/></g>
<g><path style="opacity:1" fill="#c19e4a" d="M 529.5,1177.5 C 531.956,1181.73 532.956,1186.39 532.5,1191.5C 531.216,1187.02 530.216,1182.35 529.5,1177.5 Z"/></g>
<g><path style="opacity:1" fill="#261c12" d="M 1447.5,1204.5 C 1458.17,1204.33 1468.84,1204.5 1479.5,1205C 1487.42,1206.49 1495.42,1207.66 1503.5,1208.5C 1505.84,1210.04 1508.5,1210.71 1511.5,1210.5C 1531.4,1215.79 1550.07,1223.79 1567.5,1234.5C 1581.11,1243.95 1592.95,1255.28 1603,1268.5C 1611.4,1280.2 1616.57,1293.2 1618.5,1307.5C 1618.57,1316.85 1618.23,1326.18 1617.5,1335.5C 1613.26,1354.32 1604.6,1370.65 1591.5,1384.5C 1587.63,1389.11 1583.29,1393.28 1578.5,1397C 1556.01,1413.57 1531.01,1424.74 1503.5,1430.5C 1497.31,1431.14 1491.31,1432.14 1485.5,1433.5C 1464.73,1435.33 1444.07,1434.66 1423.5,1431.5C 1421.09,1430.23 1418.43,1429.57 1415.5,1429.5C 1389.56,1424.69 1366.23,1414.19 1345.5,1398C 1316.52,1375.56 1302.86,1346.06 1304.5,1309.5C 1305.49,1304.95 1306.49,1300.28 1307.5,1295.5C 1310.7,1284.73 1315.54,1274.73 1322,1265.5C 1348.31,1233.42 1382.14,1214.42 1423.5,1208.5C 1429.69,1207.86 1435.69,1206.86 1441.5,1205.5C 1443.44,1204.85 1445.44,1204.52 1447.5,1204.5 Z"/></g>
<g><path style="opacity:1" fill="#69552a" d="M 1441.5,1205.5 C 1435.69,1206.86 1429.69,1207.86 1423.5,1208.5C 1429.18,1206.4 1435.18,1205.4 1441.5,1205.5 Z"/></g>
<g><path style="opacity:1" fill="#975a24" d="M 1503.5,1208.5 C 1506.43,1208.57 1509.09,1209.23 1511.5,1210.5C 1508.5,1210.71 1505.84,1210.04 1503.5,1208.5 Z"/></g>
<g><path style="opacity:1" fill="#97948f" d="M 854.5,1228.5 C 855.924,1230.51 856.59,1232.85 856.5,1235.5C 855.076,1233.49 854.41,1231.15 854.5,1228.5 Z"/></g>
<g><path style="opacity:1" fill="#fefefe" d="M 1710.5,1223.5 C 1710.5,1455.5 1710.5,1687.5 1710.5,1919.5C 1484.17,1919.5 1257.83,1919.5 1031.5,1919.5C 1033.86,1917.9 1036.52,1916.9 1039.5,1916.5C 1117.02,1911.93 1192.36,1897.26 1265.5,1872.5C 1317.17,1856.16 1365.51,1833.16 1410.5,1803.5C 1487.59,1753.58 1550.42,1689.58 1599,1611.5C 1659.95,1507.45 1695.78,1395.12 1706.5,1274.5C 1707.88,1268.38 1708.55,1262.05 1708.5,1255.5C 1708.51,1244.64 1709.18,1233.97 1710.5,1223.5 Z"/></g>
<g><path style="opacity:1" fill="#d8d7d4" d="M 856.5,1237.5 C 857.29,1238.61 857.79,1239.94 858,1241.5C 858.667,1251.83 858.667,1262.17 858,1272.5C 857.768,1273.74 857.268,1274.74 856.5,1275.5C 857.811,1262.84 857.811,1250.17 856.5,1237.5 Z"/></g>
<g><path style="opacity:1" fill="#eec3ac" d="M 1708.5,1255.5 C 1708.55,1262.05 1707.88,1268.38 1706.5,1274.5C 1706.34,1267.94 1707,1261.61 1708.5,1255.5 Z"/></g>
<g><path style="opacity:1" fill="#a39e99" d="M 669.5,1269.5 C 670.913,1274.63 671.913,1279.96 672.5,1285.5C 670.227,1280.55 669.227,1275.22 669.5,1269.5 Z"/></g>
<g><path style="opacity:1" fill="#a9a6a3" d="M 856.5,1276.5 C 856.664,1279.19 856.497,1281.85 856,1284.5C 855.617,1285.06 855.117,1285.39 854.5,1285.5C 854.676,1282.27 855.343,1279.27 856.5,1276.5 Z"/></g>
<g><path style="opacity:1" fill="#fbde95" d="M 604.5,1292.5 C 605.949,1298.63 606.949,1304.96 607.5,1311.5C 605.127,1305.51 604.127,1299.18 604.5,1292.5 Z"/></g>
<g><path style="opacity:1" fill="#72592d" d="M 1307.5,1295.5 C 1306.49,1300.28 1305.49,1304.95 1304.5,1309.5C 1304.04,1304.4 1305.04,1299.74 1307.5,1295.5 Z"/></g>
<g><path style="opacity:1" fill="#fefefe" d="M -0.5,1290.5 C 1.46785,1326.95 5.46785,1363.28 11.5,1399.5C 11.5651,1402.43 12.2318,1405.09 13.5,1407.5C 46.1631,1568.7 132.163,1692.04 271.5,1777.5C 285.648,1786.63 300.315,1794.96 315.5,1802.5C 356.635,1823.9 399.301,1841.73 443.5,1856C 528.347,1882.04 615.014,1899.54 703.5,1908.5C 709.288,1909.81 715.288,1910.48 721.5,1910.5C 748.446,1913.22 775.446,1915.22 802.5,1916.5C 813.294,1918.06 824.294,1918.72 835.5,1918.5C 847.678,1918.17 859.678,1918.5 871.5,1919.5C 580.833,1919.5 290.167,1919.5 -0.5,1919.5C -0.5,1709.83 -0.5,1500.17 -0.5,1290.5 Z"/></g>
<g><path style="opacity:1" fill="#763d1d" d="M 1618.5,1307.5 C 1619.17,1311.15 1619.5,1314.98 1619.5,1319C 1619.69,1324.75 1619.02,1330.25 1617.5,1335.5C 1618.23,1326.18 1618.57,1316.85 1618.5,1307.5 Z"/></g>
<g><path style="opacity:1" fill="#8c8782" d="M 779.5,1370.5 C 778.737,1371.27 777.737,1371.77 776.5,1372C 769.321,1372.82 762.321,1372.65 755.5,1371.5C 763.534,1371.7 771.534,1371.36 779.5,1370.5 Z"/></g>
<g><path style="opacity:1" fill="#eec2a7" d="M 11.5,1399.5 C 13.0395,1401.84 13.7062,1404.5 13.5,1407.5C 12.2318,1405.09 11.5651,1402.43 11.5,1399.5 Z"/></g>
<g><path style="opacity:1" fill="#8c7138" d="M 1415.5,1429.5 C 1418.43,1429.57 1421.09,1430.23 1423.5,1431.5C 1420.5,1431.71 1417.84,1431.04 1415.5,1429.5 Z"/></g>
<g><path style="opacity:1" fill="#c09f4a" d="M 1503.5,1430.5 C 1503.08,1431.22 1502.42,1431.72 1501.5,1432C 1496.19,1432.83 1490.86,1433.33 1485.5,1433.5C 1491.31,1432.14 1497.31,1431.14 1503.5,1430.5 Z"/></g>
<g><path style="opacity:1" fill="#ad8d41" d="M 524.5,1449.5 C 524.59,1452.15 523.924,1454.49 522.5,1456.5C 522.41,1453.85 523.076,1451.51 524.5,1449.5 Z"/></g>
<g><path style="opacity:1" fill="#ab8d45" d="M 520.5,1463.5 C 519.943,1468.16 518.61,1472.5 516.5,1476.5C 517.057,1471.84 518.39,1467.5 520.5,1463.5 Z"/></g>
<g><path style="opacity:1" fill="#281e13" d="M 1193.5,1556.5 C 1193.77,1558.82 1193.1,1560.82 1191.5,1562.5C 1185.87,1563.5 1180.21,1563.83 1174.5,1563.5C 1158.83,1560.55 1143.16,1557.39 1127.5,1554C 1098.78,1542.1 1072.78,1525.93 1049.5,1505.5C 1030.72,1519.37 1009.72,1526.54 986.5,1527C 984.167,1525.67 983.167,1523.67 983.5,1521C 983.945,1518.41 984.611,1515.91 985.5,1513.5C 989.527,1512.86 993.527,1512.03 997.5,1511C 1037.79,1496.52 1072.46,1473.52 1101.5,1442C 1114.81,1440.28 1117.64,1444.78 1110,1455.5C 1095.19,1470.3 1079.36,1483.8 1062.5,1496C 1061.27,1497.18 1061.27,1498.35 1062.5,1499.5C 1087.28,1519.23 1114.95,1533.73 1145.5,1543C 1161.61,1547.58 1177.61,1552.08 1193.5,1556.5 Z"/></g>
<g><path style="opacity:1" fill="#df7e2d" d="M 1527.5,1535.5 C 1524.89,1544.22 1522.72,1553.22 1521,1562.5C 1518.67,1570.81 1515.67,1578.81 1512,1586.5C 1488.85,1664.13 1455.01,1736.46 1410.5,1803.5C 1365.51,1833.16 1317.17,1856.16 1265.5,1872.5C 1265.97,1855.43 1265.13,1838.43 1263,1821.5C 1257.23,1793.74 1249.89,1766.41 1241,1739.5C 1222.33,1688.75 1200.66,1639.42 1176,1591.5C 1174.58,1582.25 1174.08,1572.91 1174.5,1563.5C 1180.21,1563.83 1185.87,1563.5 1191.5,1562.5C 1193.1,1560.82 1193.77,1558.82 1193.5,1556.5C 1194.19,1557.85 1195.19,1559.02 1196.5,1560C 1237.17,1568.6 1278.17,1575.27 1319.5,1580C 1362.46,1584.77 1405.13,1583.11 1447.5,1575C 1477.35,1568.01 1504.01,1554.85 1527.5,1535.5 Z"/></g>
<g><path style="opacity:1" fill="#c2a34c" d="M 407.5,1624.5 C 403.37,1627.32 398.703,1628.99 393.5,1629.5C 397.94,1627.46 402.607,1625.8 407.5,1624.5 Z"/></g>
<g><path style="opacity:1" fill="#fae197" d="M 703.5,1908.5 C 709.726,1908.39 715.726,1909.05 721.5,1910.5C 715.288,1910.48 709.288,1909.81 703.5,1908.5 Z"/></g>
<g><path style="opacity:1" fill="#fcedca" d="M 802.5,1916.5 C 813.694,1916.47 824.694,1917.14 835.5,1918.5C 824.294,1918.72 813.294,1918.06 802.5,1916.5 Z"/></g>
<g><path style="opacity:1" fill="#fef5e1" d="M 1039.5,1916.5 C 1036.52,1916.9 1033.86,1917.9 1031.5,1919.5C 1018.17,1919.5 1004.83,1919.5 991.5,1919.5C 1007.33,1918.18 1023.33,1917.18 1039.5,1916.5 Z"/></g>
</svg>
