<?xml version="1.0" encoding="UTF-8"?>
<!DOCTYPE svg PUBLIC "-//W3C//DTD SVG 1.1//EN" "http://www.w3.org/Graphics/SVG/1.1/DTD/svg11.dtd">
<svg xmlns="http://www.w3.org/2000/svg" version="1.1" width="1711px" height="1920px" style="shape-rendering:geometricPrecision; text-rendering:geometricPrecision; image-rendering:optimizeQuality; fill-rule:evenodd; clip-rule:evenodd" xmlns:xlink="http://www.w3.org/1999/xlink">
<g><path style="opacity:1" fill="#fefefe" d="M -0.5,-0.5 C 265.5,-0.5 531.5,-0.5 797.5,-0.5C 758.078,117.181 724.244,236.515 696,357.5C 688.188,393.038 681.021,428.705 674.5,464.5C 674,464.833 673.5,465.167 673,465.5C 654.2,457.058 637.866,445.058 624,429.5C 600.088,399.685 582.421,366.352 571,329.5C 557.292,281.789 548.792,233.122 545.5,183.5C 523.479,199.354 504.646,218.354 489,240.5C 454.748,291.348 428.748,346.348 411,405.5C 388.13,483.048 372.463,562.048 364,642.5C 360.153,684.85 356.819,727.184 354,769.5C 342.11,751.057 331.777,731.723 323,711.5C 292.09,632.882 266.257,552.549 245.5,470.5C 245.167,469.833 244.833,469.167 244.5,468.5C 161.509,613.144 96.6757,765.477 50,925.5C 22.429,1021.42 5.59565,1119.09 -0.5,1218.5C -0.5,812.167 -0.5,405.833 -0.5,-0.5 Z"/></g>
<g><path style="opacity:1" fill="#828282" d="M 797.5,-0.5 C 798.833,-0.5 800.167,-0.5 801.5,-0.5C 886.711,25.2064 950.544,77.2064 993,155.5C 1006.78,181.049 1017.78,207.716 1026,235.5C 1045.68,326.61 1065.68,417.61 1086,508.5C 1148.35,397.135 1210.68,285.801 1273,174.5C 1277.3,177.798 1281.3,181.465 1285,185.5C 1301.28,208.674 1313.95,233.674 1323,260.5C 1335.51,298.718 1344.84,337.718 1351,377.5C 1364.05,468.845 1370.21,560.678 1369.5,653C 1369.53,687.184 1368.86,721.35 1367.5,755.5C 1366.19,760.348 1366.19,765.348 1367.5,770.5C 1368.11,770.376 1368.44,770.043 1368.5,769.5C 1403.6,732.232 1434.76,691.898 1462,648.5C 1497.79,591.277 1530.79,532.277 1561,471.5C 1565.84,479.181 1570.18,487.181 1574,495.5C 1628.86,615.924 1666.86,741.591 1688,872.5C 1703.19,969.037 1710.69,1066.04 1710.5,1163.5C 1710.5,1183.5 1710.5,1203.5 1710.5,1223.5C 1706.37,1314.01 1689.21,1402.01 1659,1487.5C 1625.48,1578.44 1574.98,1658.27 1507.5,1727C 1478.5,1754.97 1447.17,1779.81 1413.5,1801.5C 1412.35,1800.69 1412.35,1799.69 1413.5,1798.5C 1437.41,1762.85 1458.08,1725.35 1475.5,1686C 1480.56,1672.99 1486.06,1660.16 1492,1647.5C 1497.07,1631.28 1502.74,1615.28 1509,1599.5C 1514.92,1578.02 1521.09,1556.69 1527.5,1535.5C 1544.84,1519.32 1559.01,1500.65 1570,1479.5C 1582.99,1450.68 1590.83,1420.51 1593.5,1389C 1593.43,1387.01 1592.76,1385.51 1591.5,1384.5C 1606.07,1369.02 1615.07,1350.69 1618.5,1329.5C 1619.17,1326.02 1619.5,1322.35 1619.5,1318.5C 1619.68,1312.91 1619.02,1307.58 1617.5,1302.5C 1613.06,1283.55 1604.06,1267.05 1590.5,1253C 1583.43,1247.15 1576.43,1241.31 1569.5,1235.5C 1572.48,1052.37 1563.31,869.701 1542,687.5C 1540.91,682.187 1539.91,676.853 1539,671.5C 1527.5,693.843 1515.5,715.843 1503,737.5C 1495.26,748.906 1487.93,760.573 1481,772.5C 1464.04,794.804 1447.38,817.138 1431,839.5C 1406.47,867.552 1380.64,894.718 1353.5,921C 1338.21,932.617 1323.21,944.617 1308.5,957C 1307.21,957.49 1305.87,957.657 1304.5,957.5C 1305.14,924.816 1306.3,892.15 1308,859.5C 1312.13,755.115 1307.8,651.115 1295,547.5C 1292,529.837 1289,512.171 1286,494.5C 1281.77,477.891 1276.77,461.557 1271,445.5C 1267.35,437.932 1263.85,430.265 1260.5,422.5C 1258.49,419.995 1256.33,417.662 1254,415.5C 1251.36,418.479 1248.69,421.479 1246,424.5C 1245.67,425.833 1245.33,427.167 1245,428.5C 1238.78,434.592 1233.78,441.592 1230,449.5C 1221.21,459.298 1213.55,469.965 1207,481.5C 1197.11,493.045 1188.44,505.378 1181,518.5C 1174.22,525.626 1168.56,533.626 1164,542.5C 1154.11,554.371 1145.11,567.038 1137,580.5C 1126.13,593.214 1116.46,606.881 1108,621.5C 1105.38,623.411 1103.21,625.745 1101.5,628.5C 1071.07,673.037 1039.9,717.037 1008,760.5C 999.749,690.911 992.083,621.244 985,551.5C 984.527,479.209 973.86,408.543 953,339.5C 948.477,328.267 944.143,316.934 940,305.5C 935.737,296.397 931.237,287.397 926.5,278.5C 919.608,269.737 913.442,260.404 908,250.5C 902.709,245.904 898.376,240.57 895,234.5C 876.651,216.196 855.485,201.696 831.5,191C 825.094,188.302 818.427,186.468 811.5,185.5C 796.08,257.101 779.58,328.434 762,399.5C 749.311,461.945 735.977,524.278 722,586.5C 717.593,607.426 713.593,628.426 710,649.5C 709.764,651.119 708.931,652.119 707.5,652.5C 685.643,628.476 659.976,609.643 630.5,596C 622.898,593.521 615.232,591.354 607.5,589.5C 598.172,575.993 589.005,562.327 580,548.5C 579,547.833 578,547.167 577,546.5C 564.571,526.647 552.904,506.313 542,485.5C 535.857,472.068 529.524,458.734 523,445.5C 515.758,429.023 509.091,412.356 503,395.5C 500.104,399.833 497.771,404.5 496,409.5C 489.567,431.132 484.234,453.132 480,475.5C 478,492.833 476,510.167 474,527.5C 472.065,570.505 472.232,613.505 474.5,656.5C 464.295,681.853 460.795,708.186 464,735.5C 466.903,760.093 472.236,784.093 480,807.5C 481.745,813.317 484.245,818.65 487.5,823.5C 487.196,824.15 486.863,824.817 486.5,825.5C 491.228,835.359 495.562,845.359 499.5,855.5C 481.645,853.876 464.311,856.043 447.5,862C 426.861,872.76 417.194,889.926 418.5,913.5C 380.548,901.705 347.381,882.038 319,854.5C 310.106,844.392 301.439,834.058 293,823.5C 285.988,812.81 279.488,801.81 273.5,790.5C 267.385,775.938 261.552,761.271 256,746.5C 254.933,739.891 253.1,733.558 250.5,727.5C 246.482,735.892 242.316,744.225 238,752.5C 236.865,756.905 235.532,761.238 234,765.5C 178.179,896.904 140.179,1033.57 120,1175.5C 107.023,1271.89 107.356,1368.22 121,1464.5C 132.95,1533.35 154.617,1598.68 186,1660.5C 202.748,1688.33 220.748,1715.33 240,1741.5C 241.667,1742.83 243.333,1744.17 245,1745.5C 252.639,1755.82 261.139,1765.66 270.5,1775C 269.906,1775.46 269.239,1775.63 268.5,1775.5C 141.634,1697.6 59.1345,1586.26 21,1441.5C 9.16529,1392.14 1.99862,1342.14 -0.5,1291.5C -0.5,1267.17 -0.5,1242.83 -0.5,1218.5C 5.59565,1119.09 22.429,1021.42 50,925.5C 96.6757,765.477 161.509,613.144 244.5,468.5C 244.833,469.167 245.167,469.833 245.5,470.5C 266.257,552.549 292.09,632.882 323,711.5C 331.777,731.723 342.11,751.057 354,769.5C 356.819,727.184 360.153,684.85 364,642.5C 372.463,562.048 388.13,483.048 411,405.5C 428.748,346.348 454.748,291.348 489,240.5C 504.646,218.354 523.479,199.354 545.5,183.5C 548.792,233.122 557.292,281.789 571,329.5C 582.421,366.352 600.088,399.685 624,429.5C 637.866,445.058 654.2,457.058 673,465.5C 673.5,465.167 674,464.833 674.5,464.5C 681.021,428.705 688.188,393.038 696,357.5C 724.244,236.515 758.078,117.181 797.5,-0.5 Z"/></g>
<g><path style="opacity:1" fill="#fefefe" d="M 801.5,-0.5 C 1104.5,-0.5 1407.5,-0.5 1710.5,-0.5C 1710.5,387.5 1710.5,775.5 1710.5,1163.5C 1710.69,1066.04 1703.19,969.037 1688,872.5C 1666.86,741.591 1628.86,615.924 1574,495.5C 1570.18,487.181 1565.84,479.181 1561,471.5C 1530.79,532.277 1497.79,591.277 1462,648.5C 1434.76,691.898 1403.6,732.232 1368.5,769.5C 1367.51,765.03 1367.18,760.363 1367.5,755.5C 1368.86,721.35 1369.53,687.184 1369.5,653C 1370.21,560.678 1364.05,468.845 1351,377.5C 1344.84,337.718 1335.51,298.718 1323,260.5C 1313.95,233.674 1301.28,208.674 1285,185.5C 1281.3,181.465 1277.3,177.798 1273,174.5C 1210.68,285.801 1148.35,397.135 1086,508.5C 1065.68,417.61 1045.68,326.61 1026,235.5C 1017.78,207.716 1006.78,181.049 993,155.5C 950.544,77.2064 886.711,25.2064 801.5,-0.5 Z"/></g>
<g><path style="opacity:1" fill="#959595" d="M 1569.5,1235.5 C 1533.1,1213.15 1493.44,1202.82 1450.5,1204.5C 1435.42,1202.03 1420.09,1201.03 1404.5,1201.5C 1383.75,1201.25 1363.09,1202.42 1342.5,1205C 1321.37,1208.47 1300.37,1212.47 1279.5,1217C 1258.96,1222.28 1238.63,1228.11 1218.5,1234.5C 1226.72,1214.18 1232.06,1193.18 1234.5,1171.5C 1235.42,1159.97 1235.92,1148.3 1236,1136.5C 1235.67,1137.17 1235.33,1137.83 1235,1138.5C 1234.81,1136.29 1234.31,1134.29 1233.5,1132.5C 1231.36,1115.29 1227.19,1098.62 1221,1082.5C 1218.59,1079.99 1216.42,1077.32 1214.5,1074.5C 1215.1,1074.26 1215.43,1073.76 1215.5,1073C 1195.99,1032.58 1164.66,1006.25 1121.5,994C 1114.59,992.419 1107.59,991.586 1100.5,991.5C 1051.57,909.039 978.908,864.039 882.5,856.5C 879.023,855.677 875.356,855.177 871.5,855C 897.074,819.132 905.241,779.632 896,736.5C 890.062,718.228 877.895,706.395 859.5,701C 842.8,698.956 829.134,704.456 818.5,717.5C 807.623,731.276 796.29,744.61 784.5,757.5C 775.474,742.627 765.807,728.127 755.5,714C 749.175,713.5 742.842,713.334 736.5,713.5C 741.316,712.674 746.316,712.174 751.5,712C 752.308,711.692 752.975,711.192 753.5,710.5C 739.896,689.589 724.563,670.256 707.5,652.5C 708.931,652.119 709.764,651.119 710,649.5C 713.593,628.426 717.593,607.426 722,586.5C 735.977,524.278 749.311,461.945 762,399.5C 779.58,328.434 796.08,257.101 811.5,185.5C 818.427,186.468 825.094,188.302 831.5,191C 855.485,201.696 876.651,216.196 895,234.5C 898.376,240.57 902.709,245.904 908,250.5C 913.442,260.404 919.608,269.737 926.5,278.5C 931.237,287.397 935.737,296.397 940,305.5C 944.143,316.934 948.477,328.267 953,339.5C 973.86,408.543 984.527,479.209 985,551.5C 992.083,621.244 999.749,690.911 1008,760.5C 1039.9,717.037 1071.07,673.037 1101.5,628.5C 1103.21,625.745 1105.38,623.411 1108,621.5C 1116.46,606.881 1126.13,593.214 1137,580.5C 1145.11,567.038 1154.11,554.371 1164,542.5C 1168.56,533.626 1174.22,525.626 1181,518.5C 1188.44,505.378 1197.11,493.045 1207,481.5C 1213.55,469.965 1221.21,459.298 1230,449.5C 1233.78,441.592 1238.78,434.592 1245,428.5C 1245.33,427.167 1245.67,425.833 1246,424.5C 1248.69,421.479 1251.36,418.479 1254,415.5C 1256.33,417.662 1258.49,419.995 1260.5,422.5C 1263.85,430.265 1267.35,437.932 1271,445.5C 1276.77,461.557 1281.77,477.891 1286,494.5C 1289,512.171 1292,529.837 1295,547.5C 1307.8,651.115 1312.13,755.115 1308,859.5C 1306.3,892.15 1305.14,924.816 1304.5,957.5C 1305.87,957.657 1307.21,957.49 1308.5,957C 1323.21,944.617 1338.21,932.617 1353.5,921C 1380.64,894.718 1406.47,867.552 1431,839.5C 1447.38,817.138 1464.04,794.804 1481,772.5C 1487.93,760.573 1495.26,748.906 1503,737.5C 1515.5,715.843 1527.5,693.843 1539,671.5C 1539.91,676.853 1540.91,682.187 1542,687.5C 1563.31,869.701 1572.48,1052.37 1569.5,1235.5 Z"/></g>
<g><path style="opacity:1" fill="#959595" d="M 607.5,589.5 C 562.101,583.021 523.601,596.355 492,629.5C 485.692,638.382 479.859,647.382 474.5,656.5C 472.232,613.505 472.065,570.505 474,527.5C 476,510.167 478,492.833 480,475.5C 484.234,453.132 489.567,431.132 496,409.5C 497.771,404.5 500.104,399.833 503,395.5C 509.091,412.356 515.758,429.023 523,445.5C 529.524,458.734 535.857,472.068 542,485.5C 552.904,506.313 564.571,526.647 577,546.5C 578,547.167 579,547.833 580,548.5C 589.005,562.327 598.172,575.993 607.5,589.5 Z"/></g>
<g><path style="opacity:1" fill="#afafaf" d="M 607.5,589.5 C 615.232,591.354 622.898,593.521 630.5,596C 659.976,609.643 685.643,628.476 707.5,652.5C 724.563,670.256 739.896,689.589 753.5,710.5C 752.975,711.192 752.308,711.692 751.5,712C 746.316,712.174 741.316,712.674 736.5,713.5C 639.828,720.027 556.828,756.693 487.5,823.5C 484.245,818.65 481.745,813.317 480,807.5C 472.236,784.093 466.903,760.093 464,735.5C 460.795,708.186 464.295,681.853 474.5,656.5C 479.859,647.382 485.692,638.382 492,629.5C 523.601,596.355 562.101,583.021 607.5,589.5 Z"/></g>
<g><path style="opacity:1" fill="#afafaf" d="M 882.5,856.5 C 878.486,856.334 874.486,856.501 870.5,857C 847.872,886.17 820.206,909.503 787.5,927C 733.222,954.793 675.889,973.459 615.5,983C 593.528,985.928 571.528,988.595 549.5,991C 548.956,991.717 548.289,992.217 547.5,992.5C 547.38,991.414 546.713,990.747 545.5,990.5C 519.462,993.244 494.128,990.411 469.5,982C 454.393,976.222 442.227,966.722 433,953.5C 429.855,946.544 426.189,939.877 422,933.5C 419.855,927.013 418.689,920.346 418.5,913.5C 417.194,889.926 426.861,872.76 447.5,862C 464.311,856.043 481.645,853.876 499.5,855.5C 519.52,859.199 539.853,860.866 560.5,860.5C 585.525,861.332 610.191,858.832 634.5,853C 660.171,842 684.504,828.667 707.5,813C 726.833,799.667 746.167,786.333 765.5,773C 772.31,768.282 778.644,763.116 784.5,757.5C 796.29,744.61 807.623,731.276 818.5,717.5C 829.134,704.456 842.8,698.956 859.5,701C 877.895,706.395 890.062,718.228 896,736.5C 905.241,779.632 897.074,819.132 871.5,855C 875.356,855.177 879.023,855.677 882.5,856.5 Z"/></g>
<g><path style="opacity:1" fill="#191919" d="M 736.5,713.5 C 742.842,713.334 749.175,713.5 755.5,714C 765.807,728.127 775.474,742.627 784.5,757.5C 778.644,763.116 772.31,768.282 765.5,773C 746.167,786.333 726.833,799.667 707.5,813C 684.504,828.667 660.171,842 634.5,853C 610.191,858.832 585.525,861.332 560.5,860.5C 539.853,860.866 519.52,859.199 499.5,855.5C 495.562,845.359 491.228,835.359 486.5,825.5C 486.863,824.817 487.196,824.15 487.5,823.5C 556.828,756.693 639.828,720.027 736.5,713.5 Z"/></g>
<g><path style="opacity:1" fill="#959595" d="M 418.5,913.5 C 418.689,920.346 419.855,927.013 422,933.5C 426.189,939.877 429.855,946.544 433,953.5C 442.227,966.722 454.393,976.222 469.5,982C 494.128,990.411 519.462,993.244 545.5,990.5C 546.713,990.747 547.38,991.414 547.5,992.5C 529.707,1015.67 514.707,1040.67 502.5,1067.5C 425.765,1128.07 359.931,1198.73 305,1279.5C 281.772,1315.29 262.772,1353.29 248,1393.5C 227.834,1449.95 225.167,1507.29 240,1565.5C 248.394,1595.55 266.561,1617.39 294.5,1631C 301.481,1633.03 308.481,1634.86 315.5,1636.5C 321.762,1638.02 328.262,1638.69 335,1638.5C 339.68,1638.5 344.18,1638.17 348.5,1637.5C 358.304,1637.02 367.971,1635.69 377.5,1633.5C 374.776,1645.5 371.943,1657.5 369,1669.5C 349.534,1702.43 333.867,1737.1 322,1773.5C 319.603,1783.27 317.436,1792.93 315.5,1802.5C 303.895,1797.03 292.562,1791.03 281.5,1784.5C 277.275,1781.23 272.941,1778.23 268.5,1775.5C 269.239,1775.63 269.906,1775.46 270.5,1775C 261.139,1765.66 252.639,1755.82 245,1745.5C 243.333,1744.17 241.667,1742.83 240,1741.5C 220.748,1715.33 202.748,1688.33 186,1660.5C 154.617,1598.68 132.95,1533.35 121,1464.5C 107.356,1368.22 107.023,1271.89 120,1175.5C 140.179,1033.57 178.179,896.904 234,765.5C 235.532,761.238 236.865,756.905 238,752.5C 242.316,744.225 246.482,735.892 250.5,727.5C 253.1,733.558 254.933,739.891 256,746.5C 261.552,761.271 267.385,775.938 273.5,790.5C 279.488,801.81 285.988,812.81 293,823.5C 301.439,834.058 310.106,844.392 319,854.5C 347.381,882.038 380.548,901.705 418.5,913.5 Z"/></g>
<g><path style="opacity:1" fill="#bdbdbd" d="M 1367.5,755.5 C 1367.18,760.363 1367.51,765.03 1368.5,769.5C 1368.44,770.043 1368.11,770.376 1367.5,770.5C 1366.19,765.348 1366.19,760.348 1367.5,755.5 Z"/></g>
<g><path style="opacity:1" fill="#d7d7d7" d="M 882.5,856.5 C 978.908,864.039 1051.57,909.039 1100.5,991.5C 1051.9,991.382 1013.4,1011.05 985,1050.5C 951.713,1102.45 944.38,1158.11 963,1217.5C 974.469,1249.96 993.969,1276.46 1021.5,1297C 1030.55,1302.52 1039.88,1307.52 1049.5,1312C 1052.3,1312.75 1054.97,1312.42 1057.5,1311C 1066.67,1304.58 1076.34,1298.91 1086.5,1294C 1088.64,1293.12 1089.97,1291.62 1090.5,1289.5C 1091.15,1289.8 1091.82,1290.14 1092.5,1290.5C 1132.33,1266.92 1174.33,1248.25 1218.5,1234.5C 1238.63,1228.11 1258.96,1222.28 1279.5,1217C 1300.37,1212.47 1321.37,1208.47 1342.5,1205C 1363.09,1202.42 1383.75,1201.25 1404.5,1201.5C 1420.09,1201.03 1435.42,1202.03 1450.5,1204.5C 1407.37,1206.28 1369.37,1221.11 1336.5,1249C 1320.43,1263.9 1310.1,1282.07 1305.5,1303.5C 1304.73,1304.26 1304.23,1305.26 1304,1306.5C 1303.18,1314.01 1303.34,1321.35 1304.5,1328.5C 1308.52,1354.7 1320.52,1376.53 1340.5,1394C 1383.21,1426.72 1431.54,1439.89 1485.5,1433.5C 1491.22,1433.77 1496.55,1432.77 1501.5,1430.5C 1536.58,1424.63 1566.58,1409.3 1591.5,1384.5C 1592.76,1385.51 1593.43,1387.01 1593.5,1389C 1590.83,1420.51 1582.99,1450.68 1570,1479.5C 1559.01,1500.65 1544.84,1519.32 1527.5,1535.5C 1500.15,1558 1468.81,1572.17 1433.5,1578C 1392.89,1583.65 1352.22,1583.99 1311.5,1579C 1281.25,1575.8 1251.25,1571.14 1221.5,1565C 1213.32,1562.58 1204.99,1560.91 1196.5,1560C 1195.19,1559.02 1194.19,1557.85 1193.5,1556.5C 1193.05,1555.54 1192.38,1554.71 1191.5,1554C 1151.6,1547.79 1114.6,1534.12 1080.5,1513C 1073.88,1508.77 1067.71,1503.94 1062,1498.5C 1061.38,1497.55 1061.55,1496.72 1062.5,1496C 1079.73,1484.28 1095.56,1470.78 1110,1455.5C 1117.65,1444.79 1114.82,1440.29 1101.5,1442C 1069.32,1476.71 1030.65,1500.88 985.5,1514.5C 981.4,1522.3 983.566,1526.64 992,1527.5C 1013.08,1525.04 1032.24,1517.71 1049.5,1505.5C 1072.57,1525.71 1098.23,1541.87 1126.5,1554C 1142.55,1557.28 1158.55,1560.45 1174.5,1563.5C 1174.33,1572.17 1174.5,1580.84 1175,1589.5C 1205.37,1648.22 1230.7,1708.88 1251,1771.5C 1261.52,1803.98 1266.69,1837.32 1266.5,1871.5C 1267.5,1871.5 1268.5,1871.5 1269.5,1871.5C 1230.44,1884.9 1190.44,1895.4 1149.5,1903C 1123.31,1907.6 1096.97,1911.27 1070.5,1914C 1044.01,1915.82 1017.68,1917.65 991.5,1919.5C 948.5,1919.5 905.5,1919.5 862.5,1919.5C 759.976,1917.09 658.309,1905.93 557.5,1886C 489.47,1871.77 423.47,1851.1 359.5,1824C 344.312,1817.57 329.645,1810.4 315.5,1802.5C 317.436,1792.93 319.603,1783.27 322,1773.5C 333.867,1737.1 349.534,1702.43 369,1669.5C 371.943,1657.5 374.776,1645.5 377.5,1633.5C 399.551,1627.98 420.884,1620.15 441.5,1610C 465.059,1583.42 484.225,1553.92 499,1521.5C 504.956,1506.45 510.789,1491.45 516.5,1476.5C 518.61,1472.5 519.943,1468.16 520.5,1463.5C 528.924,1434.05 534.924,1404.05 538.5,1373.5C 539.957,1368.4 540.624,1363.07 540.5,1357.5C 541.121,1340.67 541.788,1323.83 542.5,1307C 542.216,1287.97 541.216,1269.14 539.5,1250.5C 539.663,1243.94 538.996,1237.61 537.5,1231.5C 537.269,1225.45 536.602,1219.45 535.5,1213.5C 535.638,1208.59 534.972,1203.92 533.5,1199.5C 530.445,1181.45 527.112,1163.45 523.5,1145.5C 523.279,1142.93 522.612,1140.6 521.5,1138.5C 516.004,1114.54 509.671,1090.87 502.5,1067.5C 514.707,1040.67 529.707,1015.67 547.5,992.5C 548.289,992.217 548.956,991.717 549.5,991C 571.528,988.595 593.528,985.928 615.5,983C 675.889,973.459 733.222,954.793 787.5,927C 820.206,909.503 847.872,886.17 870.5,857C 874.486,856.501 878.486,856.334 882.5,856.5 Z"/></g>
<g><path style="opacity:1" fill="#fefefe" d="M 1100.5,991.5 C 1107.59,991.586 1114.59,992.419 1121.5,994C 1164.66,1006.25 1195.99,1032.58 1215.5,1073C 1215.43,1073.76 1215.1,1074.26 1214.5,1074.5C 1186.19,1043.76 1153.52,1038.26 1116.5,1058C 1091.33,1075.78 1073.5,1099.28 1063,1128.5C 1054.5,1153.5 1051.33,1179.17 1053.5,1205.5C 1053.12,1209.49 1053.78,1213.16 1055.5,1216.5C 1059.4,1244.63 1071.07,1268.97 1090.5,1289.5C 1089.97,1291.62 1088.64,1293.12 1086.5,1294C 1076.34,1298.91 1066.67,1304.58 1057.5,1311C 1054.97,1312.42 1052.3,1312.75 1049.5,1312C 1039.88,1307.52 1030.55,1302.52 1021.5,1297C 993.969,1276.46 974.469,1249.96 963,1217.5C 944.38,1158.11 951.713,1102.45 985,1050.5C 1013.4,1011.05 1051.9,991.382 1100.5,991.5 Z"/></g>
<g><path style="opacity:1" fill="#191919" d="M 1214.5,1074.5 C 1216.42,1077.32 1218.59,1079.99 1221,1082.5C 1227.19,1098.62 1231.36,1115.29 1233.5,1132.5C 1234.35,1145.48 1234.69,1158.48 1234.5,1171.5C 1232.06,1193.18 1226.72,1214.18 1218.5,1234.5C 1174.33,1248.25 1132.33,1266.92 1092.5,1290.5C 1091.82,1290.14 1091.15,1289.8 1090.5,1289.5C 1071.07,1268.97 1059.4,1244.63 1055.5,1216.5C 1055.19,1212.64 1054.52,1208.97 1053.5,1205.5C 1051.33,1179.17 1054.5,1153.5 1063,1128.5C 1073.5,1099.28 1091.33,1075.78 1116.5,1058C 1153.52,1038.26 1186.19,1043.76 1214.5,1074.5 Z"/></g>
<g><path style="opacity:1" fill="#191919" d="M 502.5,1067.5 C 509.671,1090.87 516.004,1114.54 521.5,1138.5C 521.171,1141.23 521.837,1143.56 523.5,1145.5C 527.112,1163.45 530.445,1181.45 533.5,1199.5C 533.362,1204.41 534.028,1209.08 535.5,1213.5C 536.602,1219.45 537.269,1225.45 537.5,1231.5C 537.454,1238.05 538.121,1244.38 539.5,1250.5C 541.216,1269.14 542.216,1287.97 542.5,1307C 541.788,1323.83 541.121,1340.67 540.5,1357.5C 539.194,1362.62 538.527,1367.95 538.5,1373.5C 534.924,1404.05 528.924,1434.05 520.5,1463.5C 518.39,1467.5 517.057,1471.84 516.5,1476.5C 510.789,1491.45 504.956,1506.45 499,1521.5C 484.225,1553.92 465.059,1583.42 441.5,1610C 420.884,1620.15 399.551,1627.98 377.5,1633.5C 367.971,1635.69 358.304,1637.02 348.5,1637.5C 337.482,1637.62 326.482,1637.29 315.5,1636.5C 308.481,1634.86 301.481,1633.03 294.5,1631C 266.561,1617.39 248.394,1595.55 240,1565.5C 225.167,1507.29 227.834,1449.95 248,1393.5C 262.772,1353.29 281.772,1315.29 305,1279.5C 359.931,1198.73 425.765,1128.07 502.5,1067.5 Z"/></g>
<g><path style="opacity:1" fill="#fefefe" d="M 751.5,1075.5 C 797.255,1075.02 835.422,1091.69 866,1125.5C 891.124,1155.09 907.124,1189.09 914,1227.5C 923.063,1283.14 913.396,1335.14 885,1383.5C 866.637,1413.2 841.47,1435.03 809.5,1449C 760.587,1466.28 715.587,1459.28 674.5,1428C 632.208,1390.91 608.708,1344.08 604,1287.5C 599.479,1230.75 613.813,1179.42 647,1133.5C 673.952,1099.81 708.786,1080.47 751.5,1075.5 Z"/></g>
<g><path style="opacity:1" fill="#626262" d="M 521.5,1138.5 C 522.612,1140.6 523.279,1142.93 523.5,1145.5C 521.837,1143.56 521.171,1141.23 521.5,1138.5 Z"/></g>
<g><path style="opacity:1" fill="#6e6e6e" d="M 1233.5,1132.5 C 1234.31,1134.29 1234.81,1136.29 1235,1138.5C 1235.33,1137.83 1235.67,1137.17 1236,1136.5C 1235.92,1148.3 1235.42,1159.97 1234.5,1171.5C 1234.69,1158.48 1234.35,1145.48 1233.5,1132.5 Z"/></g>
<g><path style="opacity:1" fill="#191919" d="M 852.5,1220.5 C 852.41,1223.15 853.076,1225.49 854.5,1227.5C 857.657,1243.68 858.323,1260.01 856.5,1276.5C 855.343,1279.27 854.676,1282.27 854.5,1285.5C 849.345,1311.64 837.012,1333.81 817.5,1352C 782.055,1378.97 746.388,1379.31 710.5,1353C 690.347,1334.69 677.68,1312.19 672.5,1285.5C 671.913,1279.96 670.913,1274.63 669.5,1269.5C 666.822,1234.57 675.988,1203.24 697,1175.5C 730.923,1137.71 769.423,1132.21 812.5,1159C 832.881,1174.89 846.214,1195.39 852.5,1220.5 Z"/></g>
<g><path style="opacity:1" fill="#191919" d="M 1450.5,1204.5 C 1493.44,1202.82 1533.1,1213.15 1569.5,1235.5C 1576.43,1241.31 1583.43,1247.15 1590.5,1253C 1604.06,1267.05 1613.06,1283.55 1617.5,1302.5C 1618.17,1311.48 1618.5,1320.48 1618.5,1329.5C 1615.07,1350.69 1606.07,1369.02 1591.5,1384.5C 1566.58,1409.3 1536.58,1424.63 1501.5,1430.5C 1495.96,1431.09 1490.63,1432.09 1485.5,1433.5C 1431.54,1439.89 1383.21,1426.72 1340.5,1394C 1320.52,1376.53 1308.52,1354.7 1304.5,1328.5C 1304.3,1320.13 1304.63,1311.8 1305.5,1303.5C 1310.1,1282.07 1320.43,1263.9 1336.5,1249C 1369.37,1221.11 1407.37,1206.28 1450.5,1204.5 Z"/></g>
<g><path style="opacity:1" fill="#5e5e5e" d="M 533.5,1199.5 C 534.972,1203.92 535.638,1208.59 535.5,1213.5C 534.028,1209.08 533.362,1204.41 533.5,1199.5 Z"/></g>
<g><path style="opacity:1" fill="#a2a2a2" d="M 1053.5,1205.5 C 1054.52,1208.97 1055.19,1212.64 1055.5,1216.5C 1053.78,1213.16 1053.12,1209.49 1053.5,1205.5 Z"/></g>
<g><path style="opacity:1" fill="#616161" d="M 852.5,1220.5 C 853.924,1222.51 854.59,1224.85 854.5,1227.5C 853.076,1225.49 852.41,1223.15 852.5,1220.5 Z"/></g>
<g><path style="opacity:1" fill="#fefefe" d="M 1710.5,1223.5 C 1710.5,1455.5 1710.5,1687.5 1710.5,1919.5C 1470.83,1919.5 1231.17,1919.5 991.5,1919.5C 1017.68,1917.65 1044.01,1915.82 1070.5,1914C 1096.97,1911.27 1123.31,1907.6 1149.5,1903C 1190.44,1895.4 1230.44,1884.9 1269.5,1871.5C 1320.81,1854.51 1368.81,1831.18 1413.5,1801.5C 1447.17,1779.81 1478.5,1754.97 1507.5,1727C 1574.98,1658.27 1625.48,1578.44 1659,1487.5C 1689.21,1402.01 1706.37,1314.01 1710.5,1223.5 Z"/></g>
<g><path style="opacity:1" fill="#494949" d="M 537.5,1231.5 C 538.996,1237.61 539.663,1243.94 539.5,1250.5C 538.121,1244.38 537.454,1238.05 537.5,1231.5 Z"/></g>
<g><path style="opacity:1" fill="#a4a4a4" d="M 669.5,1269.5 C 670.913,1274.63 671.913,1279.96 672.5,1285.5C 670.227,1280.55 669.227,1275.22 669.5,1269.5 Z"/></g>
<g><path style="opacity:1" fill="#acacac" d="M 856.5,1276.5 C 856.664,1279.19 856.497,1281.85 856,1284.5C 855.617,1285.06 855.117,1285.39 854.5,1285.5C 854.676,1282.27 855.343,1279.27 856.5,1276.5 Z"/></g>
<g><path style="opacity:1" fill="#fefefe" d="M -0.5,1291.5 C 1.99862,1342.14 9.16529,1392.14 21,1441.5C 59.1345,1586.26 141.634,1697.6 268.5,1775.5C 272.941,1778.23 277.275,1781.23 281.5,1784.5C 292.562,1791.03 303.895,1797.03 315.5,1802.5C 329.645,1810.4 344.312,1817.57 359.5,1824C 423.47,1851.1 489.47,1871.77 557.5,1886C 658.309,1905.93 759.976,1917.09 862.5,1919.5C 574.833,1919.5 287.167,1919.5 -0.5,1919.5C -0.5,1710.17 -0.5,1500.83 -0.5,1291.5 Z"/></g>
<g><path style="opacity:1" fill="#4d4d4d" d="M 1617.5,1302.5 C 1619.02,1307.58 1619.68,1312.91 1619.5,1318.5C 1619.5,1322.35 1619.17,1326.02 1618.5,1329.5C 1618.5,1320.48 1618.17,1311.48 1617.5,1302.5 Z"/></g>
<g><path style="opacity:1" fill="#7a7a7a" d="M 1305.5,1303.5 C 1304.63,1311.8 1304.3,1320.13 1304.5,1328.5C 1303.34,1321.35 1303.18,1314.01 1304,1306.5C 1304.23,1305.26 1304.73,1304.26 1305.5,1303.5 Z"/></g>
<g><path style="opacity:1" fill="#9e9e9e" d="M 540.5,1357.5 C 540.624,1363.07 539.957,1368.4 538.5,1373.5C 538.527,1367.95 539.194,1362.62 540.5,1357.5 Z"/></g>
<g><path style="opacity:1" fill="#979797" d="M 1501.5,1430.5 C 1496.55,1432.77 1491.22,1433.77 1485.5,1433.5C 1490.63,1432.09 1495.96,1431.09 1501.5,1430.5 Z"/></g>
<g><path style="opacity:1" fill="#1b1b1b" d="M 1193.5,1556.5 C 1193.74,1558.47 1193.41,1560.3 1192.5,1562C 1186.59,1563.36 1180.59,1563.86 1174.5,1563.5C 1158.55,1560.45 1142.55,1557.28 1126.5,1554C 1098.23,1541.87 1072.57,1525.71 1049.5,1505.5C 1032.24,1517.71 1013.08,1525.04 992,1527.5C 983.566,1526.64 981.4,1522.3 985.5,1514.5C 1030.65,1500.88 1069.32,1476.71 1101.5,1442C 1114.82,1440.29 1117.65,1444.79 1110,1455.5C 1095.56,1470.78 1079.73,1484.28 1062.5,1496C 1061.55,1496.72 1061.38,1497.55 1062,1498.5C 1067.71,1503.94 1073.88,1508.77 1080.5,1513C 1114.6,1534.12 1151.6,1547.79 1191.5,1554C 1192.38,1554.71 1193.05,1555.54 1193.5,1556.5 Z"/></g>
<g><path style="opacity:1" fill="#919191" d="M 520.5,1463.5 C 519.943,1468.16 518.61,1472.5 516.5,1476.5C 517.057,1471.84 518.39,1467.5 520.5,1463.5 Z"/></g>
<g><path style="opacity:1" fill="#969696" d="M 1527.5,1535.5 C 1521.09,1556.69 1514.92,1578.02 1509,1599.5C 1502.74,1615.28 1497.07,1631.28 1492,1647.5C 1486.06,1660.16 1480.56,1672.99 1475.5,1686C 1458.08,1725.35 1437.41,1762.85 1413.5,1798.5C 1412.35,1799.69 1412.35,1800.69 1413.5,1801.5C 1368.81,1831.18 1320.81,1854.51 1269.5,1871.5C 1268.5,1871.5 1267.5,1871.5 1266.5,1871.5C 1266.69,1837.32 1261.52,1803.98 1251,1771.5C 1230.7,1708.88 1205.37,1648.22 1175,1589.5C 1174.5,1580.84 1174.33,1572.17 1174.5,1563.5C 1180.59,1563.86 1186.59,1563.36 1192.5,1562C 1193.41,1560.3 1193.74,1558.47 1193.5,1556.5C 1194.19,1557.85 1195.19,1559.02 1196.5,1560C 1204.99,1560.91 1213.32,1562.58 1221.5,1565C 1251.25,1571.14 1281.25,1575.8 1311.5,1579C 1352.22,1583.99 1392.89,1583.65 1433.5,1578C 1468.81,1572.17 1500.15,1558 1527.5,1535.5 Z"/></g>
<g><path style="opacity:1" fill="#4e4e4e" d="M 315.5,1636.5 C 326.482,1637.29 337.482,1637.62 348.5,1637.5C 344.18,1638.17 339.68,1638.5 335,1638.5C 328.262,1638.69 321.762,1638.02 315.5,1636.5 Z"/></g>
</svg>
