<?xml version="1.0" encoding="UTF-8"?>
<!DOCTYPE svg PUBLIC "-//W3C//DTD SVG 1.1//EN" "http://www.w3.org/Graphics/SVG/1.1/DTD/svg11.dtd">
<svg xmlns="http://www.w3.org/2000/svg" version="1.1" width="176px" height="176px" style="shape-rendering:geometricPrecision; text-rendering:geometricPrecision; image-rendering:optimizeQuality; fill-rule:evenodd; clip-rule:evenodd" xmlns:xlink="http://www.w3.org/1999/xlink">
<g><path style="opacity:1" fill="#fbfcfd" d="M -0.5,-0.5 C 58.1667,-0.5 116.833,-0.5 175.5,-0.5C 175.5,58.1667 175.5,116.833 175.5,175.5C 116.833,175.5 58.1667,175.5 -0.5,175.5C -0.5,116.833 -0.5,58.1667 -0.5,-0.5 Z"/></g>
<g><path style="opacity:1" fill="#5b9efa" d="M 153.5,5.5 C 130.852,4.18756 108.186,4.18756 85.5,5.5C 85.9175,4.77842 86.5842,4.27842 87.5,4C 109.167,3.33333 130.833,3.33333 152.5,4C 153.056,4.38258 153.389,4.88258 153.5,5.5 Z"/></g>
<g><path style="opacity:1" fill="#2775f4" d="M 72.5,5.5 C 73.0508,8.80673 73.3841,12.1401 73.5,15.5C 73.4894,17.0174 72.8228,18.1841 71.5,19C 61.2314,21.7303 57.0648,17.8969 59,7.5C 62.91,2.96517 67.41,2.29851 72.5,5.5 Z"/></g>
<g><path style="opacity:1" fill="#1d73f7" d="M 153.5,5.5 C 154.156,7.484 154.822,9.484 155.5,11.5C 154.844,13.4534 154.511,15.4534 154.5,17.5C 153.711,17.7828 153.044,18.2828 152.5,19C 130.5,19.6667 108.5,19.6667 86.5,19C 81.6849,14.6724 81.3516,10.1724 85.5,5.5C 108.186,4.18756 130.852,4.18756 153.5,5.5 Z"/></g>
<g><path style="opacity:1" fill="#467bd1" d="M 153.5,5.5 C 155.922,6.69231 156.922,8.69231 156.5,11.5C 156.639,13.8825 155.972,15.8825 154.5,17.5C 154.511,15.4534 154.844,13.4534 155.5,11.5C 154.822,9.484 154.156,7.484 153.5,5.5 Z"/></g>
<g><path style="opacity:1" fill="#608ad7" d="M 72.5,5.5 C 74.1414,7.28744 75.1414,9.45411 75.5,12C 75.6134,13.6991 74.9468,14.8658 73.5,15.5C 73.3841,12.1401 73.0508,8.80673 72.5,5.5 Z"/></g>
<g><path style="opacity:1" fill="#3bd5d1" d="M 37.5,41.5 C 47.0922,39.2748 51.5922,42.9414 51,52.5C 46.6016,58.2795 41.4349,58.9462 35.5,54.5C 33.8044,49.7118 34.4711,45.3784 37.5,41.5 Z"/></g>
<g><path style="opacity:1" fill="#39d5d1" d="M 61.5,41.5 C 79.5123,41.1671 97.5123,41.5005 115.5,42.5C 121.185,48.2517 120.518,53.085 113.5,57C 96.8333,57.6667 80.1667,57.6667 63.5,57C 57.5827,52.5007 56.916,47.334 61.5,41.5 Z"/></g>
<g><path style="opacity:1" fill="#2c76f1" d="M 23.5,78.5 C 32.1812,77.3501 36.0146,81.0168 35,89.5C 29.5812,97.41 24.2478,97.41 19,89.5C 17.7758,84.626 19.2758,80.9593 23.5,78.5 Z"/></g>
<g><path style="opacity:1" fill="#2072f6" d="M 99.5,79.5 C 102.44,84.4871 102.107,89.1538 98.5,93.5C 97.8333,93.5 97.5,93.8333 97.5,94.5C 80.83,94.6666 64.1633,94.4999 47.5,94C 44.038,91.7607 42.7046,88.594 43.5,84.5C 43.8588,82.629 44.8588,81.129 46.5,80C 64.1635,79.5001 81.8302,79.3334 99.5,79.5 Z"/></g>
<g><path style="opacity:1" fill="#4a7edb" d="M 99.5,79.5 C 103.65,82.7129 104.483,86.7129 102,91.5C 101.184,92.8228 100.017,93.4894 98.5,93.5C 102.107,89.1538 102.44,84.4871 99.5,79.5 Z"/></g>
<g><path style="opacity:1" fill="#abdcff" d="M 43.5,84.5 C 42.7046,88.594 44.038,91.7607 47.5,94C 64.1633,94.4999 80.83,94.6666 97.5,94.5C 80.6717,95.6617 63.6717,95.8284 46.5,95C 45.4366,93.8118 44.1033,93.3118 42.5,93.5C 42.19,90.2869 42.5233,87.2869 43.5,84.5 Z"/></g>
<g><path style="opacity:1" fill="#91fbf7" d="M 113.5,116.5 C 96.423,116.182 79.423,116.515 62.5,117.5C 70.6394,116.169 79.1394,115.502 88,115.5C 96.6734,115.5 105.173,115.834 113.5,116.5 Z"/></g>
<g><path style="opacity:1" fill="#38d4cf" d="M 113.5,116.5 C 115.429,117.006 117.095,118.006 118.5,119.5C 119.487,122.768 119.82,126.102 119.5,129.5C 117.315,129.704 115.315,130.37 113.5,131.5C 96.5,131.5 79.5,131.5 62.5,131.5C 58.5946,128.357 57.5946,124.357 59.5,119.5C 60.2652,118.388 61.2652,117.721 62.5,117.5C 79.423,116.515 96.423,116.182 113.5,116.5 Z"/></g>
<g><path style="opacity:1" fill="#3fd4d0" d="M 39.5,115.5 C 48.243,114.975 52.0763,118.975 51,127.5C 45.5987,134.073 40.2654,134.073 35,127.5C 34.1816,124.773 34.3483,122.106 35.5,119.5C 36.9093,118.151 38.2426,116.818 39.5,115.5 Z"/></g>
<g><path style="opacity:1" fill="#bff2f1" d="M 62.5,131.5 C 79.5,131.5 96.5,131.5 113.5,131.5C 105.361,132.831 96.8606,133.498 88,133.5C 79.1394,133.498 70.6394,132.831 62.5,131.5 Z"/></g>
<g><path style="opacity:1" fill="#468cf4" d="M 155.5,165.5 C 156.379,160.758 154.712,157.258 150.5,155C 128.809,154.211 107.143,154.378 85.5,155.5C 85.9175,154.778 86.5842,154.278 87.5,154C 108.833,153.333 130.167,153.333 151.5,154C 156.387,156.648 157.72,160.481 155.5,165.5 Z"/></g>
<g><path style="opacity:1" fill="#c7e6ff" d="M 62.5,153.5 C 61.5423,154.962 60.3756,156.295 59,157.5C 58.5045,159.473 58.3379,161.473 58.5,163.5C 57.1997,160.976 57.1997,158.309 58.5,155.5C 59.5237,154.147 60.857,153.48 62.5,153.5 Z"/></g>
<g><path style="opacity:1" fill="#2474f5" d="M 62.5,153.5 C 66.162,153.034 69.4954,153.701 72.5,155.5C 73.8333,159.5 73.8333,163.5 72.5,167.5C 69.1415,169.487 65.4748,169.987 61.5,169C 59.84,167.512 58.84,165.679 58.5,163.5C 58.3379,161.473 58.5045,159.473 59,157.5C 60.3756,156.295 61.5423,154.962 62.5,153.5 Z"/></g>
<g><path style="opacity:1" fill="#1e73f7" d="M 155.5,165.5 C 154.636,166.688 153.636,167.855 152.5,169C 130.5,169.667 108.5,169.667 86.5,169C 81.6849,164.672 81.3516,160.172 85.5,155.5C 107.143,154.378 128.809,154.211 150.5,155C 154.712,157.258 156.379,160.758 155.5,165.5 Z"/></g>
<g><path style="opacity:1" fill="#457bd1" d="M 72.5,155.5 C 73.9723,157.117 74.639,159.117 74.5,161.5C 74.639,163.883 73.9723,165.883 72.5,167.5C 73.8333,163.5 73.8333,159.5 72.5,155.5 Z"/></g>
</svg>
