<svg enable-background="new 0 0 32 32" viewBox="0 0 32 32" xmlns="http://www.w3.org/2000/svg"><path d="m14 6.36c-1.301 0-2.36-1.059-2.36-2.36s1.059-2.36 2.36-2.36 2.36 1.059 2.36 2.36-1.059 2.36-2.36 2.36zm0-4c-.904 0-1.64.736-1.64 1.64s.736 1.64 1.64 1.64 1.64-.736 1.64-1.64-.736-1.64-1.64-1.64zm-4 10c-1.301 0-2.36-1.059-2.36-2.36s1.059-2.36 2.36-2.36 2.36 1.059 2.36 2.36-1.059 2.36-2.36 2.36zm0-4c-.904 0-1.64.736-1.64 1.64s.736 1.64 1.64 1.64 1.64-.736 1.64-1.64-.736-1.64-1.64-1.64zm-4 10c-1.301 0-2.36-1.059-2.36-2.36s1.059-2.36 2.36-2.36 2.36 1.059 2.36 2.36c0 1.302-1.059 2.36-2.36 2.36zm0-4c-.904 0-1.64.736-1.64 1.64s.736 1.64 1.64 1.64 1.64-.736 1.64-1.64-.736-1.64-1.64-1.64zm4 10c-1.301 0-2.36-1.059-2.36-2.36s1.059-2.36 2.36-2.36 2.36 1.059 2.36 2.36-1.059 2.36-2.36 2.36zm0-4c-.904 0-1.64.735-1.64 1.64s.736 1.64 1.64 1.64 1.64-.735 1.64-1.64-.736-1.64-1.64-1.64zm4 10c-1.301 0-2.36-1.059-2.36-2.36s1.059-2.36 2.36-2.36 2.36 1.059 2.36 2.36-1.059 2.36-2.36 2.36zm0-4c-.904 0-1.64.735-1.64 1.64s.736 1.64 1.64 1.64 1.64-.735 1.64-1.64-.736-1.64-1.64-1.64zm14.36-22.36c0-.199-.161-.36-.36-.36h-10c-.199 0-.36.161-.36.36s.161.36.36.36h10c.199 0 .36-.161.36-.36zm-5 6c0-.199-.161-.36-.36-.36h-9c-.199 0-.36.161-.36.36s.161.36.36.36h9c.199 0 .36-.161.36-.36zm-4 6c0-.199-.161-.36-.36-.36h-9c-.199 0-.36.161-.36.36s.161.36.36.36h9c.199 0 .36-.161.36-.36zm4 6c0-.199-.161-.36-.36-.36h-9c-.199 0-.36.161-.36.36s.161.36.36.36h9c.199 0 .36-.161.36-.36zm5 6c0-.199-.161-.36-.36-.36h-10c-.199 0-.36.161-.36.36s.161.36.36.36h10c.199 0 .36-.161.36-.36z"/><path d="m0 0h32v32h-32z" fill="none"/></svg>