<?xml version="1.0" encoding="UTF-8"?>
<!DOCTYPE svg PUBLIC "-//W3C//DTD SVG 1.1//EN" "http://www.w3.org/Graphics/SVG/1.1/DTD/svg11.dtd">
<svg xmlns="http://www.w3.org/2000/svg" version="1.1" width="98px" height="98px" style="shape-rendering:geometricPrecision; text-rendering:geometricPrecision; image-rendering:optimizeQuality; fill-rule:evenodd; clip-rule:evenodd" xmlns:xlink="http://www.w3.org/1999/xlink">
<g><path style="opacity:0.799" fill="#0463fe" d="M 32.5,4.5 C 38.7331,4.88892 40.5664,7.88892 38,13.5C 33.5322,16.1204 30.3655,14.9537 28.5,10C 29.0074,7.45475 30.3407,5.62142 32.5,4.5 Z"/></g>
<g><path style="opacity:0.896" fill="#0361fe" d="M 45.5,4.5 C 56.505,4.33349 67.505,4.50015 78.5,5C 82.0846,7.52813 82.418,10.5281 79.5,14C 67.5,14.6667 55.5,14.6667 43.5,14C 40.4664,9.97408 41.1331,6.80742 45.5,4.5 Z"/></g>
<g><path style="opacity:0.849" fill="#21d7d3" d="M 18.5,24.5 C 23.85,23.3846 26.6834,25.3846 27,30.5C 24.1765,35.3954 20.8432,35.7287 17,31.5C 16.3911,28.9348 16.8911,26.6015 18.5,24.5 Z"/></g>
<g><path style="opacity:0.893" fill="#21d6d3" d="M 31.5,24.5 C 41.1724,24.3335 50.8391,24.5002 60.5,25C 63.4052,28.3742 63.0719,31.3742 59.5,34C 50.5,34.6667 41.5,34.6667 32.5,34C 28.9678,31.1716 28.6344,28.005 31.5,24.5 Z"/></g>
<g><path style="opacity:0.807" fill="#0561fe" d="M 11.5,43.5 C 17.5548,43.0522 19.7214,45.7189 18,51.5C 13.6735,55.6012 10.5068,54.7679 8.5,49C 8.61322,46.6013 9.61322,44.7679 11.5,43.5 Z"/></g>
<g><path style="opacity:0.887" fill="#0361fe" d="M 24.5,43.5 C 33.1731,43.3336 41.8397,43.5002 50.5,44C 55.2949,46.5668 55.6282,49.5668 51.5,53C 42.1667,53.6667 32.8333,53.6667 23.5,53C 20.0166,49.5635 20.3499,46.3968 24.5,43.5 Z"/></g>
<g><path style="opacity:0.849" fill="#21d7d3" d="M 18.5,63.5 C 23.85,62.3846 26.6834,64.3846 27,69.5C 24.1765,74.3954 20.8432,74.7287 17,70.5C 16.3911,67.9348 16.8911,65.6015 18.5,63.5 Z"/></g>
<g><path style="opacity:0.893" fill="#21d5d2" d="M 31.5,63.5 C 40.8393,63.3335 50.1726,63.5002 59.5,64C 63.4815,66.9515 63.4815,69.9515 59.5,73C 50.5,73.6667 41.5,73.6667 32.5,73C 28.9678,70.1716 28.6344,67.005 31.5,63.5 Z"/></g>
<g><path style="opacity:0.798" fill="#0561fe" d="M 32.5,82.5 C 38.7331,82.8889 40.5664,85.8889 38,91.5C 33.4011,94.4563 30.2345,93.2896 28.5,88C 29.0074,85.4547 30.3407,83.6214 32.5,82.5 Z"/></g>
<g><path style="opacity:0.896" fill="#0361fe" d="M 45.5,82.5 C 56.505,82.3335 67.505,82.5002 78.5,83C 82.0846,85.5281 82.418,88.5281 79.5,92C 67.5,92.6667 55.5,92.6667 43.5,92C 40.4664,87.9741 41.1331,84.8074 45.5,82.5 Z"/></g>
</svg>
